<?xml version="1.0" standalone="no"?>
<!DOCTYPE svg PUBLIC "-//W3C//DTD SVG 20010904//EN"
 "http://www.w3.org/TR/2001/REC-SVG-20010904/DTD/svg10.dtd">
<svg version="1.0" xmlns="http://www.w3.org/2000/svg"
 width="290.000000pt" height="290.000000pt" viewBox="0 0 290.000000 290.000000"
 preserveAspectRatio="xMidYMid meet">
<metadata>
Created by potrace 1.11, written by Peter Selinger 2001-2013
</metadata>
<g transform="translate(0.000000,290.000000) scale(0.100000,-0.100000)"
fill="#000000" stroke="none">
<path d="M310 2874 c-138 -37 -246 -142 -290 -282 -18 -54 -19 -120 -19 -1128
-1 -690 2 -1090 9 -1125 28 -146 135 -268 283 -318 57 -20 84 -20 1136 -21
696 0 1096 3 1131 10 153 29 279 145 324 299 14 47 16 182 16 1127 0 710 -3
1089 -10 1120 -25 113 -104 222 -200 277 -104 59 -53 57 -1239 56 -925 0
-1094 -2 -1141 -15z"/>
</g>
</svg>
