<?xml version="1.0" encoding="UTF-8"?>
<svg width="52px" height="54px" viewBox="0 0 52 54" version="1.1" xmlns="http://www.w3.org/2000/svg" xmlns:xlink="http://www.w3.org/1999/xlink">
    <!-- Generator: Sketch 51.2 (57519) - http://www.bohemiancoding.com/sketch -->
    <title>metamask</title>
    <desc>Created with Sketch.</desc>
    <defs></defs>
    <g id="Page-1" stroke="none" stroke-width="1" fill="none" fill-rule="evenodd">
        <g id="Artboard-2" transform="translate(-1233.000000, -1032.000000)" fill-rule="nonzero">
            <g id="metamask" style="mix-blend-mode: luminosity;" transform="translate(1234.000000, 1033.000000)">
                <polygon id="Shape" stroke="#E4761B" fill="#E4761B" points="47.382134 35.978043 44.3548387 46.2167064 38.4119107 44.5909308"></polygon>
                <polygon id="Shape" stroke="#E4761B" fill="#E4761B" points="38.4119107 44.5909308 44.1439206 36.7350835 47.382134 35.978043"></polygon>
                <path d="M42.9280397,28.2587112 L47.382134,35.978043 L44.1439206,36.7350835 L42.9280397,28.2587112 Z M42.9280397,28.2587112 L45.7940447,26.273031 L47.382134,35.978043 L42.9280397,28.2587112 Z" id="Shape" stroke="#F6851B" fill="#F6851B"></path>
                <path d="M39.280397,22.4257757 L47.5186104,19.0501193 L47.1091811,20.899284 L39.280397,22.4257757 Z M46.8486352,23.1207637 L39.280397,22.4257757 L47.1091811,20.899284 L46.8486352,23.1207637 Z" id="Shape" stroke="#763D16" fill="#763D16"></path>
                <path d="M46.8486352,23.1207637 L45.7940447,26.273031 L39.280397,22.4257757 L46.8486352,23.1207637 Z M48.4987593,19.8319809 L47.1091811,20.899284 L47.5186104,19.0501193 L48.4987593,19.8319809 Z M46.8486352,23.1207637 L47.1091811,20.899284 L48.2133995,21.8176611 L46.8486352,23.1207637 Z" id="Shape" stroke="#763D16" fill="#763D16"></path>
                <polygon id="Shape" stroke="#E2761B" fill="#E2761B" points="32.0223325 42.09642 34.0818859 42.7541766 38.4119107 44.5909308"></polygon>
                <path d="M45.7940447,26.273031 L46.8486352,23.1207637 L47.7543424,23.8157518 L45.7940447,26.273031 Z M45.7940447,26.273031 L37.2456576,23.4558473 L39.280397,22.4257757 L45.7940447,26.273031 Z" id="Shape" stroke="#763D16" fill="#763D16"></path>
                <polygon id="Shape" stroke="#763D16" fill="#763D16" points="41.3151365 12.7579952 39.280397 22.4257757 37.2456576 23.4558473"></polygon>
                <polygon id="Shape" stroke="#763D16" fill="#763D16" points="47.5186104 19.0501193 39.280397 22.4257757 41.3151365 12.7579952"></polygon>
                <polygon id="Shape" stroke="#763D16" fill="#763D16" points="41.3151365 12.7579952 49.9131514 11.7651551 47.5186104 19.0501193"></polygon>
                <polygon id="Shape" stroke="#F6851B" fill="#F6851B" points="45.7940447 26.273031 42.9280397 28.2587112 37.2456576 23.4558473"></polygon>
                <polygon id="Shape" stroke="#763D16" fill="#763D16" points="49.5409429 4.80286396 49.9131514 11.7651551 41.3151365 12.7579952"></polygon>
                <polygon id="Shape" stroke="#E2761B" fill="#E2761B" points="49.5409429 4.80286396 32.3573201 17.3002387 32.133995 8.82386635"></polygon>
                <polygon id="Shape" stroke="#F6851B" fill="#F6851B" points="19.3548387 7.80620525 32.133995 8.82386635 32.3573201 17.3002387"></polygon>
                <polygon id="Shape" stroke="#763D16" fill="#763D16" points="37.2456576 23.4558473 32.3573201 17.3002387 41.3151365 12.7579952"></polygon>
                <polygon id="Shape" stroke="#E4761B" fill="#E4761B" points="37.2456576 23.4558473 42.9280397 28.2587112 34.9503722 29.1398568"></polygon>
                <polygon id="Shape" stroke="#E4761B" fill="#E4761B" points="34.9503722 29.1398568 32.3573201 17.3002387 37.2456576 23.4558473"></polygon>
                <polygon id="Shape" stroke="#763D16" fill="#763D16" points="41.3151365 12.7579952 32.3573201 17.3002387 49.5409429 4.80286396"></polygon>
                <polygon id="Shape" stroke="#C0AD9E" fill="#C0AD9E" points="19.4665012 44.3923628 23.5235732 48.6243437 18.0024814 43.5980907"></polygon>
                <polygon id="Shape" stroke="#CD6116" fill="#CD6116" points="38.4119107 44.5909308 40.3349876 37.2811456 44.1439206 36.7350835"></polygon>
                <polygon id="Shape" stroke="#E2761B" fill="#E2761B" points="3.01488834 24.0267303 10.0372208 16.6424821 3.92059553 23.1455847"></polygon>
                <path d="M44.1439206,36.7350835 L40.3349876,37.2811456 L42.9280397,28.2587112 L44.1439206,36.7350835 Z M32.3573201,17.3002387 L25.5210918,17.0768496 L19.3548387,7.80620525 L32.3573201,17.3002387 Z" id="Shape" stroke="#F6851B" fill="#F6851B"></path>
                <polygon id="Shape" stroke="#E4751F" fill="#E4751F" points="42.9280397 28.2587112 40.3349876 37.2811456 40.1240695 32.8754177"></polygon>
                <polygon id="Shape" stroke="#CD6116" fill="#CD6116" points="34.9503722 29.1398568 42.9280397 28.2587112 40.1240695 32.8754177"></polygon>
                <polygon id="Shape" stroke="#F6851B" fill="#F6851B" points="25.5210918 17.0768496 32.3573201 17.3002387 34.9503722 29.1398568"></polygon>
                <path d="M25.5210918,17.0768496 L7.0719603,0 L19.3548387,7.80620525 L25.5210918,17.0768496 Z M19.3424318,46.9861575 L3.31265509,51.950358 L0.111662531,39.7260143 L19.3424318,46.9861575 Z" id="Shape" stroke="#E4761B" fill="#E4761B"></path>
                <polygon id="Shape" stroke="#763D16" fill="#763D16" points="5.39702233 27.0797136 11.4516129 22.3264916 16.5260546 23.5054893"></polygon>
                <polygon id="Shape" stroke="#763D16" fill="#763D16" points="16.5260546 23.5054893 11.4516129 22.3264916 14.1687345 11.1073986"></polygon>
                <polygon id="Shape" stroke="#763D16" fill="#763D16" points="3.92059553 23.1455847 11.4516129 22.3264916 5.39702233 27.0797136"></polygon>
                <polygon id="Shape" stroke="#CD6116" fill="#CD6116" points="40.1240695 32.8754177 36.9975186 31.299284 34.9503722 29.1398568"></polygon>
                <polygon id="Shape" stroke="#763D16" fill="#763D16" points="3.92059553 23.1455847 3.38709677 20.328401 11.4516129 22.3264916"></polygon>
                <polygon id="Shape" stroke="#233447" fill="#233447" points="36.3523573 34.8486874 36.9975186 31.299284 40.1240695 32.8754177"></polygon>
                <polygon id="Shape" stroke="#F6851B" fill="#F6851B" points="40.3349876 37.2811456 36.3523573 34.8486874 40.1240695 32.8754177"></polygon>
                <path d="M11.4516129,22.3264916 L3.38709677,20.328401 L2.72952854,17.9579952 L11.4516129,22.3264916 Z M14.1687345,11.1073986 L11.4516129,22.3264916 L2.72952854,17.9579952 L14.1687345,11.1073986 Z M14.1687345,11.1073986 L25.5210918,17.0768496 L16.5260546,23.5054893 L14.1687345,11.1073986 Z" id="Shape" stroke="#763D16" fill="#763D16"></path>
                <path d="M16.5260546,23.5054893 L25.5210918,17.0768496 L29.528536,29.3260143 L16.5260546,23.5054893 Z M29.528536,29.3260143 L17.0967742,29.0653938 L16.5260546,23.5054893 L29.528536,29.3260143 Z" id="Shape" stroke="#E4761B" fill="#E4761B"></path>
                <path d="M5.39702233,27.0797136 L16.5260546,23.5054893 L17.0967742,29.0653938 L5.39702233,27.0797136 Z M34.9503722,29.1398568 L29.528536,29.3260143 L25.5210918,17.0768496 L34.9503722,29.1398568 Z" id="Shape" stroke="#F6851B" fill="#F6851B"></path>
                <polygon id="Shape" stroke="#CD6116" fill="#CD6116" points="36.9975186 31.299284 36.3523573 34.8486874 34.9503722 29.1398568"></polygon>
                <polygon id="Shape" stroke="#763D16" fill="#763D16" points="7.0719603 0 25.5210918 17.0768496 14.1687345 11.1073986"></polygon>
                <polygon id="Shape" stroke="#E4761B" fill="#E4761B" points="0.111662531 39.7260143 15.6699752 39.0806683 19.3424318 46.9861575"></polygon>
                <polygon id="Shape" stroke="#CD6116" fill="#CD6116" points="19.3424318 46.9861575 15.6699752 39.0806683 23.3126551 38.7083532"></polygon>
                <path d="M36.3523573,34.8486874 L40.3349876,37.2811456 L42.5310174,42.4563246 L36.3523573,34.8486874 Z M17.0967742,29.0653938 L0.111662531,39.7260143 L5.39702233,27.0797136 L17.0967742,29.0653938 Z M15.6699752,39.0806683 L0.111662531,39.7260143 L17.0967742,29.0653938 L15.6699752,39.0806683 Z M34.9503722,29.1398568 L35.9677419,32.8381862 L31.0545906,33.1236277 L34.9503722,29.1398568 Z M31.0545906,33.1236277 L29.528536,29.3260143 L34.9503722,29.1398568 L31.0545906,33.1236277 Z" id="Shape" stroke="#F6851B" fill="#F6851B"></path>
                <polygon id="Shape" stroke="#C0AD9E" fill="#C0AD9E" points="23.5235732 48.6243437 19.3424318 46.9861575 33.8833747 49.4310263"></polygon>
                <polygon id="Shape" stroke="#763D16" fill="#763D16" points="5.39702233 27.0797136 3.01488834 24.0267303 3.92059553 23.1455847"></polygon>
                <polygon id="Shape" stroke="#D7C1B3" fill="#D7C1B3" points="35.5334988 47.6190931 33.8833747 49.4310263 19.3424318 46.9861575"></polygon>
                <polygon id="Shape" stroke="#E4761B" fill="#E4761B" points="36.3151365 43.1761337 19.3424318 46.9861575 23.3126551 38.7083532"></polygon>
                <polygon id="Shape" stroke="#D7C1B3" fill="#D7C1B3" points="19.3424318 46.9861575 36.3151365 43.1761337 35.5334988 47.6190931"></polygon>
                <path d="M2.72952854,17.9579952 L2.17121588,8.41431981 L14.1687345,11.1073986 L2.72952854,17.9579952 Z M3.92059553,23.1455847 L2.27047146,21.4701671 L3.38709677,20.328401 L3.92059553,23.1455847 Z" id="Shape" stroke="#763D16" fill="#763D16"></path>
                <polygon id="Shape" stroke="#CD6116" fill="#CD6116" points="26.7493797 31.7832936 29.528536 29.3260143 29.1315136 35.3326969"></polygon>
                <polygon id="Shape" stroke="#CD6116" fill="#CD6116" points="29.528536 29.3260143 26.7493797 31.7832936 22.7047146 33.8806683"></polygon>
                <polygon id="Shape" stroke="#F6851B" fill="#F6851B" points="42.5310174 42.4563246 41.7741935 41.897852 36.3523573 34.8486874"></polygon>
                <polygon id="Shape" stroke="#CD6116" fill="#CD6116" points="22.7047146 33.8806683 17.0967742 29.0653938 29.528536 29.3260143"></polygon>
                <polygon id="Shape" stroke="#E4751F" fill="#E4751F" points="29.1315136 35.3326969 29.528536 29.3260143 31.0545906 33.1236277"></polygon>
                <polygon id="Shape" stroke="#763D16" fill="#763D16" points="1.72456576 18.9011933 2.72952854 17.9579952 3.38709677 20.328401"></polygon>
                <polygon id="Shape" stroke="#233447" fill="#233447" points="29.1315136 35.3326969 22.7047146 33.8806683 26.7493797 31.7832936"></polygon>
                <polygon id="Shape" stroke="#763D16" fill="#763D16" points="14.1687345 11.1073986 2.17121588 8.41431981 7.0719603 0"></polygon>
                <polygon id="Shape" stroke="#C0AD9E" fill="#C0AD9E" points="33.8833747 49.4310263 34.5657568 51.2926014 23.5235732 48.6243437"></polygon>
                <polygon id="Shape" stroke="#F6851B" fill="#F6851B" points="23.3126551 38.7083532 22.7047146 33.8806683 29.1315136 35.3326969"></polygon>
                <polygon id="Shape" stroke="#E4751F" fill="#E4751F" points="17.0967742 29.0653938 22.7047146 33.8806683 23.3126551 38.7083532"></polygon>
                <path d="M31.0545906,33.1236277 L35.9677419,32.8381862 L41.7741935,41.897852 L31.0545906,33.1236277 Z M17.0967742,29.0653938 L23.3126551,38.7083532 L15.6699752,39.0806683 L17.0967742,29.0653938 Z" id="Shape" stroke="#F6851B" fill="#F6851B"></path>
                <polygon id="Shape" stroke="#E4751F" fill="#E4751F" points="31.0545906 33.1236277 37.1588089 42.4190931 29.1315136 35.3326969"></polygon>
                <polygon id="Shape" stroke="#F6851B" fill="#F6851B" points="29.1315136 35.3326969 37.1588089 42.4190931 36.3151365 43.1761337"></polygon>
                <path d="M36.3151365,43.1761337 L23.3126551,38.7083532 L29.1315136,35.3326969 L36.3151365,43.1761337 Z M41.7741935,41.897852 L37.1588089,42.4190931 L31.0545906,33.1236277 L41.7741935,41.897852 Z" id="Shape" stroke="#F6851B" fill="#F6851B"></path>
                <path d="M42.9900744,46.2663484 L41.0049628,50.2501193 L34.5657568,51.2926014 L42.9900744,46.2663484 Z M34.5657568,51.2926014 L33.8833747,49.4310263 L35.5334988,47.6190931 L34.5657568,51.2926014 Z" id="Shape" stroke="#C0AD9E" fill="#C0AD9E"></path>
                <path d="M35.5334988,47.6190931 L36.7493797,47.1350835 L34.5657568,51.2926014 L35.5334988,47.6190931 Z M34.5657568,51.2926014 L36.7493797,47.1350835 L42.9900744,46.2663484 L34.5657568,51.2926014 Z" id="Shape" stroke="#C0AD9E" fill="#C0AD9E"></path>
                <polygon id="Shape" stroke="#161616" fill="#161616" points="41.7741935 41.897852 43.3002481 42.8286396 38.6600496 43.3871122"></polygon>
                <path d="M38.6600496,43.3871122 L37.1588089,42.4190931 L41.7741935,41.897852 L38.6600496,43.3871122 Z M38.1265509,44.1193317 L43.7717122,43.4367542 L42.9900744,46.2663484 L38.1265509,44.1193317 Z" id="Shape" stroke="#161616" fill="#161616"></path>
                <path d="M42.9900744,46.2663484 L36.7493797,47.1350835 L38.1265509,44.1193317 L42.9900744,46.2663484 Z M36.7493797,47.1350835 L35.5334988,47.6190931 L36.3151365,43.1761337 L36.7493797,47.1350835 Z M36.3151365,43.1761337 L37.1588089,42.4190931 L38.6600496,43.3871122 L36.3151365,43.1761337 Z M43.3002481,42.8286396 L43.7717122,43.4367542 L38.1265509,44.1193317 L43.3002481,42.8286396 Z" id="Shape" stroke="#161616" fill="#161616"></path>
                <path d="M38.1265509,44.1193317 L38.6600496,43.3871122 L43.3002481,42.8286396 L38.1265509,44.1193317 Z M36.3151365,43.1761337 L38.1265509,44.1193317 L36.7493797,47.1350835 L36.3151365,43.1761337 Z" id="Shape" stroke="#161616" fill="#161616"></path>
                <polygon id="Shape" stroke="#161616" fill="#161616" points="38.6600496 43.3871122 38.1265509 44.1193317 36.3151365 43.1761337"></polygon>
            </g>
        </g>
    </g>
</svg>