<?xml version="1.0" encoding="UTF-8"?>
<svg width="171px" height="110px" viewBox="0 0 171 110" version="1.1" xmlns="http://www.w3.org/2000/svg" xmlns:xlink="http://www.w3.org/1999/xlink">
    <!-- Generator: Sketch 54.1 (76490) - https://sketchapp.com -->
    <title>3box_black_and_white_cloud_svg</title>
    <desc>Created with Sketch.</desc>
    <g id="Page-1" stroke="none" stroke-width="1" fill="none" fill-rule="evenodd">
        <g id="3box_black_and_white_cloud_svg">
            <g id="Group-10" fill="#181F21" fill-rule="nonzero">
                <g id="Group-8">
                    <rect id="Rectangle" x="35" y="87" width="103" height="20"></rect>
                    <g id="Group-7" stroke="#181F21">
                        <g id="noun_Cloud_926941" transform="translate(85.500000, 55.000000) scale(-1, 1) translate(-85.500000, -55.000000) ">
                            <path d="M43.8600104,106.833333 L78.0668894,106.833333 C71.8495655,106.304266 65.9590628,104.531796 60.6120258,101.748042 C55.7278178,104.49814 50.0181929,106.298486 43.8600104,106.833333 Z M28.9327072,106.829672 C27.7319061,106.751726 26.5479444,106.64086 25.3913766,106.483826 C26.5513721,106.690543 27.7337268,106.808016 28.9327072,106.829672 Z M5.08786033,88.5765805 C3.68340281,84.4425634 3,80.068099 3,76 C3,65.1112272 9.7005737,55.533673 19.8355202,50.0038843 C9.93720886,54.155926 2.85294118,64.5730732 2.85294118,76.6347652 C2.85294118,80.8490386 3.65359342,84.8934748 5.08786033,88.5765805 Z M32.4354964,45.6484174 L32.5131621,45.1812882 C36.8491933,19.1017086 57.1740597,0.5 81.4758151,0.5 C98.3992276,0.5 113.828039,9.57404867 123.126291,25.0080201 L123.311254,25.3150364 L123.661404,25.2384537 C125.959513,24.7358266 128.36851,24.5159498 131.098691,24.5159498 C152.781163,24.5159498 170.5,43.7228891 170.5,67.2819015 C170.5,91.0416167 153.268264,109.5 131.098691,109.5 L29.3382353,109.5 C13.6918381,109.5 0.5,94.5089897 0.5,76.6347652 C0.5,59.4287481 13.4144802,45.4166667 29.3382353,45.4166667 C29.3431148,45.4166667 29.3431148,45.4166667 29.3479931,45.4166666 C30.5721241,45.4166626 31.1330157,45.4458695 31.9302791,45.5911797 L32.3380315,45.6654971 C32.3705041,45.6597682 32.4029925,45.6540749 32.4354964,45.6484174 Z M127.507697,106.833333 C120.262788,106.138466 113.605552,103.302997 108.111567,98.9327972 C101.595139,103.338118 94.0421004,106.143294 85.9331106,106.833333 L127.507697,106.833333 Z M100.972973,36 L64.2573646,36 C60.3764448,36 57.2303376,39.1461072 57.2303376,43.027027 L57.2303376,79.5675676 C57.2303376,83.4484874 60.3764448,86.5945946 64.2573646,86.5945946 L100.972973,86.5945946 C104.853893,86.5945946 108,83.4484874 108,79.5675676 L108,43.027027 C108,39.1461072 104.853893,36 100.972973,36 Z M82.3635088,44.3722675 C83.8592956,44.3722675 85.2576794,44.5787141 86.5587023,44.9916136 C87.8597253,45.404513 89.0127102,46.0199578 90.017692,46.8379661 C91.0226738,47.6559745 91.8601458,48.6765221 92.5301338,49.8996394 C93.2001216,51.1227566 93.651967,52.5445118 93.8856837,54.1649475 L90.847382,54.7024933 C90.566922,54.7492365 90.3020471,54.7726078 90.0527492,54.7726078 C89.5229915,54.7726078 89.0945173,54.6440657 88.767314,54.3869772 C88.4401106,54.129889 88.1830261,53.7053099 87.9960527,53.1132277 C87.6376872,51.9758065 87.0066616,51.044849 86.1029571,50.3203274 C85.1992525,49.5958056 84.0618485,49.2335502 82.6907105,49.2335502 C81.1793426,49.2335502 79.9874055,49.6425482 79.1148632,50.4605566 C78.2423209,51.278565 77.8060564,52.4899783 77.8060564,54.094833 C77.8060564,54.8427263 77.9151224,55.5282849 78.1332581,56.1515294 C78.3513936,56.774774 78.7370204,57.308419 79.2901499,57.7524806 C79.8432793,58.1965424 80.5872662,58.5432169 81.5221329,58.7925148 C82.4569998,59.0418125 83.633356,59.17425 85.0512373,59.189831 L85.0512373,63.3032241 C83.3373149,63.3032241 81.9700928,63.4356617 80.94953,63.7005405 C79.9289672,63.9654194 79.1460279,64.3315701 78.600689,64.7990034 C78.0553501,65.2664368 77.6969899,65.8312436 77.5255977,66.493441 C77.3542055,67.1556382 77.2685106,67.8918347 77.2685106,68.7020526 C77.2685106,69.3408782 77.3892625,69.9757989 77.6307697,70.606834 C77.872277,71.237869 78.2384275,71.8104663 78.7292326,72.324643 C79.2200376,72.8388197 79.8315871,73.2556083 80.5638994,73.5750211 C81.2962116,73.8944339 82.15316,74.0541378 83.13477,74.0541378 C84.0073123,74.0541378 84.7590896,73.9255955 85.3901248,73.6685073 C86.0211599,73.4114188 86.5703858,73.0764301 87.0378192,72.6635305 C87.5052525,72.2506311 87.9064601,71.7793094 88.241454,71.2495517 C88.576448,70.7197938 88.8841702,70.1822535 89.1646303,69.6369146 C89.3360226,69.3097113 89.5814214,69.0604172 89.9008342,68.8890249 C90.220247,68.7176328 90.5825025,68.6319379 90.9876113,68.6319379 C91.4394636,68.6319379 91.8835186,68.7254232 92.3197897,68.9123965 L94.8672889,69.9641164 C94.3998555,71.4131597 93.8389439,72.6907919 93.1845372,73.7970508 C92.5301304,74.9033098 91.7355056,75.8381624 90.800639,76.601637 C89.8657721,77.3651115 88.7673202,77.941604 87.5052501,78.3311318 C86.24318,78.7206596 84.7629967,78.9154205 83.0646554,78.9154205 C81.5065442,78.9154205 80.0302559,78.6894978 78.6357464,78.2376455 C77.2412369,77.7857933 76.0142426,77.1197107 74.954727,76.239378 C73.8952114,75.3590451 73.053844,74.2722788 72.4305995,72.9790464 C71.8073549,71.6858142 71.4957373,70.1978403 71.4957373,68.5150801 C71.4957373,66.5362789 71.9943256,64.8924962 72.9915166,63.5836828 C73.9887078,62.2748693 75.5000531,61.3010645 77.5255977,60.6622389 C76.6842176,60.3817788 75.9324403,60.031209 75.2702429,59.610519 C74.6080457,59.1898291 74.0471341,58.67566 73.5874913,58.0679967 C73.1278484,57.4603332 72.7772787,56.7475081 72.5357715,55.9294996 C72.2942642,55.1114913 72.1735124,54.1649528 72.1735124,53.0898562 C72.1735124,51.8589483 72.4111207,50.7137537 72.8863447,49.6542381 C73.3615686,48.5947225 74.0432321,47.6715554 74.9313554,46.8847092 C75.8194789,46.0978631 76.8906642,45.4824184 78.1449437,45.0383567 C79.3992234,44.594295 80.8053977,44.3722675 82.3635088,44.3722675 Z" id="Combined-Shape"></path>
                        </g>
                    </g>
                </g>
            </g>
            <g id="3Box3" transform="translate(63.000000, 36.000000)"></g>
        </g>
    </g>
</svg>