<?xml version="1.0" encoding="UTF-8"?>
<svg width="37px" height="36px" viewBox="0 0 37 36" version="1.1" xmlns="http://www.w3.org/2000/svg" xmlns:xlink="http://www.w3.org/1999/xlink">
    <!-- Generator: Sketch 53.2 (72643) - https://sketchapp.com -->
    <title>Combined-Shape</title>
    <desc>Created with Sketch.</desc>
    <g id="Page-1" stroke="none" stroke-width="1" fill="none" fill-rule="evenodd">
        <g id="3Box3" fill="#1168DF" fill-rule="nonzero">
            <path d="M5,0 L31.1245675,0 C33.8859912,1.94537167e-15 36.1245675,2.23857625 36.1245675,5 L36.1245675,31 C36.1245675,33.7614237 33.8859912,36 31.1245675,36 L5,36 C2.23857625,36 3.38176876e-16,33.7614237 0,31 L0,5 C-3.3817688e-16,2.23857625 2.23857625,5.07265313e-16 5,0 Z M18.2413495,5.95719031 C17.1770397,5.95719031 16.1820358,6.10408504 15.256308,6.39787889 C14.3305801,6.69167275 13.510187,7.12958533 12.7951038,7.71162976 C12.0800206,8.29367419 11.484127,9.01983302 11.0074048,9.89012803 C10.5306827,10.760423 10.2091773,11.7720565 10.0428789,12.9250588 L12.2047474,13.3075433 C12.4043055,13.3408029 12.5927742,13.3574325 12.7701592,13.3574325 C13.1471022,13.3574325 13.4519781,13.2659698 13.6847958,13.0830415 C13.9176136,12.9001133 14.1005391,12.598009 14.2335779,12.1767197 C14.4885687,11.3674008 14.9375677,10.7049887 15.5805882,10.1894637 C16.2236088,9.6739386 17.0329155,9.41617993 18.0085329,9.41617993 C19.0839293,9.41617993 19.9320384,9.70719778 20.5528858,10.2892422 C21.1737332,10.8712866 21.4841522,11.7332538 21.4841522,12.8751696 C21.4841522,13.4073245 21.4065475,13.8951258 21.2513356,14.3385882 C21.0961238,14.7820507 20.8217355,15.1617597 20.4281626,15.4777266 C20.0345897,15.7936936 19.5052144,16.0403659 18.8400208,16.2177509 C18.1748271,16.3951358 17.3378044,16.4893702 16.3289273,16.5004567 L16.3289273,19.4272941 C17.548449,19.4272941 18.5212801,19.5215285 19.2474498,19.71 C19.9736195,19.8984715 20.5307109,20.1590018 20.9187405,20.4915986 C21.3067701,20.8241954 21.5617572,21.2260772 21.6837093,21.6972561 C21.8056615,22.1684349 21.8666367,22.692267 21.8666367,23.2687682 C21.8666367,23.7233172 21.7807171,24.1750877 21.6088754,24.6240934 C21.4370337,25.0730991 21.1765035,25.4805241 20.8272768,25.8463806 C20.4780502,26.2122371 20.0429092,26.5087982 19.5218408,26.7360727 C19.0007725,26.9633472 18.3910208,27.0769827 17.6925675,27.0769827 C17.0717201,27.0769827 16.5368016,26.9855199 16.0877958,26.8025917 C15.6387901,26.6196634 15.2479947,26.381306 14.9153979,26.0875121 C14.5828011,25.7937183 14.2973265,25.4583548 14.0589654,25.0814118 C13.8206043,24.7044687 13.6016481,24.3219881 13.40209,23.9339585 C13.2801378,23.7011407 13.1055271,23.5237584 12.8782526,23.4018062 C12.6509781,23.2798541 12.3932194,23.2188789 12.1049689,23.2188789 C11.7834586,23.2188789 11.4674964,23.2853973 11.1570727,23.418436 L9.34442907,24.1667751 C9.67702588,25.1978252 10.0761361,26.1069096 10.5417716,26.8940554 C11.0074072,27.6812012 11.5728133,28.3463848 12.2380069,28.8896263 C12.9032006,29.4328678 13.6847914,29.8430644 14.5828028,30.1202284 C15.4808142,30.3973924 16.5340216,30.5359723 17.7424567,30.5359723 C18.8511128,30.5359723 19.9015487,30.3752196 20.8937958,30.0537093 C21.886043,29.7321991 22.7590966,29.2582557 23.5129827,28.6318651 C24.2668688,28.0054744 24.8655341,27.2321984 25.3089965,26.3120138 C25.752459,25.3918293 25.9741869,24.3330787 25.9741869,23.1357301 C25.9741869,21.7277369 25.6194222,20.5581223 24.9098824,19.6268512 C24.2003425,18.6955801 23.1249622,18.0026805 21.6837093,17.5481315 C22.2823836,17.3485734 22.8173021,17.0991295 23.288481,16.7997924 C23.7596598,16.5004553 24.15877,16.1346042 24.4858235,15.7022284 C24.8128771,15.2698525 25.0623209,14.76265 25.2341626,14.1806055 C25.4060043,13.5985611 25.4919239,12.9250626 25.4919239,12.16009 C25.4919239,11.2842517 25.3228564,10.4694017 24.9847163,9.71551557 C24.6465762,8.96162945 24.1615464,8.30476058 23.5296125,7.74488927 C22.8976785,7.18501796 22.1354889,6.74710539 21.2430208,6.43113841 C20.3505526,6.11517143 19.3500055,5.95719031 18.2413495,5.95719031 Z" id="Combined-Shape"></path>
        </g>
    </g>
</svg>