<?xml version="1.0" encoding="UTF-8"?>
<svg width="114px" height="114px" viewBox="0 0 114 114" version="1.1" xmlns="http://www.w3.org/2000/svg" xmlns:xlink="http://www.w3.org/1999/xlink">
    <!-- Generator: Sketch 51.3 (57544) - http://www.bohemiancoding.com/sketch -->
    <title>Group 22</title>
    <desc>Created with Sketch.</desc>
    <defs></defs>
    <g id="Page-1" stroke="none" stroke-width="1" fill="none" fill-rule="evenodd">
        <g id="Group-22" fill-rule="nonzero">
            <circle id="Oval-5-Copy" fill="#EEEEEE" cx="57" cy="57" r="57"></circle>
            <g id="noun_Add-Image_187803" opacity="0.5" transform="translate(18.000000, 24.000000)" fill="#000000">
                <g id="Group">
                    <polygon id="Shape" points="30.9452442 30.970679 42.8992288 39.9700617 48.8856041 36.9765432 60.8395887 44.1685185 60.8395887 48.9694444 24.9588689 48.9694444 24.9588689 36.9765432"></polygon>
                    <path d="M60.8583548,29.4645062 C60.8583548,31.9496914 58.8503856,33.9641975 56.3732648,33.9641975 C53.896144,33.9641975 51.8881748,31.9496914 51.8881748,29.4645062 C51.8881748,26.979321 53.896144,24.9648148 56.3732648,24.9648148 C58.8503856,24.9648148 60.8583548,26.979321 60.8583548,29.4645062 Z" id="Shape"></path>
                    <g id="Shape">
                        <polygon points="12.0102828 0.037654321 20.0233933 0.037654321 20.0233933 32.1756173 12.0102828 32.1756173"></polygon>
                        <polygon points="0 12.087037 32.0336761 12.087037 32.0336761 20.1262346 0 20.1262346"></polygon>
                    </g>
                    <path d="M66.8447301,12.9719136 L38.9020566,12.9719136 L38.9020566,18.9777778 L66.8447301,18.9777778 L66.8447301,54.9753086 L18.9912596,54.9753086 L18.9912596,39.1416667 L13.0048843,39.1416667 L13.0048843,54.9753086 C13.0048843,58.2700617 15.6884319,60.9811728 18.9912596,60.9811728 L66.8447301,60.9811728 C70.1287918,60.9811728 72.8311054,58.2888889 72.8311054,54.9753086 L72.8311054,18.9589506 C72.8123393,15.6641975 70.1287918,12.9719136 66.8447301,12.9719136 Z" id="Shape"></path>
                </g>
            </g>
        </g>
    </g>
</svg>