<?xml version="1.0" encoding="UTF-8"?>
<svg width="164px" height="164px" viewBox="0 0 164 164" version="1.1" xmlns="http://www.w3.org/2000/svg" xmlns:xlink="http://www.w3.org/1999/xlink">
    <!-- Generator: Sketch 51.2 (57519) - http://www.bohemiancoding.com/sketch -->
    <title>Group 35</title>
    <desc>Created with Sketch.</desc>
    <defs></defs>
    <g id="Page-1" stroke="none" stroke-width="1" fill="none" fill-rule="evenodd">
        <g id="Desktop-HD" transform="translate(-216.000000, -1507.000000)" fill-rule="nonzero">
            <g id="Group-35" transform="translate(216.000000, 1507.000000)">
                <g id="Group-23">
                    <path d="M130.925427,45.9481434 C147.975938,62.8552939 160.205516,88.0745374 154.640172,107.98819 C149.110276,127.901842 125.820907,142.545273 101.999818,152.696638 C78.2141767,162.812632 53.8613666,168.436558 37.9097442,159.629277 C21.9581219,150.821996 14.4076873,127.583506 7.70800589,102.894822 C1.04377255,78.1707672 -4.73425954,51.9611467 5.79381121,36.5395617 C16.321882,21.1179767 43.2269517,16.4490564 67.6152098,18.4298105 C92.003468,20.4105645 113.874915,29.0409928 130.925427,45.9481434 Z" id="Shape" fill="#31F8C0"></path>
                    <path d="M150.460161,22.7122104 C165.194113,39.9445744 167.613659,68.1724846 159.127191,89.2983534 C150.640724,110.460273 131.21213,124.520152 109.147314,136.380921 C87.0824987,148.241691 62.3814612,157.8673 44.9390619,150.332647 C27.46055,142.761943 17.2767889,117.994926 12.1849084,92.9034505 C7.09302786,67.8119748 7.12914048,42.3599895 19.5879971,25.632339 C32.0107411,8.94073953 56.8562291,0.937424016 82.785096,0.0722007167 C108.713963,-0.756971612 135.726209,5.47984634 150.460161,22.7122104 Z" id="Shape" fill="#181F21"></path>
                </g>
                <g id="noun_double-arrow-right_349249" transform="translate(42.000000, 27.000000)" fill="#31F8C0" stroke="#31F8C0">
                    <path d="M16.824375,89.9521875 L30.200625,77.1440625 L43.0003125,89.9521875 L89.949375,45 L43.0003125,0.045 L30.2034375,12.853125 L16.824375,0.045 L0.050625,16.8328125 L29.4665625,45 L0.050625,73.17 L16.824375,89.9521875 Z M43.0875,7.9171875 L81.815625,45 L43.0875,82.0828125 L34.2675,73.2571875 L63.7790625,45 L34.2703125,16.745625 L43.0875,7.9171875 Z M8.0915625,16.745625 L16.914375,7.9171875 L55.6396875,45 L16.914375,82.0828125 L8.0915625,73.2571875 L37.6003125,45 L8.0915625,16.745625 Z" id="Shape"></path>
                </g>
            </g>
        </g>
    </g>
</svg>