<?xml version="1.0" encoding="UTF-8"?>
<svg width="39px" height="38px" viewBox="0 0 39 38" version="1.1" xmlns="http://www.w3.org/2000/svg" xmlns:xlink="http://www.w3.org/1999/xlink">
    <!-- Generator: Sketch 51.3 (57544) - http://www.bohemiancoding.com/sketch -->
    <title>noun_Birthday_1935888</title>
    <desc>Created with Sketch.</desc>
    <defs></defs>
    <g id="Page-1" stroke="none" stroke-width="1" fill="none" fill-rule="evenodd">
        <g id="noun_Birthday_1935888" fill="#A0A0A0" fill-rule="nonzero">
            <g id="Group">
                <g transform="translate(0.000000, 0.688235)" id="Shape">
                    <path d="M30.8176471,14.3 C33.7235294,14.3 36.0176471,16.5941176 36.0176471,19.4235294 C36.0176471,22.2529412 33.6470588,24.5470588 30.8176471,24.5470588 C28.7529412,24.5470588 26.9176471,23.3235294 26.0764706,21.4882353 C25.9235294,21.1058824 25.4647059,20.8 25.0058824,20.8 C24.5470588,20.8 24.1647059,21.0294118 23.9352941,21.4882353 C23.0941176,23.3235294 21.2588235,24.5470588 19.1941176,24.5470588 C17.1294118,24.5470588 15.2941176,23.3235294 14.4529412,21.4882353 C14.3,21.1058824 13.8411765,20.8 13.3823529,20.8 C12.9235294,20.8 12.5411765,21.0294118 12.3117647,21.4882353 C11.4705882,23.3235294 9.63529412,24.5470588 7.57058824,24.5470588 C4.66470588,24.5470588 2.37058824,22.2529412 2.37058824,19.4235294 C2.37058824,16.5941176 4.74117647,14.3 7.57058824,14.3 L30.8176471,14.3 Z M30.8176471,12.0058824 L7.64705882,12.0058824 C3.51764706,12.0058824 0.152941176,15.2941176 0.152941176,19.4235294 C0.152941176,23.4764706 3.51764706,26.8411765 7.64705882,26.8411765 C9.94117647,26.8411765 12.0058824,25.8470588 13.4588235,24.1647059 C14.8352941,25.8470588 16.9764706,26.8411765 19.2705882,26.8411765 C21.5647059,26.8411765 23.6294118,25.8470588 25.0823529,24.1647059 C26.4588235,25.8470588 28.6,26.8411765 30.8941176,26.8411765 C35.0235294,26.8411765 38.3882353,23.5529412 38.3882353,19.4235294 C38.3117647,15.3705882 34.9470588,12.0058824 30.8176471,12.0058824 Z"></path>
                    <path d="M32.2705882,28.9823529 L32.2705882,33.9529412 C32.2705882,34.1823529 32.1176471,34.3352941 31.8882353,34.3352941 L6.57647059,34.3352941 C6.34705882,34.3352941 6.19411765,34.1823529 6.19411765,33.9529412 L6.19411765,28.9823529 C5.42941176,28.8294118 4.58823529,28.6764706 3.9,28.3705882 L3.9,33.9529412 C3.9,35.4058824 5.12352941,36.6294118 6.57647059,36.6294118 L31.8882353,36.6294118 C33.3411765,36.6294118 34.5647059,35.4058824 34.5647059,33.9529412 L34.5647059,28.3705882 C33.8764706,28.6764706 33.1117647,28.8294118 32.2705882,28.9823529 Z"></path>
                    <path d="M19.8058824,13.9176471 C19.1941176,13.9176471 18.6588235,13.3823529 18.6588235,12.7705882 L18.6588235,8.87058824 C18.6588235,8.25882353 19.1941176,7.72352941 19.8058824,7.72352941 C20.4176471,7.72352941 20.9529412,8.25882353 20.9529412,8.87058824 L20.9529412,12.7705882 C20.9529412,13.4588235 20.4176471,13.9176471 19.8058824,13.9176471 Z"></path>
                    <path d="M19.8058824,9.55882353 C17.8176471,9.55882353 16.2117647,7.95294118 16.2117647,5.96470588 C16.2117647,4.35882353 18.2764706,1.45294118 18.8882353,0.535294118 C19.1176471,0.229411765 19.4235294,0.0764705882 19.8058824,0.0764705882 C20.1882353,0.0764705882 20.4941176,0.229411765 20.7235294,0.535294118 C21.3352941,1.37647059 23.4,4.28235294 23.4,5.96470588 C23.4,7.87647059 21.7941176,9.55882353 19.8058824,9.55882353 Z M19.8058824,3.21176471 C19.0411765,4.43529412 18.5058824,5.50588235 18.5058824,5.88823529 C18.5058824,6.65294118 19.1176471,7.18823529 19.8058824,7.18823529 C20.5705882,7.18823529 21.1058824,6.57647059 21.1058824,5.88823529 C21.1058824,5.50588235 20.5705882,4.43529412 19.8058824,3.21176471 Z"></path>
                </g>
            </g>
        </g>
    </g>
</svg>