<?xml version="1.0" encoding="UTF-8"?>
<svg width="124px" height="124px" viewBox="0 0 124 124" version="1.1" xmlns="http://www.w3.org/2000/svg" xmlns:xlink="http://www.w3.org/1999/xlink">
    <!-- Generator: Sketch 56.3 (81716) - https://sketch.com -->
    <title>Group 2</title>
    <desc>Created with Sketch.</desc>
    <g id="Page-1" stroke="none" stroke-width="1" fill="none" fill-rule="evenodd">
        <g id="Group-2" fill="#000000" fill-rule="nonzero">
            <path d="M122,124 L2,124 C0.896,124 0,123.104 0,122 L0,2 C0,0.896 0.896,0 2,0 L122,0 C123.104,0 124,0.896 124,2 L124,122 C124,123.104 123.104,124 122,124 Z M4,120 L120,120 L120,4 L4,4 L4,120 Z" id="Shape"></path>
            <path d="M121.625,31.559 L2,31.559 C0.896,31.559 0,30.663 0,29.559 C0,28.455 0.896,27.559 2,27.559 L121.625,27.559 C122.729,27.559 123.625,28.455 123.625,29.559 C123.625,30.663 122.729,31.559 121.625,31.559 Z" id="Path"></path>
            <path d="M115.509,18.065 L57.909,18.065 C56.805,18.065 55.909,17.169 55.909,16.065 C55.909,14.961 56.805,14.065 57.909,14.065 L115.509,14.065 C116.613,14.065 117.509,14.961 117.509,16.065 C117.509,17.169 116.613,18.065 115.509,18.065 Z" id="Path"></path>
            <path d="M43.848,22.065 C40.539,22.065 37.848,19.374 37.848,16.065 C37.848,12.756 40.539,10.065 43.848,10.065 C47.157,10.065 49.848,12.756 49.848,16.065 C49.848,19.374 47.156,22.065 43.848,22.065 Z M43.848,14.065 C42.745,14.065 41.848,14.962 41.848,16.065 C41.848,17.168 42.745,18.065 43.848,18.065 C44.951,18.065 45.848,17.168 45.848,16.065 C45.848,14.962 44.95,14.065 43.848,14.065 Z" id="Shape"></path>
            <path d="M29.91,22.065 C26.601,22.065 23.91,19.374 23.91,16.065 C23.91,12.756 26.601,10.065 29.91,10.065 C33.219,10.065 35.91,12.756 35.91,16.065 C35.91,19.374 33.219,22.065 29.91,22.065 Z M29.91,14.065 C28.807,14.065 27.91,14.962 27.91,16.065 C27.91,17.168 28.807,18.065 29.91,18.065 C31.013,18.065 31.91,17.168 31.91,16.065 C31.91,14.962 31.013,14.065 29.91,14.065 Z" id="Shape"></path>
            <path d="M15.974,22.065 C12.665,22.065 9.974,19.374 9.974,16.065 C9.974,12.756 12.665,10.065 15.974,10.065 C19.283,10.065 21.974,12.756 21.974,16.065 C21.974,19.374 19.282,22.065 15.974,22.065 Z M15.974,14.065 C14.871,14.065 13.974,14.962 13.974,16.065 C13.974,17.168 14.871,18.065 15.974,18.065 C17.077,18.065 17.974,17.168 17.974,16.065 C17.974,14.962 17.076,14.065 15.974,14.065 Z" id="Shape"></path>
            <path d="M107.338,110.643 L76.433,110.643 C75.329,110.643 74.433,109.747 74.433,108.643 L74.433,43.357 C74.433,42.253 75.329,41.357 76.433,41.357 L107.338,41.357 C108.442,41.357 109.338,42.253 109.338,43.357 L109.338,108.642 C109.338,109.747 108.442,110.643 107.338,110.643 Z M78.433,106.643 L105.338,106.643 L105.338,45.357 L78.433,45.357 L78.433,106.643 Z" id="Shape"></path>
            <path d="M61.551,58.382 L16.662,58.382 C15.558,58.382 14.662,57.486 14.662,56.382 C14.662,55.278 15.558,54.382 16.662,54.382 L61.551,54.382 C62.655,54.382 63.551,55.278 63.551,56.382 C63.551,57.486 62.655,58.382 61.551,58.382 Z" id="Path"></path>
            <path d="M61.551,45.382 L16.662,45.382 C15.558,45.382 14.662,44.486 14.662,43.382 C14.662,42.278 15.558,41.382 16.662,41.382 L61.551,41.382 C62.655,41.382 63.551,42.278 63.551,43.382 C63.551,44.486 62.655,45.382 61.551,45.382 Z" id="Path"></path>
            <path d="M61.551,84.643 L16.662,84.643 C15.558,84.643 14.662,83.747 14.662,82.643 C14.662,81.539 15.558,80.643 16.662,80.643 L61.551,80.643 C62.655,80.643 63.551,81.539 63.551,82.643 C63.551,83.747 62.655,84.643 61.551,84.643 Z" id="Path"></path>
            <path d="M61.551,97.643 L16.662,97.643 C15.558,97.643 14.662,96.747 14.662,95.643 C14.662,94.539 15.558,93.643 16.662,93.643 L61.551,93.643 C62.655,93.643 63.551,94.539 63.551,95.643 C63.551,96.747 62.655,97.643 61.551,97.643 Z" id="Path"></path>
            <path d="M61.551,110.643 L16.662,110.643 C15.558,110.643 14.662,109.747 14.662,108.643 C14.662,107.539 15.558,106.643 16.662,106.643 L61.551,106.643 C62.655,106.643 63.551,107.539 63.551,108.643 C63.551,109.747 62.655,110.643 61.551,110.643 Z" id="Path"></path>
            <path d="M61.444,71.382 L16.556,71.382 C15.452,71.382 14.556,70.486 14.556,69.382 C14.556,68.278 15.452,67.382 16.556,67.382 L61.445,67.382 C62.549,67.382 63.445,68.278 63.445,69.382 C63.445,70.486 62.549,71.382 61.444,71.382 Z" id="Path"></path>
        </g>
    </g>
</svg>