<?xml version="1.0" encoding="UTF-8"?>
<svg width="78px" height="100px" viewBox="0 0 78 100" version="1.1" xmlns="http://www.w3.org/2000/svg" xmlns:xlink="http://www.w3.org/1999/xlink">
    <!-- Generator: Sketch 51.3 (57544) - http://www.bohemiancoding.com/sketch -->
    <title>noun_Clipboard Text_158399</title>
    <desc>Created with Sketch.</desc>
    <defs></defs>
    <g id="Page-1" stroke="none" stroke-width="1" fill="none" fill-rule="evenodd">
        <g id="noun_Clipboard-Text_158399" fill="#000000" fill-rule="nonzero">
            <path d="M42.8,76.9 L15.9,76.9 L15.9,84.6 L42.8,84.6 L42.8,76.9 Z M62.1,61.5 L15.9,61.5 L15.9,69.2 L62.1,69.2 L62.1,61.5 Z M62.1,46.2 L15.9,46.2 L15.9,53.9 L62.1,53.9 L62.1,46.2 Z M62.1,30.8 L15.9,30.8 L15.9,38.5 L62.1,38.5 L62.1,30.8 Z M8.2,92.3 L8.2,15.4 L19.7,15.4 L19.7,23.1 L58.2,23.1 L58.2,15.4 L69.7,15.4 L69.7,92.3 L8.2,92.3 Z M39,11.5 C36.8,11.5 35.2,9.8 35.2,7.7 C35.2,5.5 36.9,3.9 39,3.9 C41.1,3.9 42.8,5.6 42.8,7.7 C42.8,9.8 41.2,11.5 39,11.5 Z M4.4,100 L73.6,100 C77.4,100 77.4,100 77.4,96.2 L77.4,11.6 C77.4,7.8 77.4,7.8 73.6,7.8 L50.5,7.8 L50.5,4 C50.5,0.2 50.5,0.2 46.7,0.2 L31.3,0.2 C27.5,0.2 27.5,0.2 27.5,4 L27.5,7.8 L4.4,7.8 C0.6,7.8 0.6,7.8 0.6,11.6 L0.6,96.2 C0.5,100 0.5,100 4.4,100 Z" id="Shape"></path>
        </g>
    </g>
</svg>