<?xml version="1.0" encoding="UTF-8"?>
<svg width="368px" height="351px" viewBox="0 0 368 351" version="1.1" xmlns="http://www.w3.org/2000/svg" xmlns:xlink="http://www.w3.org/1999/xlink">
    <!-- Generator: Sketch 51.2 (57519) - http://www.bohemiancoding.com/sketch -->
    <title>Group 34</title>
    <desc>Created with Sketch.</desc>
    <defs></defs>
    <g id="Page-1" stroke="none" stroke-width="1" fill="none" fill-rule="evenodd">
        <g id="Desktop-HD" transform="translate(-210.000000, -3674.000000)">
            <g id="Group-34" transform="translate(210.000000, 3674.000000)">
                <g id="Group-2">
                    <path d="M309.171193,72.85042 C349.174317,112.686446 377.866786,172.107129 364.809634,219.026967 C351.835648,265.946805 297.195206,300.449138 241.307265,324.367421 C185.502491,348.202365 128.367052,361.453261 90.9420922,340.701858 C53.517132,319.950456 35.8026509,265.196755 20.0841677,207.026156 C4.44885099,148.772219 -9.10730123,87.0180443 15.5931725,50.682255 C40.2936461,14.3464656 103.417079,3.34572199 160.635685,8.01270411 C217.85429,12.6796862 269.168069,33.0143941 309.171193,72.85042 Z" id="Shape" fill="#8940FF" fill-rule="nonzero"></path>
                    <g id="Group-47"></g>
                    <g id="Blob-Dots" opacity="0.452232" fill="#D8D1FF" fill-opacity="0.9">
                        <circle id="Oval-3-Copy-7" cx="277.955665" cy="77.4630542" r="4.55665025"></circle>
                        <circle id="Oval-3-Copy-8" cx="277.955665" cy="95.6896552" r="4.55665025"></circle>
                        <circle id="Oval-3-Copy" cx="277.955665" cy="113.916256" r="4.55665025"></circle>
                        <circle id="Oval-3-Copy-2" cx="277.955665" cy="132.142857" r="4.55665025"></circle>
                        <circle id="Oval-3-Copy-3" cx="277.955665" cy="150.369458" r="4.55665025"></circle>
                        <circle id="Oval-3-Copy-4" cx="277.955665" cy="168.596059" r="4.55665025"></circle>
                        <circle id="Oval-3-Copy-5" cx="277.955665" cy="186.82266" r="4.55665025"></circle>
                        <circle id="Oval-3-Copy-6" cx="277.955665" cy="205.049261" r="4.55665025"></circle>
                        <circle id="Oval-3-Copy-7" cx="277.955665" cy="223.275862" r="4.55665025"></circle>
                        <circle id="Oval-3-Copy-8" cx="277.955665" cy="241.502463" r="4.55665025"></circle>
                        <circle id="Oval-3-Copy-8" cx="296.182266" cy="95.6896552" r="4.55665025"></circle>
                        <circle id="Oval-3-Copy" cx="296.182266" cy="113.916256" r="4.55665025"></circle>
                        <circle id="Oval-3-Copy-2" cx="296.182266" cy="132.142857" r="4.55665025"></circle>
                        <circle id="Oval-3-Copy-3" cx="296.182266" cy="150.369458" r="4.55665025"></circle>
                        <circle id="Oval-3-Copy-4" cx="296.182266" cy="168.596059" r="4.55665025"></circle>
                        <circle id="Oval-3-Copy-5" cx="296.182266" cy="186.82266" r="4.55665025"></circle>
                        <circle id="Oval-3-Copy-6" cx="296.182266" cy="205.049261" r="4.55665025"></circle>
                        <circle id="Oval-3-Copy-7" cx="296.182266" cy="223.275862" r="4.55665025"></circle>
                        <circle id="Oval-3-Copy-8" cx="296.182266" cy="241.502463" r="4.55665025"></circle>
                        <circle id="Oval-3-Copy-2" cx="314.408867" cy="132.142857" r="4.55665025"></circle>
                        <circle id="Oval-3-Copy-3" cx="314.408867" cy="150.369458" r="4.55665025"></circle>
                        <circle id="Oval-3-Copy-4" cx="314.408867" cy="168.596059" r="4.55665025"></circle>
                        <circle id="Oval-3-Copy-5" cx="314.408867" cy="186.82266" r="4.55665025"></circle>
                        <circle id="Oval-3-Copy-6" cx="314.408867" cy="205.049261" r="4.55665025"></circle>
                        <circle id="Oval-3-Copy-7" cx="314.408867" cy="223.275862" r="4.55665025"></circle>
                        <circle id="Oval-3-Copy-8" cx="314.408867" cy="241.502463" r="4.55665025"></circle>
                        <circle id="Oval-3-Copy-4" cx="332.635468" cy="168.596059" r="4.55665025"></circle>
                        <circle id="Oval-3-Copy-5" cx="332.635468" cy="186.82266" r="4.55665025"></circle>
                        <circle id="Oval-3-Copy-6" cx="332.635468" cy="205.049261" r="4.55665025"></circle>
                        <circle id="Oval-3-Copy-7" cx="332.635468" cy="223.275862" r="4.55665025"></circle>
                        <circle id="Oval-3-Copy-4" cx="186.82266" cy="22.7832512" r="4.55665025"></circle>
                        <circle id="Oval-3-Copy-5" cx="186.82266" cy="41.0098522" r="4.55665025"></circle>
                        <circle id="Oval-3-Copy-6" cx="186.82266" cy="59.2364532" r="4.55665025"></circle>
                        <circle id="Oval-3-Copy-7" cx="186.82266" cy="77.4630542" r="4.55665025"></circle>
                        <circle id="Oval-3-Copy-8" cx="186.82266" cy="95.6896552" r="4.55665025"></circle>
                        <circle id="Oval-3-Copy" cx="186.82266" cy="113.916256" r="4.55665025"></circle>
                        <circle id="Oval-3-Copy-2" cx="186.82266" cy="132.142857" r="4.55665025"></circle>
                        <circle id="Oval-3-Copy-3" cx="186.82266" cy="150.369458" r="4.55665025"></circle>
                        <circle id="Oval-3-Copy-4" cx="186.82266" cy="168.596059" r="4.55665025"></circle>
                        <circle id="Oval-3-Copy-5" cx="186.82266" cy="186.82266" r="4.55665025"></circle>
                        <circle id="Oval-3-Copy-6" cx="186.82266" cy="205.049261" r="4.55665025"></circle>
                        <circle id="Oval-3-Copy-7" cx="186.82266" cy="223.275862" r="4.55665025"></circle>
                        <circle id="Oval-3-Copy-8" cx="186.82266" cy="241.502463" r="4.55665025"></circle>
                        <circle id="Oval-3-Copy-4" cx="205.049261" cy="22.7832512" r="4.55665025"></circle>
                        <circle id="Oval-3-Copy-5" cx="205.049261" cy="41.0098522" r="4.55665025"></circle>
                        <circle id="Oval-3-Copy-6" cx="205.049261" cy="59.2364532" r="4.55665025"></circle>
                        <circle id="Oval-3-Copy-7" cx="205.049261" cy="77.4630542" r="4.55665025"></circle>
                        <circle id="Oval-3-Copy-8" cx="205.049261" cy="95.6896552" r="4.55665025"></circle>
                        <circle id="Oval-3-Copy" cx="205.049261" cy="113.916256" r="4.55665025"></circle>
                        <circle id="Oval-3-Copy-2" cx="205.049261" cy="132.142857" r="4.55665025"></circle>
                        <circle id="Oval-3-Copy-3" cx="205.049261" cy="150.369458" r="4.55665025"></circle>
                        <circle id="Oval-3-Copy-4" cx="205.049261" cy="168.596059" r="4.55665025"></circle>
                        <circle id="Oval-3-Copy-5" cx="205.049261" cy="186.82266" r="4.55665025"></circle>
                        <circle id="Oval-3-Copy-6" cx="205.049261" cy="205.049261" r="4.55665025"></circle>
                        <circle id="Oval-3-Copy-7" cx="205.049261" cy="223.275862" r="4.55665025"></circle>
                        <circle id="Oval-3-Copy-8" cx="205.049261" cy="241.502463" r="4.55665025"></circle>
                        <circle id="Oval-3-Copy-5" cx="223.275862" cy="41.0098522" r="4.55665025"></circle>
                        <circle id="Oval-3-Copy-6" cx="223.275862" cy="59.2364532" r="4.55665025"></circle>
                        <circle id="Oval-3-Copy-7" cx="223.275862" cy="77.4630542" r="4.55665025"></circle>
                        <circle id="Oval-3-Copy-8" cx="223.275862" cy="95.6896552" r="4.55665025"></circle>
                        <circle id="Oval-3-Copy" cx="223.275862" cy="113.916256" r="4.55665025"></circle>
                        <circle id="Oval-3-Copy-2" cx="223.275862" cy="132.142857" r="4.55665025"></circle>
                        <circle id="Oval-3-Copy-3" cx="223.275862" cy="150.369458" r="4.55665025"></circle>
                        <circle id="Oval-3-Copy-4" cx="223.275862" cy="168.596059" r="4.55665025"></circle>
                        <circle id="Oval-3-Copy-5" cx="223.275862" cy="186.82266" r="4.55665025"></circle>
                        <circle id="Oval-3-Copy-6" cx="223.275862" cy="205.049261" r="4.55665025"></circle>
                        <circle id="Oval-3-Copy-7" cx="223.275862" cy="223.275862" r="4.55665025"></circle>
                        <circle id="Oval-3-Copy-8" cx="223.275862" cy="241.502463" r="4.55665025"></circle>
                        <circle id="Oval-3-Copy-5" cx="241.502463" cy="41.0098522" r="4.55665025"></circle>
                        <circle id="Oval-3-Copy-6" cx="241.502463" cy="59.2364532" r="4.55665025"></circle>
                        <circle id="Oval-3-Copy-7" cx="241.502463" cy="77.4630542" r="4.55665025"></circle>
                        <circle id="Oval-3-Copy-8" cx="241.502463" cy="95.6896552" r="4.55665025"></circle>
                        <circle id="Oval-3-Copy" cx="241.502463" cy="113.916256" r="4.55665025"></circle>
                        <circle id="Oval-3-Copy-2" cx="241.502463" cy="132.142857" r="4.55665025"></circle>
                        <circle id="Oval-3-Copy-3" cx="241.502463" cy="150.369458" r="4.55665025"></circle>
                        <circle id="Oval-3-Copy-4" cx="241.502463" cy="168.596059" r="4.55665025"></circle>
                        <circle id="Oval-3-Copy-5" cx="241.502463" cy="186.82266" r="4.55665025"></circle>
                        <circle id="Oval-3-Copy-6" cx="241.502463" cy="205.049261" r="4.55665025"></circle>
                        <circle id="Oval-3-Copy-7" cx="241.502463" cy="223.275862" r="4.55665025"></circle>
                        <circle id="Oval-3-Copy-8" cx="241.502463" cy="241.502463" r="4.55665025"></circle>
                        <circle id="Oval-3-Copy-6" cx="259.729064" cy="59.2364532" r="4.55665025"></circle>
                        <circle id="Oval-3-Copy-7" cx="259.729064" cy="77.4630542" r="4.55665025"></circle>
                        <circle id="Oval-3-Copy-8" cx="259.729064" cy="95.6896552" r="4.55665025"></circle>
                        <circle id="Oval-3-Copy" cx="259.729064" cy="113.916256" r="4.55665025"></circle>
                        <circle id="Oval-3-Copy-2" cx="259.729064" cy="132.142857" r="4.55665025"></circle>
                        <circle id="Oval-3-Copy-3" cx="259.729064" cy="150.369458" r="4.55665025"></circle>
                        <circle id="Oval-3-Copy-4" cx="259.729064" cy="168.596059" r="4.55665025"></circle>
                        <circle id="Oval-3-Copy-5" cx="259.729064" cy="186.82266" r="4.55665025"></circle>
                        <circle id="Oval-3-Copy-6" cx="259.729064" cy="205.049261" r="4.55665025"></circle>
                        <circle id="Oval-3-Copy-7" cx="259.729064" cy="223.275862" r="4.55665025"></circle>
                        <circle id="Oval-3-Copy-8" cx="259.729064" cy="241.502463" r="4.55665025"></circle>
                        <circle id="Oval-3-Copy-3" cx="95.6896552" cy="4.55665025" r="4.55665025"></circle>
                        <circle id="Oval-3-Copy-4" cx="95.6896552" cy="22.7832512" r="4.55665025"></circle>
                        <circle id="Oval-3-Copy-5" cx="95.6896552" cy="41.0098522" r="4.55665025"></circle>
                        <circle id="Oval-3-Copy-6" cx="95.6896552" cy="59.2364532" r="4.55665025"></circle>
                        <circle id="Oval-3-Copy-7" cx="95.6896552" cy="77.4630542" r="4.55665025"></circle>
                        <circle id="Oval-3-Copy-8" cx="95.6896552" cy="95.6896552" r="4.55665025"></circle>
                        <circle id="Oval-3-Copy" cx="95.6896552" cy="113.916256" r="4.55665025"></circle>
                        <circle id="Oval-3-Copy-2" cx="95.6896552" cy="132.142857" r="4.55665025"></circle>
                        <circle id="Oval-3-Copy-3" cx="95.6896552" cy="150.369458" r="4.55665025"></circle>
                        <circle id="Oval-3-Copy-4" cx="95.6896552" cy="168.596059" r="4.55665025"></circle>
                        <circle id="Oval-3-Copy-5" cx="95.6896552" cy="186.82266" r="4.55665025"></circle>
                        <circle id="Oval-3-Copy-6" cx="95.6896552" cy="205.049261" r="4.55665025"></circle>
                        <circle id="Oval-3-Copy-7" cx="95.6896552" cy="223.275862" r="4.55665025"></circle>
                        <circle id="Oval-3-Copy-8" cx="95.6896552" cy="241.502463" r="4.55665025"></circle>
                        <circle id="Oval-3-Copy-3" cx="113.916256" cy="4.55665025" r="4.55665025"></circle>
                        <circle id="Oval-3-Copy-4" cx="113.916256" cy="22.7832512" r="4.55665025"></circle>
                        <circle id="Oval-3-Copy-5" cx="113.916256" cy="41.0098522" r="4.55665025"></circle>
                        <circle id="Oval-3-Copy-6" cx="113.916256" cy="59.2364532" r="4.55665025"></circle>
                        <circle id="Oval-3-Copy-7" cx="113.916256" cy="77.4630542" r="4.55665025"></circle>
                        <circle id="Oval-3-Copy-8" cx="113.916256" cy="95.6896552" r="4.55665025"></circle>
                        <circle id="Oval-3-Copy" cx="113.916256" cy="113.916256" r="4.55665025"></circle>
                        <circle id="Oval-3-Copy-2" cx="113.916256" cy="132.142857" r="4.55665025"></circle>
                        <circle id="Oval-3-Copy-3" cx="113.916256" cy="150.369458" r="4.55665025"></circle>
                        <circle id="Oval-3-Copy-4" cx="113.916256" cy="168.596059" r="4.55665025"></circle>
                        <circle id="Oval-3-Copy-5" cx="113.916256" cy="186.82266" r="4.55665025"></circle>
                        <circle id="Oval-3-Copy-6" cx="113.916256" cy="205.049261" r="4.55665025"></circle>
                        <circle id="Oval-3-Copy-7" cx="113.916256" cy="223.275862" r="4.55665025"></circle>
                        <circle id="Oval-3-Copy-8" cx="113.916256" cy="241.502463" r="4.55665025"></circle>
                        <circle id="Oval-3-Copy-3" cx="132.142857" cy="4.55665025" r="4.55665025"></circle>
                        <circle id="Oval-3-Copy-4" cx="132.142857" cy="22.7832512" r="4.55665025"></circle>
                        <circle id="Oval-3-Copy-5" cx="132.142857" cy="41.0098522" r="4.55665025"></circle>
                        <circle id="Oval-3-Copy-6" cx="132.142857" cy="59.2364532" r="4.55665025"></circle>
                        <circle id="Oval-3-Copy-7" cx="132.142857" cy="77.4630542" r="4.55665025"></circle>
                        <circle id="Oval-3-Copy-8" cx="132.142857" cy="95.6896552" r="4.55665025"></circle>
                        <circle id="Oval-3-Copy" cx="132.142857" cy="113.916256" r="4.55665025"></circle>
                        <circle id="Oval-3-Copy-2" cx="132.142857" cy="132.142857" r="4.55665025"></circle>
                        <circle id="Oval-3-Copy-3" cx="132.142857" cy="150.369458" r="4.55665025"></circle>
                        <circle id="Oval-3-Copy-4" cx="132.142857" cy="168.596059" r="4.55665025"></circle>
                        <circle id="Oval-3-Copy-5" cx="132.142857" cy="186.82266" r="4.55665025"></circle>
                        <circle id="Oval-3-Copy-6" cx="132.142857" cy="205.049261" r="4.55665025"></circle>
                        <circle id="Oval-3-Copy-7" cx="132.142857" cy="223.275862" r="4.55665025"></circle>
                        <circle id="Oval-3-Copy-8" cx="132.142857" cy="241.502463" r="4.55665025"></circle>
                        <circle id="Oval-3-Copy-3" cx="150.369458" cy="4.55665025" r="4.55665025"></circle>
                        <circle id="Oval-3-Copy-4" cx="150.369458" cy="22.7832512" r="4.55665025"></circle>
                        <circle id="Oval-3-Copy-5" cx="150.369458" cy="41.0098522" r="4.55665025"></circle>
                        <circle id="Oval-3-Copy-6" cx="150.369458" cy="59.2364532" r="4.55665025"></circle>
                        <circle id="Oval-3-Copy-7" cx="150.369458" cy="77.4630542" r="4.55665025"></circle>
                        <circle id="Oval-3-Copy-8" cx="150.369458" cy="95.6896552" r="4.55665025"></circle>
                        <circle id="Oval-3-Copy" cx="150.369458" cy="113.916256" r="4.55665025"></circle>
                        <circle id="Oval-3-Copy-2" cx="150.369458" cy="132.142857" r="4.55665025"></circle>
                        <circle id="Oval-3-Copy-3" cx="150.369458" cy="150.369458" r="4.55665025"></circle>
                        <circle id="Oval-3-Copy-4" cx="150.369458" cy="168.596059" r="4.55665025"></circle>
                        <circle id="Oval-3-Copy-5" cx="150.369458" cy="186.82266" r="4.55665025"></circle>
                        <circle id="Oval-3-Copy-6" cx="150.369458" cy="205.049261" r="4.55665025"></circle>
                        <circle id="Oval-3-Copy-7" cx="150.369458" cy="223.275862" r="4.55665025"></circle>
                        <circle id="Oval-3-Copy-8" cx="150.369458" cy="241.502463" r="4.55665025"></circle>
                        <circle id="Oval-3-Copy-3" cx="168.596059" cy="4.55665025" r="4.55665025"></circle>
                        <circle id="Oval-3-Copy-4" cx="168.596059" cy="22.7832512" r="4.55665025"></circle>
                        <circle id="Oval-3-Copy-5" cx="168.596059" cy="41.0098522" r="4.55665025"></circle>
                        <circle id="Oval-3-Copy-6" cx="168.596059" cy="59.2364532" r="4.55665025"></circle>
                        <circle id="Oval-3-Copy-7" cx="168.596059" cy="77.4630542" r="4.55665025"></circle>
                        <circle id="Oval-3-Copy-8" cx="168.596059" cy="95.6896552" r="4.55665025"></circle>
                        <circle id="Oval-3-Copy" cx="168.596059" cy="113.916256" r="4.55665025"></circle>
                        <circle id="Oval-3-Copy-2" cx="168.596059" cy="132.142857" r="4.55665025"></circle>
                        <circle id="Oval-3-Copy-3" cx="168.596059" cy="150.369458" r="4.55665025"></circle>
                        <circle id="Oval-3-Copy-4" cx="168.596059" cy="168.596059" r="4.55665025"></circle>
                        <circle id="Oval-3-Copy-5" cx="168.596059" cy="186.82266" r="4.55665025"></circle>
                        <circle id="Oval-3-Copy-6" cx="168.596059" cy="205.049261" r="4.55665025"></circle>
                        <circle id="Oval-3-Copy-7" cx="168.596059" cy="223.275862" r="4.55665025"></circle>
                        <circle id="Oval-3-Copy-8" cx="168.596059" cy="241.502463" r="4.55665025"></circle>
                        <circle id="Oval-3-Copy-8" cx="4.55665025" cy="95.6896552" r="4.55665025"></circle>
                        <circle id="Oval-3-Copy" cx="4.55665025" cy="113.916256" r="4.55665025"></circle>
                        <circle id="Oval-3-Copy-2" cx="4.55665025" cy="132.142857" r="4.55665025"></circle>
                        <circle id="Oval-3-Copy-3" cx="4.55665025" cy="150.369458" r="4.55665025"></circle>
                        <circle id="Oval-3-Copy-4" cx="4.55665025" cy="168.596059" r="4.55665025"></circle>
                        <circle id="Oval-3-Copy-5" cx="4.55665025" cy="186.82266" r="4.55665025"></circle>
                        <circle id="Oval-3-Copy-6" cx="22.7832512" cy="59.2364532" r="4.55665025"></circle>
                        <circle id="Oval-3-Copy-7" cx="22.7832512" cy="77.4630542" r="4.55665025"></circle>
                        <circle id="Oval-3-Copy-8" cx="22.7832512" cy="95.6896552" r="4.55665025"></circle>
                        <circle id="Oval-3-Copy" cx="22.7832512" cy="113.916256" r="4.55665025"></circle>
                        <circle id="Oval-3-Copy-2" cx="22.7832512" cy="132.142857" r="4.55665025"></circle>
                        <circle id="Oval-3-Copy-3" cx="22.7832512" cy="150.369458" r="4.55665025"></circle>
                        <circle id="Oval-3-Copy-4" cx="22.7832512" cy="168.596059" r="4.55665025"></circle>
                        <circle id="Oval-3-Copy-5" cx="22.7832512" cy="186.82266" r="4.55665025"></circle>
                        <circle id="Oval-3-Copy-6" cx="22.7832512" cy="205.049261" r="4.55665025"></circle>
                        <circle id="Oval-3-Copy-7" cx="22.7832512" cy="223.275862" r="4.55665025"></circle>
                        <circle id="Oval-3-Copy-8" cx="22.7832512" cy="241.502463" r="4.55665025"></circle>
                        <circle id="Oval-3-Copy-5" cx="41.0098522" cy="41.0098522" r="4.55665025"></circle>
                        <circle id="Oval-3-Copy-6" cx="41.0098522" cy="59.2364532" r="4.55665025"></circle>
                        <circle id="Oval-3-Copy-7" cx="41.0098522" cy="77.4630542" r="4.55665025"></circle>
                        <circle id="Oval-3-Copy-8" cx="41.0098522" cy="95.6896552" r="4.55665025"></circle>
                        <circle id="Oval-3-Copy" cx="41.0098522" cy="113.916256" r="4.55665025"></circle>
                        <circle id="Oval-3-Copy-2" cx="41.0098522" cy="132.142857" r="4.55665025"></circle>
                        <circle id="Oval-3-Copy-3" cx="41.0098522" cy="150.369458" r="4.55665025"></circle>
                        <circle id="Oval-3-Copy-4" cx="41.0098522" cy="168.596059" r="4.55665025"></circle>
                        <circle id="Oval-3-Copy-5" cx="41.0098522" cy="186.82266" r="4.55665025"></circle>
                        <circle id="Oval-3-Copy-6" cx="41.0098522" cy="205.049261" r="4.55665025"></circle>
                        <circle id="Oval-3-Copy-7" cx="41.0098522" cy="223.275862" r="4.55665025"></circle>
                        <circle id="Oval-3-Copy-8" cx="41.0098522" cy="241.502463" r="4.55665025"></circle>
                        <circle id="Oval-3-Copy-4" cx="59.2364532" cy="22.7832512" r="4.55665025"></circle>
                        <circle id="Oval-3-Copy-5" cx="59.2364532" cy="41.0098522" r="4.55665025"></circle>
                        <circle id="Oval-3-Copy-6" cx="59.2364532" cy="59.2364532" r="4.55665025"></circle>
                        <circle id="Oval-3-Copy-7" cx="59.2364532" cy="77.4630542" r="4.55665025"></circle>
                        <circle id="Oval-3-Copy-8" cx="59.2364532" cy="95.6896552" r="4.55665025"></circle>
                        <circle id="Oval-3-Copy" cx="59.2364532" cy="113.916256" r="4.55665025"></circle>
                        <circle id="Oval-3-Copy-2" cx="59.2364532" cy="132.142857" r="4.55665025"></circle>
                        <circle id="Oval-3-Copy-3" cx="59.2364532" cy="150.369458" r="4.55665025"></circle>
                        <circle id="Oval-3-Copy-4" cx="59.2364532" cy="168.596059" r="4.55665025"></circle>
                        <circle id="Oval-3-Copy-5" cx="59.2364532" cy="186.82266" r="4.55665025"></circle>
                        <circle id="Oval-3-Copy-6" cx="59.2364532" cy="205.049261" r="4.55665025"></circle>
                        <circle id="Oval-3-Copy-7" cx="59.2364532" cy="223.275862" r="4.55665025"></circle>
                        <circle id="Oval-3-Copy-8" cx="59.2364532" cy="241.502463" r="4.55665025"></circle>
                        <circle id="Oval-3-Copy-4" cx="77.4630542" cy="22.7832512" r="4.55665025"></circle>
                        <circle id="Oval-3-Copy-5" cx="77.4630542" cy="41.0098522" r="4.55665025"></circle>
                        <circle id="Oval-3-Copy-6" cx="77.4630542" cy="59.2364532" r="4.55665025"></circle>
                        <circle id="Oval-3-Copy-7" cx="77.4630542" cy="77.4630542" r="4.55665025"></circle>
                        <circle id="Oval-3-Copy-8" cx="77.4630542" cy="95.6896552" r="4.55665025"></circle>
                        <circle id="Oval-3-Copy" cx="77.4630542" cy="113.916256" r="4.55665025"></circle>
                        <circle id="Oval-3-Copy-2" cx="77.4630542" cy="132.142857" r="4.55665025"></circle>
                        <circle id="Oval-3-Copy-3" cx="77.4630542" cy="150.369458" r="4.55665025"></circle>
                        <circle id="Oval-3-Copy-4" cx="77.4630542" cy="168.596059" r="4.55665025"></circle>
                        <circle id="Oval-3-Copy-5" cx="77.4630542" cy="186.82266" r="4.55665025"></circle>
                        <circle id="Oval-3-Copy-6" cx="77.4630542" cy="205.049261" r="4.55665025"></circle>
                        <circle id="Oval-3-Copy-7" cx="77.4630542" cy="223.275862" r="4.55665025"></circle>
                        <circle id="Oval-3-Copy-8" cx="77.4630542" cy="241.502463" r="4.55665025"></circle>
                        <circle id="Oval-3" cx="277.955665" cy="259.729064" r="4.55665025"></circle>
                        <circle id="Oval-3" cx="296.182266" cy="259.729064" r="4.55665025"></circle>
                        <circle id="Oval-3" cx="186.82266" cy="259.729064" r="4.55665025"></circle>
                        <circle id="Oval-3-Copy" cx="186.82266" cy="277.955665" r="4.55665025"></circle>
                        <circle id="Oval-3-Copy-2" cx="186.82266" cy="296.182266" r="4.55665025"></circle>
                        <circle id="Oval-3-Copy-3" cx="186.82266" cy="314.408867" r="4.55665025"></circle>
                        <circle id="Oval-3" cx="205.049261" cy="259.729064" r="4.55665025"></circle>
                        <circle id="Oval-3-Copy" cx="205.049261" cy="277.955665" r="4.55665025"></circle>
                        <circle id="Oval-3-Copy-2" cx="205.049261" cy="296.182266" r="4.55665025"></circle>
                        <circle id="Oval-3" cx="223.275862" cy="259.729064" r="4.55665025"></circle>
                        <circle id="Oval-3-Copy" cx="223.275862" cy="277.955665" r="4.55665025"></circle>
                        <circle id="Oval-3-Copy-2" cx="223.275862" cy="296.182266" r="4.55665025"></circle>
                        <circle id="Oval-3" cx="241.502463" cy="259.729064" r="4.55665025"></circle>
                        <circle id="Oval-3-Copy" cx="241.502463" cy="277.955665" r="4.55665025"></circle>
                        <circle id="Oval-3" cx="259.729064" cy="259.729064" r="4.55665025"></circle>
                        <circle id="Oval-3-Copy" cx="259.729064" cy="277.955665" r="4.55665025"></circle>
                        <circle id="Oval-3" cx="95.6896552" cy="259.729064" r="4.55665025"></circle>
                        <circle id="Oval-3-Copy" cx="95.6896552" cy="277.955665" r="4.55665025"></circle>
                        <circle id="Oval-3-Copy-2" cx="95.6896552" cy="296.182266" r="4.55665025"></circle>
                        <circle id="Oval-3-Copy-3" cx="95.6896552" cy="314.408867" r="4.55665025"></circle>
                        <circle id="Oval-3-Copy-4" cx="95.6896552" cy="332.635468" r="4.55665025"></circle>
                        <circle id="Oval-3" cx="113.916256" cy="259.729064" r="4.55665025"></circle>
                        <circle id="Oval-3-Copy" cx="113.916256" cy="277.955665" r="4.55665025"></circle>
                        <circle id="Oval-3-Copy-2" cx="113.916256" cy="296.182266" r="4.55665025"></circle>
                        <circle id="Oval-3-Copy-3" cx="113.916256" cy="314.408867" r="4.55665025"></circle>
                        <circle id="Oval-3-Copy-4" cx="113.916256" cy="332.635468" r="4.55665025"></circle>
                        <circle id="Oval-3" cx="132.142857" cy="259.729064" r="4.55665025"></circle>
                        <circle id="Oval-3-Copy" cx="132.142857" cy="277.955665" r="4.55665025"></circle>
                        <circle id="Oval-3-Copy-2" cx="132.142857" cy="296.182266" r="4.55665025"></circle>
                        <circle id="Oval-3-Copy-3" cx="132.142857" cy="314.408867" r="4.55665025"></circle>
                        <circle id="Oval-3-Copy-4" cx="132.142857" cy="332.635468" r="4.55665025"></circle>
                        <circle id="Oval-3" cx="150.369458" cy="259.729064" r="4.55665025"></circle>
                        <circle id="Oval-3-Copy" cx="150.369458" cy="277.955665" r="4.55665025"></circle>
                        <circle id="Oval-3-Copy-2" cx="150.369458" cy="296.182266" r="4.55665025"></circle>
                        <circle id="Oval-3-Copy-3" cx="150.369458" cy="314.408867" r="4.55665025"></circle>
                        <circle id="Oval-3" cx="168.596059" cy="259.729064" r="4.55665025"></circle>
                        <circle id="Oval-3-Copy" cx="168.596059" cy="277.955665" r="4.55665025"></circle>
                        <circle id="Oval-3-Copy-2" cx="168.596059" cy="296.182266" r="4.55665025"></circle>
                        <circle id="Oval-3-Copy-3" cx="168.596059" cy="314.408867" r="4.55665025"></circle>
                        <circle id="Oval-3" cx="22.7832512" cy="259.729064" r="4.55665025"></circle>
                        <circle id="Oval-3" cx="41.0098522" cy="259.729064" r="4.55665025"></circle>
                        <circle id="Oval-3-Copy" cx="41.0098522" cy="277.955665" r="4.55665025"></circle>
                        <circle id="Oval-3-Copy-2" cx="41.0098522" cy="296.182266" r="4.55665025"></circle>
                        <circle id="Oval-3" cx="59.2364532" cy="259.729064" r="4.55665025"></circle>
                        <circle id="Oval-3-Copy" cx="59.2364532" cy="277.955665" r="4.55665025"></circle>
                        <circle id="Oval-3-Copy-2" cx="59.2364532" cy="296.182266" r="4.55665025"></circle>
                        <circle id="Oval-3-Copy-3" cx="59.2364532" cy="314.408867" r="4.55665025"></circle>
                        <circle id="Oval-3" cx="77.4630542" cy="259.729064" r="4.55665025"></circle>
                        <circle id="Oval-3-Copy" cx="77.4630542" cy="277.955665" r="4.55665025"></circle>
                        <circle id="Oval-3-Copy-2" cx="77.4630542" cy="296.182266" r="4.55665025"></circle>
                        <circle id="Oval-3-Copy-3" cx="77.4630542" cy="314.408867" r="4.55665025"></circle>
                        <circle id="Oval-3-Copy-4" cx="77.4630542" cy="332.635468" r="4.55665025"></circle>
                    </g>
                </g>
                <g id="noun_teamwork_1640637" transform="translate(56.000000, 63.000000)" fill="#181F21" fill-rule="nonzero">
                    <g id="Group">
                        <path d="M108.733333,151.45 C106.588628,151.45 104.85,153.188628 104.85,155.333333 C104.85,157.478039 106.588628,159.216667 108.733333,159.216667 C115.167451,159.216667 120.383333,164.432549 120.383333,170.866667 C120.383333,173.011372 122.121961,174.75 124.266667,174.75 C126.411372,174.75 128.15,173.011372 128.15,170.866667 C128.137161,160.14846 119.45154,151.462839 108.733333,151.45 Z" id="Shape"></path>
                        <path d="M185.180633,1.13781667 C183.640133,-0.318911368 181.230101,-0.318911368 179.6896,1.13781667 L157.721583,23.1058333 C156.2056,24.6222744 156.2056,27.0804256 157.721583,28.5968667 L160.4671,31.3423833 L158.59145,33.2219167 C149.756165,34.8628345 141.62947,39.1537296 135.29145,45.5243167 L123.365733,57.4733333 L116.682517,50.7901167 C108.937622,43.0040221 98.3997807,38.6398231 87.4177167,38.6702333 L77.0997,38.6702333 L72.7464833,34.3170167 L75.492,31.5715 C77.0079832,30.0550589 77.0079832,27.5969078 75.492,26.0804667 L53.5239833,4.1008 C52.0075422,2.58481681 49.5493911,2.58481681 48.03295,4.1008 L1.35528333,50.7784667 C-0.160699861,52.2949078 -0.160699861,54.7530589 1.35528333,56.2695 L23.3194167,78.2375167 C24.8358578,79.7534999 27.2940089,79.7534999 28.81045,78.2375167 L31.5559667,75.492 L33.4355,77.3715333 C35.080636,86.2053508 39.3709038,94.3308581 45.7379,100.671533 L73.7833333,128.701433 L73.7833333,147.566667 C73.7519545,158.548546 78.1179704,169.085999 85.9071,176.827583 L93.2,184.124367 L93.2,190.283333 L89.3166667,190.283333 C87.1719609,190.283333 85.4333333,192.021961 85.4333333,194.166667 L85.4333333,225.233333 C85.4333333,227.378039 87.1719609,229.116667 89.3166667,229.116667 L155.333333,229.116667 C157.478039,229.116667 159.216667,227.378039 159.216667,225.233333 L159.216667,194.166667 C159.216667,192.021961 157.478039,190.283333 155.333333,190.283333 L151.45,190.283333 L151.45,187.627133 C156.527397,180.219164 159.235753,171.444091 159.216667,162.463133 L159.216667,138.968967 C161.74893,138.668876 164.107501,137.528559 165.915417,135.730267 L185.180633,116.46505 C192.91729,108.688392 197.273876,98.1736975 197.3044,87.2041333 L197.3044,76.89 L201.657617,72.5329 L204.403133,75.2823 C205.919574,76.7982832 208.377726,76.7982832 209.894167,75.2823 L231.862183,53.3142833 C232.591384,52.5858933 233.001113,51.5974976 233.001113,50.566825 C233.001113,49.5361524 232.591384,48.5477567 231.862183,47.8193667 L185.180633,1.13781667 Z M28.81045,67.25545 L26.0649333,70.0009667 L9.59183333,53.5239833 L50.7784667,12.33735 L67.25545,28.8143333 L64.5138167,31.5559667 L28.81045,67.25545 Z M51.2289333,95.1649667 C45.7147978,89.674254 42.0926551,82.5700665 40.8876167,74.8823167 C40.7583548,74.0730659 40.376392,73.325452 39.7964,72.7464833 L37.0508833,70.0009667 L52.1531667,54.8986833 L67.25545,39.7964 L72.7464833,45.2874333 C73.4745801,46.0157501 74.4621601,46.4250301 75.492,46.42525 L87.4177167,46.42525 C96.3390779,46.3995538 104.89986,49.9444055 111.191483,56.2695 L117.8747,62.9566 L112.379783,68.4476333 L105.696567,61.7644167 C104.18026,60.2438203 101.718363,60.240343 100.197767,61.75665 C98.6771703,63.272957 98.673693,65.7348536 100.19,67.25545 L106.873217,73.9386667 L91.7592833,89.0526 C89.5752296,91.2283269 88.3577475,94.1908666 88.3807833,97.2736167 C88.4116891,101.922949 91.1898221,106.113769 95.4601,107.952783 C94.0019578,110.405248 93.5247779,113.318264 94.1242333,116.107783 L82.1985167,104.182067 C81.2235108,103.172569 79.7796742,102.767708 78.4219466,103.123093 C77.0642189,103.478478 76.0038943,104.538802 75.6485094,105.89653 C75.2931244,107.254258 75.6979853,108.698094 76.7074833,109.6731 L91.9107333,124.87635 C92.6304997,125.596556 93.0294931,126.57654 93.0174833,127.594683 C92.9962617,129.739616 91.2558714,131.469626 89.11085,131.478017 C88.091,131.542603 87.0978114,131.136168 86.4158167,130.37515 L51.2289333,95.1649667 Z M151.45,221.35 L93.2,221.35 L93.2,198.05 L151.45,198.05 L151.45,221.35 Z M151.45,162.463133 C151.467674,170.245697 149.005705,177.831555 144.421167,184.120483 C143.941107,184.783561 143.682867,185.581386 143.683333,186.4 L143.683333,190.283333 L100.966667,190.283333 L100.966667,182.516667 C100.966447,181.486827 100.557167,180.499247 99.82885,179.77115 L91.3981333,171.33655 C85.0725727,165.046515 81.5263693,156.487244 81.55,147.566667 L81.55,136.359367 C83.6393598,138.193713 86.3189527,139.215101 89.0992,139.236917 L89.1613333,139.236917 C95.582205,139.205051 100.779467,134.007788 100.811333,127.586917 C100.797073,126.359959 100.585983,125.143242 100.186117,123.983183 C101.657421,124.762759 103.280573,125.213267 104.9432,125.303517 C105.263966,131.229668 109.988396,135.967477 115.913617,136.305 C116.251732,142.465146 121.320603,147.301063 127.489833,147.3492 L127.53255,147.3492 C130.601505,147.361921 133.547411,146.143552 135.71085,143.966817 L147.236583,132.421667 C148.168348,134.384749 149.627029,136.050469 151.45,137.233117 L151.45,162.463133 Z M190.671667,72.5329 C189.94335,73.2609968 189.53407,74.2485768 189.53385,75.2784167 L189.53385,87.2041333 C189.507589,96.1147807 185.968982,104.655718 179.685717,110.974017 L160.4205,130.239233 C159.709557,130.951436 158.743426,131.349913 157.737117,131.345983 C155.601189,131.324938 153.874828,129.598578 153.853783,127.46265 C153.840746,126.44507 154.238307,125.465165 154.95665,124.744317 L154.97995,124.721017 L174.22575,105.4791 C175.697425,103.955362 175.676378,101.533304 174.178445,100.035371 C172.680513,98.5374383 170.258455,98.5163913 168.734717,99.9880667 L155.007133,113.71565 L149.4928,119.229983 L130.250883,138.4719 C129.538747,139.184695 128.571185,139.583185 127.563617,139.57865 C125.428555,139.555544 123.70339,137.830378 123.680283,135.695317 C123.669741,134.676694 124.0701,133.696794 124.790917,132.976983 L149.547167,108.220733 C151.018842,106.696995 150.997795,104.274937 149.499862,102.777005 C148.001929,101.279072 145.579871,101.258025 144.056133,102.7297 L119.299883,127.48595 C118.58894,128.198153 117.622809,128.59663 116.6165,128.5927 C114.482303,128.56754 112.758327,126.843564 112.733167,124.709367 C112.719384,123.690888 113.118647,122.710241 113.839917,121.991033 L138.60005,97.2347833 C139.580929,96.253211 139.963635,94.8229083 139.604008,93.4826563 C139.244381,92.1424043 138.197056,91.0958193 136.85655,90.7371396 C135.516044,90.37846 134.086012,90.7621777 133.105133,91.74375 L108.2518,116.5 C107.542393,117.211659 106.577128,117.608956 105.5723,117.602867 L105.549,117.602867 C103.413072,117.581822 101.686712,115.855461 101.665667,113.719533 C101.663354,112.710116 102.061351,111.740959 102.772417,111.0245 L127.528667,86.2643667 C129.044974,84.7448426 129.042366,82.2838153 127.522842,80.7675083 C126.003318,79.2512013 123.54229,79.2538093 122.025983,80.7733333 L105.296583,97.5027333 L102.768533,100.034667 C102.056616,100.74541 101.091121,101.143625 100.08515,101.141417 C97.9492221,101.120372 96.2228618,99.3940112 96.2018167,97.2580833 C96.1870079,96.2401699 96.5848377,95.2596036 97.3046833,94.53975 L140.83685,51.0114667 C146.326323,45.4970785 153.428944,41.8736811 161.115617,40.6662667 C161.924867,40.5370048 162.672481,40.155042 163.25145,39.57505 L165.996967,36.8295333 L196.205417,67.0379833 L190.671667,72.5329 Z M207.144767,67.0418667 L165.958133,25.85135 L182.435117,9.37436667 L223.625633,50.5648833 L207.144767,67.0418667 Z" id="Shape" stroke="#181F21"></path>
                    </g>
                </g>
            </g>
        </g>
    </g>
</svg>