<?xml version="1.0" encoding="UTF-8"?>
<svg width="64px" height="64px" viewBox="0 0 64 64" version="1.1" xmlns="http://www.w3.org/2000/svg" xmlns:xlink="http://www.w3.org/1999/xlink">
    <!-- Generator: Sketch 53.2 (72643) - https://sketchapp.com -->
    <title>Collectibles</title>
    <desc>Created with Sketch.</desc>
    <g id="Page-1" stroke="none" stroke-width="1" fill="none" fill-rule="evenodd">
        <g id="Collectibles" fill="#1168DF" fill-rule="nonzero">
            <path d="M61.63,7.69 L53,7.69 L53,2.55 C53,1.4454305 52.1045695,0.55 51,0.55 L13,0.55 C11.8954305,0.55 11,1.4454305 11,2.55 L11,7.69 L2.37,7.69 C1.2654305,7.69 0.37,8.5854305 0.37,9.69 L0.37,17.1 C0.343422922,24.8802383 5.71471803,31.6390141 13.3,33.37 C15.9196238,38.4655122 20.5074629,42.2694449 26,43.9 L26,49.2 C21.5357168,51.4824122 18.7191208,56.0661328 18.7,61.08 L18.7,61.45 C18.7,62.5545695 19.5954305,63.45 20.7,63.45 L43.33,63.45 C44.4345695,63.45 45.33,62.5545695 45.33,61.45 L45.33,61.08 C45.3125969,56.0523261 42.4823045,51.4574448 38,49.18 L38,43.9 C43.4897422,42.2642136 48.075753,38.4617968 50.7,33.37 C58.285282,31.6390141 63.6565771,24.8802383 63.63,17.1 L63.63,9.69 C63.63,8.5854305 62.7345695,7.69 61.63,7.69 Z M4.37,17.1 L4.37,11.69 L11,11.69 L11,23.78 C11,24.17 11,24.56 11,24.95 C11,25.08 11,25.21 11,25.34 C11,25.47 11,25.85 11.06,26.11 L11.12,26.57 C11.12,26.8 11.18,27.03 11.22,27.26 L11.31,27.73 C11.31,27.95 11.4,28.18 11.45,28.4 C11.4453022,28.4498897 11.4453022,28.5001103 11.45,28.55 C7.08984851,26.4065064 4.33943554,21.9584516 4.37,17.1 Z M59.63,17.1 C59.6457089,21.9765347 56.8612849,26.4292798 52.47,28.55 C52.47,28.55 52.47,28.45 52.47,28.4 C52.47,28.18 52.56,27.96 52.6,27.74 L52.69,27.26 C52.69,27.03 52.76,26.8 52.79,26.57 L52.85,26.11 C52.85,25.85 52.85,25.6 52.91,25.34 C52.97,25.08 52.91,25.08 52.91,24.95 C52.91,24.56 52.91,24.17 52.91,23.78 L52.91,11.69 L59.52,11.69 L59.63,17.1 Z" id="Shape"></path>
        </g>
    </g>
</svg>