<?xml version="1.0" encoding="UTF-8"?>
<svg width="1199px" height="800px" viewBox="0 0 1199 800" version="1.1" xmlns="http://www.w3.org/2000/svg" xmlns:xlink="http://www.w3.org/1999/xlink">
    <!-- Generator: Sketch 54.1 (76490) - https://sketchapp.com -->
    <title>Group</title>
    <desc>Created with Sketch.</desc>
    <g id="Page-1" stroke="none" stroke-width="1" fill="none" fill-rule="evenodd">
        <g id="Group" fill-rule="nonzero">
            <g id="ColorCubes">
                <rect id="Rectangle-27" fill="#8940FF" x="0" y="0" width="200" height="200"></rect>
                <rect id="Rectangle-27" fill="#8940FF" opacity="0.85" x="200" y="0" width="200" height="200"></rect>
                <rect id="Rectangle-27-Copy" fill="#8940FF" opacity="0.7" x="400" y="0" width="200" height="200"></rect>
                <rect id="Rectangle-27" fill="#FEFE2F" x="0" y="600" width="200" height="200"></rect>
                <rect id="Rectangle-27" fill="#FEFE2F" opacity="0.85" x="200" y="600" width="200" height="200"></rect>
                <rect id="Rectangle-27-Copy-2" fill="#FEFE2F" opacity="0.7" x="400" y="600" width="200" height="200"></rect>
                <rect id="Rectangle-27" fill="#F931FF" x="0" y="200" width="200" height="200"></rect>
                <rect id="Rectangle-27" fill="#F931FF" opacity="0.85" x="200" y="200" width="200" height="200"></rect>
                <rect id="Rectangle-27-Copy-3" fill="#F931FF" opacity="0.7" x="400" y="200" width="200" height="200"></rect>
                <rect id="Rectangle-27" fill="#31F8C0" x="0" y="400" width="200" height="200"></rect>
                <rect id="Rectangle-27" fill="#31F8C0" opacity="0.85" x="200" y="400" width="200" height="200"></rect>
                <rect id="Rectangle-27-Copy-4" fill="#31F8C0" opacity="0.7" x="400" y="400" width="200" height="200"></rect>
            </g>
            <g id="ColorCubes-Copy" transform="translate(599.000000, 0.000000)">
                <rect id="Rectangle-27" fill="#8940FF" x="0" y="0" width="200" height="200"></rect>
                <rect id="Rectangle-27" fill="#8940FF" opacity="0.85" x="200" y="0" width="200" height="200"></rect>
                <rect id="Rectangle-27-Copy" fill="#8940FF" opacity="0.7" x="400" y="0" width="200" height="200"></rect>
                <rect id="Rectangle-27" fill="#FEFE2F" x="0" y="600" width="200" height="200"></rect>
                <rect id="Rectangle-27" fill="#FEFE2F" opacity="0.85" x="200" y="600" width="200" height="200"></rect>
                <rect id="Rectangle-27-Copy-2" fill="#FEFE2F" opacity="0.7" x="400" y="600" width="200" height="200"></rect>
                <rect id="Rectangle-27" fill="#F931FF" x="0" y="200" width="200" height="200"></rect>
                <rect id="Rectangle-27" fill="#F931FF" opacity="0.85" x="200" y="200" width="200" height="200"></rect>
                <rect id="Rectangle-27-Copy-3" fill="#F931FF" opacity="0.7" x="400" y="200" width="200" height="200"></rect>
                <rect id="Rectangle-27" fill="#31F8C0" x="0" y="400" width="200" height="200"></rect>
                <rect id="Rectangle-27" fill="#31F8C0" opacity="0.85" x="200" y="400" width="200" height="200"></rect>
                <rect id="Rectangle-27-Copy-4" fill="#31F8C0" opacity="0.7" x="400" y="400" width="200" height="200"></rect>
            </g>
        </g>
    </g>
</svg>