<?xml version="1.0" encoding="UTF-8"?>
<svg width="1436px" height="958px" viewBox="0 0 1436 958" version="1.1" xmlns="http://www.w3.org/2000/svg" xmlns:xlink="http://www.w3.org/1999/xlink">
    <!-- Generator: Sketch 54.1 (76490) - https://sketchapp.com -->
    <title>ColorCubes</title>
    <desc>Created with Sketch.</desc>
    <g id="Page-1" stroke="none" stroke-width="1" fill="none" fill-rule="evenodd">
        <g id="ColorCubes" fill-rule="nonzero">
            <g>
                <rect id="Rectangle-27" fill="#8940FF" x="0" y="0" width="239.666667" height="239.5"></rect>
                <rect id="Rectangle-27" fill="#8940FF" opacity="0.85" x="239.666667" y="0" width="239.666667" height="239.5"></rect>
                <rect id="Rectangle-27-Copy" fill="#8940FF" opacity="0.7" x="479.333333" y="0" width="239.666667" height="239.5"></rect>
                <rect id="Rectangle-27" fill="#FEFE2F" x="0" y="718.5" width="239.666667" height="239.5"></rect>
                <rect id="Rectangle-27" fill="#FEFE2F" opacity="0.85" x="239.666667" y="718.5" width="239.666667" height="239.5"></rect>
                <rect id="Rectangle-27-Copy-2" fill="#FEFE2F" opacity="0.7" x="479.333333" y="718.5" width="239.666667" height="239.5"></rect>
                <rect id="Rectangle-27" fill="#F931FF" x="0" y="239.5" width="239.666667" height="239.5"></rect>
                <rect id="Rectangle-27" fill="#F931FF" opacity="0.85" x="239.666667" y="239.5" width="239.666667" height="239.5"></rect>
                <rect id="Rectangle-27-Copy-3" fill="#F931FF" opacity="0.7" x="479.333333" y="239.5" width="239.666667" height="239.5"></rect>
                <rect id="Rectangle-27" fill="#31F8C0" x="0" y="479" width="239.666667" height="239.5"></rect>
                <rect id="Rectangle-27" fill="#31F8C0" opacity="0.85" x="239.666667" y="479" width="239.666667" height="239.5"></rect>
                <rect id="Rectangle-27-Copy-4" fill="#31F8C0" opacity="0.7" x="479.333333" y="479" width="239.666667" height="239.5"></rect>
            </g>
            <g id="ColorCubes-Copy" transform="translate(717.000000, 0.000000)">
                <rect id="Rectangle-27" fill="#8940FF" x="0" y="0" width="239.666667" height="239.5"></rect>
                <rect id="Rectangle-27" fill="#8940FF" opacity="0.85" x="239.666667" y="0" width="239.666667" height="239.5"></rect>
                <rect id="Rectangle-27-Copy" fill="#8940FF" opacity="0.7" x="479.333333" y="0" width="239.666667" height="239.5"></rect>
                <rect id="Rectangle-27" fill="#FEFE2F" x="0" y="718.5" width="239.666667" height="239.5"></rect>
                <rect id="Rectangle-27" fill="#FEFE2F" opacity="0.85" x="239.666667" y="718.5" width="239.666667" height="239.5"></rect>
                <rect id="Rectangle-27-Copy-2" fill="#FEFE2F" opacity="0.7" x="479.333333" y="718.5" width="239.666667" height="239.5"></rect>
                <rect id="Rectangle-27" fill="#F931FF" x="0" y="239.5" width="239.666667" height="239.5"></rect>
                <rect id="Rectangle-27" fill="#F931FF" opacity="0.85" x="239.666667" y="239.5" width="239.666667" height="239.5"></rect>
                <rect id="Rectangle-27-Copy-3" fill="#F931FF" opacity="0.7" x="479.333333" y="239.5" width="239.666667" height="239.5"></rect>
                <rect id="Rectangle-27" fill="#31F8C0" x="0" y="479" width="239.666667" height="239.5"></rect>
                <rect id="Rectangle-27" fill="#31F8C0" opacity="0.85" x="239.666667" y="479" width="239.666667" height="239.5"></rect>
                <rect id="Rectangle-27-Copy-4" fill="#31F8C0" opacity="0.7" x="479.333333" y="479" width="239.666667" height="239.5"></rect>
            </g>
        </g>
    </g>
</svg>