<?xml version="1.0" encoding="UTF-8"?>
<svg width="15px" height="21px" viewBox="0 0 15 21" version="1.1" xmlns="http://www.w3.org/2000/svg" xmlns:xlink="http://www.w3.org/1999/xlink">
    <!-- Generator: Sketch 54.1 (76490) - https://sketchapp.com -->
    <title>noun_contact_1211263</title>
    <desc>Created with Sketch.</desc>
    <g id="Page-1" stroke="none" stroke-width="1" fill="none" fill-rule="evenodd">
        <g id="My-Profile:-Contacts-List" transform="translate(-86.000000, -593.000000)" fill="#1168DF" fill-rule="nonzero">
            <g id="noun_contact_1211263" transform="translate(86.000000, 593.000000)">
                <g id="Group">
                    <path d="M11.9338235,8.79375 C11.0294118,9.40625 9.92647059,9.778125 8.73529412,9.778125 C7.54411765,9.778125 6.44117647,9.40625 5.53676471,8.79375 C3.92647059,9.275 2.75735294,10.71875 2.64705882,12.425 C2.86764706,12.403125 3.11029412,12.38125 3.33088235,12.38125 C6.33088235,12.38125 8.75735294,14.7875 8.75735294,17.7625 C8.75735294,18.24375 8.69117647,18.725 8.55882353,19.1625 L13.7426471,19.1625 C14.1617647,19.1625 14.4926471,18.834375 14.5147059,18.41875 L14.8014706,12.884375 C14.9117647,10.98125 13.6764706,9.31875 11.9338235,8.79375 Z" id="Shape"></path>
                    <ellipse id="Oval" cx="8.73529412" cy="4.1125" rx="4.03676471" ry="4.003125"></ellipse>
                    <path d="M6.08823529,16.646875 L4.47794118,16.646875 L4.47794118,15.05 C4.47794118,14.83125 4.30147059,14.634375 4.05882353,14.634375 L2.60294118,14.634375 C2.38235294,14.634375 2.18382353,14.809375 2.18382353,15.05 L2.18382353,16.646875 L0.573529412,16.646875 C0.352941176,16.646875 0.154411765,16.821875 0.154411765,17.0625 L0.154411765,18.50625 C0.154411765,18.725 0.330882353,18.921875 0.573529412,18.921875 L2.18382353,18.921875 L2.18382353,20.51875 C2.18382353,20.7375 2.36029412,20.934375 2.60294118,20.934375 L4.05882353,20.934375 C4.27941176,20.934375 4.47794118,20.759375 4.47794118,20.51875 L4.47794118,18.921875 L6.08823529,18.921875 C6.30882353,18.921875 6.50735294,18.746875 6.50735294,18.50625 L6.50735294,17.0625 C6.48529412,16.821875 6.30882353,16.646875 6.08823529,16.646875 Z" id="Shape"></path>
                </g>
            </g>
        </g>
    </g>
</svg>