<?xml version="1.0" encoding="UTF-8"?>
<svg width="36px" height="49px" viewBox="0 0 36 49" version="1.1" xmlns="http://www.w3.org/2000/svg" xmlns:xlink="http://www.w3.org/1999/xlink">
    <!-- Generator: Sketch 51.3 (57544) - http://www.bohemiancoding.com/sketch -->
    <title>noun_degree_717311</title>
    <desc>Created with Sketch.</desc>
    <defs></defs>
    <g id="Page-1" stroke="none" stroke-width="1" fill="none" fill-rule="evenodd">
        <g id="noun_degree_717311" fill="#A0A0A0" fill-rule="nonzero">
            <g id="Group" transform="translate(0.000000, 0.347902)">
                <path d="M1.09090909,0.197536364 C0.504872727,0.196990909 0.0134181818,0.797034545 0,1.28844545 L0,47.1066545 C5.45454545e-05,47.6778545 0.519709091,48.1975091 1.09090909,48.1975636 L34.9090909,48.1975636 C35.4802909,48.1975091 35.9999455,47.6778545 36,47.1066545 L36,1.28844545 C35.9999455,0.717261818 35.4802909,0.197590909 34.9090909,0.197536364 L1.09090909,0.197536364 Z M2.18181818,2.37935455 L33.8181818,2.37935455 L33.8181818,46.0157455 L2.18181818,46.0157455 L2.18181818,2.37935455 Z M18,5.65208182 C14.0967273,5.65208182 10.9090909,8.83970727 10.9090909,12.7429909 C10.9090909,14.7468436 11.7451636,16.5644673 13.0909091,17.8566273 L13.0909091,26.3793818 C13.0929362,26.8058971 13.3433214,27.1921213 13.7318617,27.3680641 C14.120402,27.5440069 14.575842,27.4774016 14.8977273,27.1975636 L18,24.5384182 L21.1022727,27.1975636 C21.424158,27.4774016 21.879598,27.5440069 22.2681383,27.3680641 C22.6566786,27.1921213 22.9070638,26.8058971 22.9090909,26.3793818 L22.9090909,17.8395818 C24.2489455,16.5480491 25.0909091,14.7418091 25.0909091,12.7429909 C25.0909091,8.83970727 21.9032727,5.65208182 18,5.65208182 Z M18,7.8339 C20.7241091,7.8339 22.9090909,10.01886 22.9090909,12.7429909 C22.9090909,15.4671218 20.7241091,17.6520818 18,17.6520818 C15.2758909,17.6520818 13.0909091,15.4671218 13.0909091,12.7429909 C13.0909091,10.01886 15.2758909,7.8339 18,7.8339 Z M20.7272727,19.2714 L20.7272727,23.9929636 L18.7159091,22.2714055 C18.305388,21.9144252 17.694612,21.9144252 17.2840909,22.2714055 L15.2727273,23.9929636 L15.2727273,19.2884455 C16.1110909,19.6389818 17.0375455,19.8339 18,19.8339 C18.9701455,19.8339 19.8835091,19.6272927 20.7272727,19.2714 Z M7.09090909,30.7430182 C6.48845455,30.7430182 6,31.2314182 6,31.8339273 C6,32.4364364 6.48845455,32.9248364 7.09090909,32.9248364 L28.9090909,32.9248364 C29.5116,32.9248364 30,32.4364364 30,31.8339273 C30,31.2314182 29.5116,30.7430182 28.9090909,30.7430182 L7.09090909,30.7430182 Z M7.09090909,35.6521091 C6.48845455,35.6521091 6,36.1405091 6,36.7430182 C6,37.3455273 6.48845455,37.8339273 7.09090909,37.8339273 L28.9090909,37.8339273 C29.5116,37.8339273 30,37.3455273 30,36.7430182 C30,36.1405091 29.5116,35.6521091 28.9090909,35.6521091 L7.09090909,35.6521091 Z M7.09090909,40.5612 C6.48845455,40.5612 6,41.0496 6,41.6521091 C6,42.2546182 6.48845455,42.7430182 7.09090909,42.7430182 L28.9090909,42.7430182 C29.5116,42.7430182 30,42.2546182 30,41.6521091 C30,41.0496 29.5116,40.5612 28.9090909,40.5612 L7.09090909,40.5612 Z" id="Shape"></path>
            </g>
        </g>
    </g>
</svg>