<?xml version="1.0" encoding="UTF-8"?>
<svg width="76px" height="76px" viewBox="0 0 76 76" version="1.1" xmlns="http://www.w3.org/2000/svg" xmlns:xlink="http://www.w3.org/1999/xlink">
    <!-- Generator: Sketch 51.3 (57544) - http://www.bohemiancoding.com/sketch -->
    <title>Shape</title>
    <desc>Created with Sketch.</desc>
    <defs></defs>
    <g id="Page-1" stroke="none" stroke-width="1" fill="none" fill-rule="evenodd">
        <g id="Delete" fill="#7D7D7D" fill-rule="nonzero">
            <path d="M73.55,13.55 C75.1128906,12.0278646 75.896224,10.1778646 75.9,8 C75.896224,5.82213542 75.1128906,3.95546875 73.55,2.4 C72.0278646,0.870442708 70.1778646,0.103776042 68,0.1 C65.8220052,0.103645833 63.9553385,0.8703125 62.4,2.4 L38,26.85 L13.55,2.4 C12.0278646,0.8703125 10.1778646,0.103645833 8,0.1 C5.82213542,0.103776042 3.95546875,0.870442708 2.4,2.4 C0.870442708,3.95546875 0.103776042,5.82213542 0.1,8 C0.103645833,10.1778646 0.8703125,12.0278646 2.4,13.55 L26.85,38 L2.4,62.4 C0.8703125,63.9553385 0.103645833,65.8220052 0.1,68 C0.103776042,70.1778646 0.870442708,72.0278646 2.4,73.55 C3.95546875,75.1128906 5.82213542,75.896224 8,75.9 C10.1778646,75.896224 12.0278646,75.1128906 13.55,73.55 L38,49.15 L62.4,73.55 C63.9553385,75.1128906 65.8220052,75.896224 68,75.9 C70.1778646,75.896224 72.0278646,75.1128906 73.55,73.55 C75.1128906,72.0278646 75.896224,70.1778646 75.9,68 C75.896224,65.8220052 75.1128906,63.9553385 73.55,62.4 L49.15,38 L73.55,13.55 Z" id="Shape"></path>
        </g>
    </g>
</svg>