<?xml version="1.0" encoding="UTF-8"?>
<svg width="60px" height="60px" viewBox="0 0 60 60" version="1.1" xmlns="http://www.w3.org/2000/svg" xmlns:xlink="http://www.w3.org/1999/xlink">
    <!-- Generator: Sketch 52.5 (67469) - http://www.bohemiancoding.com/sketch -->
    <title>Delete</title>
    <desc>Created with Sketch.</desc>
    <g id="Page-1" stroke="none" stroke-width="1" fill="none" fill-rule="evenodd">
        <g id="Delete">
            <circle id="Oval" fill="#1168DF" fill-rule="nonzero" cx="30" cy="30" r="30"></circle>
            <path d="M39.7190963,23.6109169 C40.138685,23.2022697 40.3489863,22.7056009 40.35,22.1209103 C40.3489863,21.5362197 40.138685,21.0350764 39.7190963,20.6174802 C39.3104491,20.2068405 38.8137803,20.0010138 38.2290897,20 C37.6443642,20.0009788 37.1432208,20.2068055 36.7256596,20.6174802 L30.175,27.1815633 L23.6109169,20.6174802 C23.2022697,20.2068055 22.7056009,20.0009788 22.1209103,20 C21.5362197,20.0010138 21.0350764,20.2068405 20.6174802,20.6174802 C20.2068405,21.0350764 20.0010138,21.5362197 20,22.1209103 C20.0009788,22.7056009 20.2068055,23.2022697 20.6174802,23.6109169 L27.1815633,30.175 L20.6174802,36.7256596 C20.2068055,37.1432208 20.0009788,37.6443642 20,38.2290897 C20.0010138,38.8137803 20.2068405,39.3104491 20.6174802,39.7190963 C21.0350764,40.138685 21.5362197,40.3489863 22.1209103,40.35 C22.7056009,40.3489863 23.2022697,40.138685 23.6109169,39.7190963 L30.175,33.1684367 L36.7256596,39.7190963 C37.1432208,40.138685 37.6443642,40.3489863 38.2290897,40.35 C38.8137803,40.3489863 39.3104491,40.138685 39.7190963,39.7190963 C40.138685,39.3104491 40.3489863,38.8137803 40.35,38.2290897 C40.3489863,37.6443642 40.138685,37.1432208 39.7190963,36.7256596 L33.1684367,30.175 L39.7190963,23.6109169 Z" id="Shape" fill="#FFFFFF"></path>
        </g>
    </g>
</svg>