<?xml version="1.0" encoding="UTF-8"?>
<svg width="90px" height="90px" viewBox="0 0 90 90" version="1.1" xmlns="http://www.w3.org/2000/svg" xmlns:xlink="http://www.w3.org/1999/xlink">
    <!-- Generator: Sketch 53.2 (72643) - https://sketchapp.com -->
    <title>Details</title>
    <desc>Created with Sketch.</desc>
    <g id="Page-1" stroke="none" stroke-width="1" fill="none" fill-rule="evenodd">
        <g id="Details" fill="#1168DF" fill-rule="nonzero">
            <path d="M45,0 C20.1,0 0,20.1 0,45 C0,69.9 20.1,90 45,90 C69.9,90 90,69.9 90,45 C90,20.1 69.9,0 45,0 Z M50,65.9 C50,68.6 47.7,70.8 45,70.8 C42.3,70.8 40,68.6 40,65.9 L40,40.3 C40,37.6 42.3,35.4 45,35.4 C47.7,35.4 50,37.6 50,40.3 L50,65.9 Z M45.1,29 C42.4,29 40.2,26.8 40.2,24.1 C40.2,21.4 42.4,19.2 45.1,19.2 C47.8,19.2 50,21.4 50,24.1 C50,26.8 47.8,29 45.1,29 Z" id="Shape"></path>
        </g>
    </g>
</svg>