<?xml version="1.0" encoding="UTF-8"?>
<svg width="275px" height="199px" viewBox="0 0 275 199" version="1.1" xmlns="http://www.w3.org/2000/svg" xmlns:xlink="http://www.w3.org/1999/xlink">
    <!-- Generator: Sketch 51.3 (57544) - http://www.bohemiancoding.com/sketch -->
    <title>Group 7</title>
    <desc>Created with Sketch.</desc>
    <defs></defs>
    <g id="Page-1" stroke="none" stroke-width="1" fill="none" fill-rule="evenodd">
        <g id="Artboard-4" transform="translate(-360.000000, -1471.000000)">
            <g id="Group-7" transform="translate(360.000000, 1470.000000)">
                <g id="Group-5" transform="translate(0.000000, 0.974093)">
                    <g id="Group-12">
                        <rect id="Rectangle-2" fill="#FFFFFF" x="0" y="10" width="275" height="61.9818653"></rect>
                        <path d="M0,71.9818653 L275,71.9818653 L275,162.082902 C275,181.965153 258.882251,198.082902 239,198.082902 L36,198.082902 C16.117749,198.082902 1.12643666e-14,181.965153 0,162.082902 L0,71.9818653 Z" id="Rectangle-2" fill="#CFE3FF"></path>
                        <circle id="Oval-15" fill="#1168DF" cx="52.7202073" cy="71.9818653" r="31.3471503"></circle>
                        <rect id="Rectangle-87" fill="#1168DF" x="21.373057" y="118.290155" width="61.2694301" height="13.5362694" rx="6.76813472"></rect>
                        <rect id="Rectangle-87" fill="#FFFFFF" x="96.8911917" y="85.5181347" width="94.0414508" height="106.865285" rx="22"></rect>
                        <rect id="Rectangle-87" fill="#1168DF" x="21.373057" y="138.950777" width="61.2694301" height="13.5362694" rx="6.76813472"></rect>
                        <rect id="Rectangle-87" fill="#1168DF" x="21.373057" y="159.611399" width="61.2694301" height="13.5362694" rx="6.76813472"></rect>
                        <rect id="Rectangle-87" fill-opacity="0" fill="#CFE3FF" x="121.826425" y="96.9170984" width="61.2694301" height="13.5362694" rx="6.76813472"></rect>
                        <rect id="Rectangle-87" fill-opacity="0" fill="#CFE3FF" x="104.727979" y="96.9170984" width="13.5362694" height="13.5362694" rx="6.76813472"></rect>
                        <rect id="Rectangle-87" fill-opacity="0" fill="#CFE3FF" x="121.826425" y="118.290155" width="61.2694301" height="13.5362694" rx="6.76813472"></rect>
                        <rect id="Rectangle-87" fill-opacity="0" fill="#CFE3FF" x="104.727979" y="118.290155" width="13.5362694" height="13.5362694" rx="6.76813472"></rect>
                        <rect id="Rectangle-87" fill-opacity="0" fill="#CFE3FF" x="121.826425" y="139.663212" width="61.2694301" height="13.5362694" rx="6.76813472"></rect>
                        <rect id="Rectangle-87" fill-opacity="0" fill="#CFE3FF" x="104.727979" y="139.663212" width="13.5362694" height="13.5362694" rx="6.76813472"></rect>
                        <rect id="Rectangle-87" fill-opacity="0" fill="#CFE3FF" x="121.826425" y="161.036269" width="61.2694301" height="13.5362694" rx="6.76813472"></rect>
                        <rect id="Rectangle-87" fill-opacity="0" fill="#CFE3FF" x="104.727979" y="161.036269" width="13.5362694" height="13.5362694" rx="6.76813472"></rect>
                        <rect id="Rectangle-88" stroke="#CFE3FF" stroke-width="10" x="5" y="5.02590674" width="265" height="188.056995" rx="22"></rect>
                        <text id="✨" font-family="AppleColorEmoji, Apple Color Emoji" font-size="40" font-weight="normal" line-spacing="58" fill="#B1C5E0">
                            <tspan x="128.950777" y="54.634715">✨</tspan>
                        </text>
                    </g>
                </g>
            </g>
        </g>
    </g>
</svg>