<?xml version="1.0" encoding="UTF-8"?>
<svg width="46px" height="34px" viewBox="0 0 46 34" version="1.1" xmlns="http://www.w3.org/2000/svg" xmlns:xlink="http://www.w3.org/1999/xlink">
    <!-- Generator: Sketch 51.3 (57544) - http://www.bohemiancoding.com/sketch -->
    <title>discord</title>
    <desc>Created with Sketch.</desc>
    <defs></defs>
    <g id="Page-1" stroke="none" stroke-width="1" fill="none" fill-rule="evenodd">
        <g id="discord" transform="translate(0.000000, -1.000000)" fill="#FFFFFF" fill-rule="nonzero">
            <path d="M39.625,4.769531 C35.644531,1.566406 29.347656,1.023438 29.078125,1.003906 C28.660156,0.96875 28.261719,1.203125 28.089844,1.589844 C28.074219,1.613281 27.9375,1.929688 27.785156,2.421875 C30.417969,2.867188 33.652344,3.761719 36.578125,5.578125 C37.046875,5.867188 37.191406,6.484375 36.902344,6.953125 C36.710938,7.261719 36.386719,7.429688 36.050781,7.429688 C35.871094,7.429688 35.6875,7.378906 35.523438,7.277344 C30.492188,4.15625 24.210938,4 23,4 C21.789063,4 15.503906,4.15625 10.476563,7.277344 C10.007813,7.570313 9.390625,7.425781 9.101563,6.957031 C8.808594,6.484375 8.953125,5.871094 9.421875,5.578125 C12.347656,3.765625 15.582031,2.867188 18.214844,2.425781 C18.0625,1.929688 17.925781,1.617188 17.914063,1.589844 C17.738281,1.203125 17.34375,0.960938 16.921875,1.003906 C16.652344,1.023438 10.355469,1.566406 6.320313,4.8125 C4.214844,6.761719 0,18.152344 0,28 C0,28.175781 0.046875,28.34375 0.132813,28.496094 C3.039063,33.605469 10.972656,34.941406 12.78125,35 C12.789063,35 12.800781,35 12.8125,35 C13.132813,35 13.433594,34.847656 13.621094,34.589844 L15.449219,32.074219 C10.515625,30.800781 7.996094,28.636719 7.851563,28.507813 C7.4375,28.144531 7.398438,27.511719 7.765625,27.097656 C8.128906,26.683594 8.761719,26.644531 9.175781,27.007813 C9.234375,27.0625 13.875,31 23,31 C32.140625,31 36.78125,27.046875 36.828125,27.007813 C37.242188,26.648438 37.871094,26.683594 38.238281,27.101563 C38.601563,27.515625 38.5625,28.144531 38.148438,28.507813 C38.003906,28.636719 35.484375,30.800781 30.550781,32.074219 L32.378906,34.589844 C32.566406,34.847656 32.867188,35 33.1875,35 C33.199219,35 33.210938,35 33.21875,35 C35.027344,34.941406 42.960938,33.605469 45.867188,28.496094 C45.953125,28.34375 46,28.175781 46,28 C46,18.152344 41.785156,6.761719 39.625,4.769531 Z M16.5,24 C14.566406,24 13,22.210938 13,20 C13,17.789063 14.566406,16 16.5,16 C18.433594,16 20,17.789063 20,20 C20,22.210938 18.433594,24 16.5,24 Z M29.5,24 C27.566406,24 26,22.210938 26,20 C26,17.789063 27.566406,16 29.5,16 C31.433594,16 33,17.789063 33,20 C33,22.210938 31.433594,24 29.5,24 Z" id="Shape"></path>
        </g>
    </g>
</svg>