<?xml version="1.0" encoding="UTF-8"?>
<svg width="34px" height="35px" viewBox="0 0 34 35" version="1.1" xmlns="http://www.w3.org/2000/svg" xmlns:xlink="http://www.w3.org/1999/xlink">
    <!-- Generator: Sketch 51.3 (57544) - http://www.bohemiancoding.com/sketch -->
    <title>noun_edit_1069781</title>
    <desc>Created with Sketch.</desc>
    <defs></defs>
    <g id="Page-1" stroke="none" stroke-width="1" fill="none" fill-rule="evenodd">
        <g id="noun_edit_1069781" transform="translate(0.000000, 0.597149)" fill="#A0A0A0" fill-rule="nonzero">
            <path d="M33.5786957,32.2630435 L29.9015217,21.238913 C29.8504984,21.0857107 29.7644518,20.9465177 29.6502174,20.8323913 L10.4032609,1.58173913 C8.77792587,-0.0378622189 6.14881326,-0.0378622189 4.52347826,1.58173913 L1.56695652,4.53826087 C-0.0546766692,6.16275583 -0.0546766692,8.79354852 1.56695652,10.4180435 L20.8323913,29.6502174 C20.9465177,29.7644518 21.0857107,29.8504984 21.238913,29.9015217 L32.2630435,33.5786957 C32.6369306,33.7046393 33.0498923,33.607841 33.3288667,33.3288667 C33.607841,33.0498923 33.7046393,32.6369306 33.5786957,32.2630435 Z M3.05630435,5.99434783 L6.01282609,3.03782609 C6.40455491,2.64514508 6.93642504,2.42445897 7.49108696,2.42445897 C8.04574888,2.42445897 8.577619,2.64514508 8.96934783,3.03782609 L10.9243478,4.99282609 L5.01130435,10.891087 L3.05630435,8.93608696 C2.24425727,8.1236273 2.24425727,6.80680748 3.05630435,5.99434783 Z M6.48217391,12.3619565 L8.33,10.5141304 L23.1865217,25.3706522 C23.5826205,25.766751 24.1599471,25.9214452 24.7010282,25.776463 C25.2421092,25.6314808 25.6647416,25.2088484 25.8097239,24.6677673 C25.9547061,24.1266863 25.8000119,23.5493597 25.403913,23.1532609 L10.5473913,8.29673913 L12.3952174,6.44891304 L28.0093478,22.1295652 L29.6908696,27.1778261 L27.1778261,29.6908696 L22.1295652,28.0093478 L6.48217391,12.3619565 Z" id="Shape"></path>
        </g>
    </g>
</svg>