<?xml version="1.0" encoding="UTF-8"?>
<svg width="82px" height="54px" viewBox="0 0 82 54" version="1.1" xmlns="http://www.w3.org/2000/svg" xmlns:xlink="http://www.w3.org/1999/xlink">
    <!-- Generator: Sketch 51.2 (57519) - http://www.bohemiancoding.com/sketch -->
    <title>Email</title>
    <desc>Created with Sketch.</desc>
    <defs></defs>
    <g id="Page-1" stroke="none" stroke-width="1" fill="none" fill-rule="evenodd">
        <g id="Email" transform="translate(0.000000, -1.000000)" fill="#000000" fill-rule="nonzero">
            <g id="Group" transform="translate(0.000000, 0.637820)">
                <path d="M4,0.36219 C3.6667,0.36219 3.3404,0.41119 3.0312,0.48719 L39.2812,33.7684 C40.0986,34.5184 41.9014,34.5184 42.7188,33.7684 L78.9688,0.48719 C78.6596,0.41119 78.3333,0.36219 78,0.36219 L4,0.36219 Z M0.1561999,3.29969 C0.0641999,3.63789 -9.99999994e-08,3.99389 -9.99999994e-08,4.36219 L-9.99999994e-08,50.3622 C-9.99999994e-08,50.7198 0.0689999,51.064 0.1561999,51.3934 L26.2188,27.206 L0.1561999,3.29969 Z M81.8438,3.29969 L55.7812,27.206 L81.8438,51.3934 C81.9308,51.064 82,50.7198 82,50.3622 L82,4.36219 C82,3.99389 81.936,3.63789 81.8438,3.29969 Z M29.1562,29.9247 L3,54.206 C3.3206,54.288 3.653,54.3622 4,54.3622 L78,54.3622 C78.347,54.3622 78.6794,54.2882 79,54.206 L52.8438,29.9247 L45.4375,36.706 C42.9427,38.9949 39.0573,38.9949 36.5625,36.706 L29.1562,29.9247 Z" id="Shape"></path>
            </g>
        </g>
    </g>
</svg>