<?xml version="1.0" encoding="UTF-8"?>
<svg width="34px" height="24px" viewBox="0 0 34 24" version="1.1" xmlns="http://www.w3.org/2000/svg" xmlns:xlink="http://www.w3.org/1999/xlink">
    <!-- Generator: Sketch 51.3 (57544) - http://www.bohemiancoding.com/sketch -->
    <title>Email</title>
    <desc>Created with Sketch.</desc>
    <defs></defs>
    <g id="Page-1" stroke="none" stroke-width="1" fill="none" fill-rule="evenodd">
        <g id="Email" transform="translate(0.000000, 0.914222)" fill="#A0A0A0" fill-rule="nonzero">
            <path d="M1.65853659,4.14634145e-06 C1.52033902,4.14634145e-06 1.3850439,0.0203212195 1.25683902,0.0518334146 L16.2873268,13.8513595 C16.6262488,14.1623351 17.3737512,14.1623351 17.7126732,13.8513595 L32.743161,0.0518334146 C32.6149561,0.0203212195 32.479661,4.14634145e-06 32.3414634,4.14634145e-06 L1.65853659,4.14634145e-06 Z M0.0647658122,1.21799195 C0.0266194707,1.35822122 -4.14634151e-08,1.50583098 -4.14634151e-08,1.65854073 L-4.14634151e-08,20.7317156 C-4.14634151e-08,20.8799888 0.0286097146,21.0227059 0.0647658122,21.1592863 L10.8712098,11.1303644 L0.0647658122,1.21799195 Z M33.9352341,1.21799195 L23.1287902,11.1303644 L33.9352341,21.1592863 C33.9713073,21.0227059 34,20.8799888 34,20.7317156 L34,1.65854073 C34,1.50583098 33.9734634,1.35822122 33.9352341,1.21799195 Z M12.0891561,12.2576302 L1.24390244,22.3254863 C1.37683415,22.3594863 1.51465854,22.3902522 1.65853659,22.3902522 L32.3414634,22.3902522 C32.4853415,22.3902522 32.6231659,22.3595693 32.7560976,22.3254863 L21.9108439,12.2576302 L18.839939,15.0693888 C17.8055098,16.0184449 16.1944902,16.0184449 15.160061,15.0693888 L12.0891561,12.2576302 Z" id="Shape"></path>
        </g>
    </g>
</svg>