<?xml version="1.0" encoding="UTF-8"?>
<svg width="82px" height="54px" viewBox="0 0 82 54" version="1.1" xmlns="http://www.w3.org/2000/svg" xmlns:xlink="http://www.w3.org/1999/xlink">
    <!-- Generator: Sketch 51.3 (57544) - http://www.bohemiancoding.com/sketch -->
    <title>Email</title>
    <desc>Created with Sketch.</desc>
    <defs></defs>
    <g id="Page-1" stroke="none" stroke-width="1" fill="none" fill-rule="evenodd">
        <g id="Email" fill="#FFFFFF" fill-rule="nonzero">
            <path d="M4,1e-05 C3.6667,1e-05 3.3404,0.04901 3.0312,0.12501 L39.2812,33.40622 C40.0986,34.15622 41.9014,34.15622 42.7188,33.40622 L78.9688,0.12501 C78.6596,0.04901 78.3333,1e-05 78,1e-05 L4,1e-05 Z M0.1561999,2.93751 C0.0641999,3.27571 -1.00000001e-07,3.63171 -1.00000001e-07,4.00001 L-1.00000001e-07,50.00002 C-1.00000001e-07,50.35762 0.0689999,50.70182 0.1561999,51.03122 L26.2188,26.84382 L0.1561999,2.93751 Z M81.8438,2.93751 L55.7812,26.84382 L81.8438,51.03122 C81.9308,50.70182 82,50.35762 82,50.00002 L82,4.00001 C82,3.63171 81.936,3.27571 81.8438,2.93751 Z M29.1562,29.56252 L3,53.84382 C3.3206,53.92582 3.653,54.00002 4,54.00002 L78,54.00002 C78.347,54.00002 78.6794,53.92602 79,53.84382 L52.8438,29.56252 L45.4375,36.34382 C42.9427,38.63272 39.0573,38.63272 36.5625,36.34382 L29.1562,29.56252 Z" id="Shape"></path>
        </g>
    </g>
</svg>