<?xml version="1.0" encoding="UTF-8"?>
<svg width="30px" height="36px" viewBox="0 0 30 36" version="1.1" xmlns="http://www.w3.org/2000/svg" xmlns:xlink="http://www.w3.org/1999/xlink">
    <!-- Generator: Sketch 51.3 (57544) - http://www.bohemiancoding.com/sketch -->
    <title>noun_company_88781</title>
    <desc>Created with Sketch.</desc>
    <defs></defs>
    <g id="Page-1" stroke="none" stroke-width="1" fill="none" fill-rule="evenodd">
        <g id="noun_company_88781" transform="translate(0.000000, 0.204545)" fill="#A0A0A0" fill-rule="nonzero">
            <g id="Group">
                <path d="M17.7169355,12.3609047 L21.2153226,12.3609047 C21.4814516,12.3609047 21.6991935,12.1600378 21.6991935,11.9145337 L21.6991935,8.68727167 C21.6991935,8.44176764 21.4814516,8.24090071 21.2153226,8.24090071 L17.7169355,8.24090071 C17.4508065,8.24090071 17.2330645,8.44176764 17.2330645,8.68727167 L17.2330645,11.9145337 C17.2330645,12.1600378 17.4508065,12.3609047 17.7169355,12.3609047 Z" id="Shape"></path>
                <path d="M12.2830645,8.24090071 L8.78419355,8.24090071 C8.51806452,8.24090071 8.30032258,8.44176764 8.30032258,8.68727167 L8.30032258,11.9145337 C8.30032258,12.1600378 8.51806452,12.3609047 8.78419355,12.3609047 L12.2830645,12.3609047 C12.5491935,12.3609047 12.7669355,12.1600378 12.7669355,11.9145337 L12.7669355,8.68727167 C12.7669355,8.44176764 12.5491935,8.24090071 12.2830645,8.24090071 Z" id="Shape"></path>
                <path d="M17.7169355,19.228322 L21.2153226,19.228322 C21.4814516,19.228322 21.6991935,19.027455 21.6991935,18.781951 L21.6991935,15.5542426 C21.6991935,15.3087385 21.4814516,15.1078716 21.2153226,15.1078716 L17.7169355,15.1078716 C17.4508065,15.1078716 17.2330645,15.3087385 17.2330645,15.5542426 L17.2330645,18.781951 C17.2330645,19.027455 17.4508065,19.228322 17.7169355,19.228322 Z" id="Shape"></path>
                <path d="M12.2830645,15.1078716 L8.78419355,15.1078716 C8.51806452,15.1078716 8.30032258,15.3087385 8.30032258,15.5542426 L8.30032258,18.781951 C8.30032258,19.027455 8.51806452,19.228322 8.78419355,19.228322 L12.2830645,19.228322 C12.5491935,19.228322 12.7669355,19.027455 12.7669355,18.781951 L12.7669355,15.5542426 C12.7669355,15.3087385 12.5491935,15.1078716 12.2830645,15.1078716 Z" id="Shape"></path>
                <path d="M12.2830645,21.9748425 L8.78419355,21.9748425 C8.51806452,21.9748425 8.30032258,22.1757094 8.30032258,22.4212134 L8.30032258,25.6489219 C8.30032258,25.8944259 8.51806452,26.0952928 8.78419355,26.0952928 L12.2830645,26.0952928 C12.5491935,26.0952928 12.7669355,25.8944259 12.7669355,25.6489219 L12.7669355,22.4212134 C12.7669355,22.1761558 12.5491935,21.9748425 12.2830645,21.9748425 Z" id="Shape"></path>
                <path d="M29.4048387,31.589673 L28.3998387,31.589673 L28.3998387,1.81985441 C28.3998387,1.57435038 28.1820968,1.37348345 27.9159677,1.37348345 L23.9332258,1.37348345 L23.9332258,0.446370963 C23.9332258,0.200866933 23.7154839,0 23.4493548,0 L6.55064516,0 C6.28451613,0 6.06677419,0.200866933 6.06677419,0.446370963 L6.06677419,1.37348345 L2.08451613,1.37348345 C1.8183871,1.37348345 1.60064516,1.57435038 1.60064516,1.81985441 L1.60064516,31.589673 L0.59516129,31.589673 C0.329032258,31.589673 0.111290323,31.7905399 0.111290323,32.036044 L0.111290323,35.263306 C0.111290323,35.5088101 0.329032258,35.709677 0.59516129,35.709677 L29.4048387,35.709677 C29.6709677,35.709677 29.8887097,35.5088101 29.8887097,35.263306 L29.8887097,32.036044 C29.8887097,31.7905399 29.6704839,31.589673 29.4048387,31.589673 Z M4.57790323,4.12045035 L6.55064516,4.12045035 L23.448871,4.12045035 L25.4216129,4.12045035 L25.4216129,31.5892266 L21.6996774,31.5892266 L21.6996774,23.8299602 C21.6996774,23.5652622 21.465,23.3487723 21.1780645,23.3487723 L17.7551613,23.3487723 C17.4682258,23.3487723 17.2335484,23.5652622 17.2335484,23.8299602 L17.2335484,31.5892266 L4.57790323,31.5892266 L4.57790323,4.12045035 Z" id="Shape"></path>
            </g>
        </g>
    </g>
</svg>