<?xml version="1.0" encoding="UTF-8"?>
<svg width="38px" height="64px" viewBox="0 0 38 64" version="1.1" xmlns="http://www.w3.org/2000/svg" xmlns:xlink="http://www.w3.org/1999/xlink">
    <!-- Generator: Sketch 51.3 (57544) - http://www.bohemiancoding.com/sketch -->
    <title>Shape</title>
    <desc>Created with Sketch.</desc>
    <defs></defs>
    <g id="Page-1" stroke="none" stroke-width="1" fill="none" fill-rule="evenodd">
        <path d="M19.03125,0.03125 C18.4958895,0.0204849736 17.9756132,0.341506493 17.5625,0.9375 C17.5082213,1.01653147 17.4560812,1.09995567 17.40625,1.1875 L1.40625,29.1875 C0.974658412,29.9250198 0.728737654,30.9330409 0.722873221,31.9886389 C0.717008788,33.0442369 0.951683884,34.0604348 1.375,34.8125 L17.375,62.8125 C17.80316,63.5587832 18.3838015,63.9751871 18.9880919,63.9693202 C19.5923823,63.9634533 20.1703479,63.5358008 20.59375,62.78125 L36.59375,34.78125 C37.4721368,33.2334824 37.4721368,30.7352676 36.59375,29.1875 L20.59375,1.1875 C20.1779956,0.462878704 19.6179427,0.0484395145 19.03125,0.03125 Z M19,9.625 L30.78125,30.3125 L19,36.59375 L7.15625,30.28125 L19,9.625 Z M9.9375,38.53125 L17.59375,42.625 C18.4731866,43.0916237 19.5268134,43.0916237 20.40625,42.625 L28.0625,38.53125 L19,54.40625 L9.9375,38.53125 Z" id="Shape" fill="#000000" fill-rule="nonzero"></path>
    </g>
</svg>