<?xml version="1.0" encoding="UTF-8"?>
<svg width="94px" height="82px" viewBox="0 0 94 82" version="1.1" xmlns="http://www.w3.org/2000/svg" xmlns:xlink="http://www.w3.org/1999/xlink">
    <!-- Generator: Sketch 55.2 (78181) - https://sketchapp.com -->
    <title>Folder</title>
    <desc>Created with Sketch.</desc>
    <g id="Page-1" stroke="none" stroke-width="1" fill="none" fill-rule="evenodd">
        <g id="Folder" transform="translate(2.000000, 2.000000)" fill-rule="nonzero" stroke="#A0A0A0" stroke-width="4">
            <path d="M13.07,24.519 C15.85,22.472 19.188,21.389 22.722,21.389 L76.75,21.389 L76.75,17.299 C76.75,11.877 73.991,9.118 68.569,9.118 L44.851,9.118 C43.219,9.118 42.125,8.665 40.972,7.512 L35.551,2.09 C34.397,0.937 33.303,0.484 31.672,0.484 L8.181,0.484 C2.759,0.484 0,3.243 0,8.665 L0,56.06 L7.219,32.81 C8.268,29.434 10.291,26.567 13.07,24.519 Z" id="Path"></path>
            <path d="M83.111,27.752 L22.723,27.752 C18.307,27.752 14.606,30.478 13.296,34.696 L0.27,76.648 C0.122,77.127 0.407,77.516 0.91,77.516 L76.068,77.516 C76.445,77.516 76.84,77.224 76.952,76.865 L89.507,36.432 C91.144,31.159 88.634,27.752 83.111,27.752 Z" id="Path"></path>
        </g>
    </g>
</svg>