<?xml version="1.0" encoding="UTF-8"?>
<svg width="33px" height="32px" viewBox="0 0 33 32" version="1.1" xmlns="http://www.w3.org/2000/svg" xmlns:xlink="http://www.w3.org/1999/xlink">
    <!-- Generator: Sketch 53.2 (72643) - https://sketchapp.com -->
    <title>Fill-4</title>
    <desc>Created with Sketch.</desc>
    <g id="Page-1" stroke="none" stroke-width="1" fill="none" fill-rule="evenodd">
        <g id="GithubIcon" fill="#1168DF" fill-rule="nonzero">
            <path d="M16.608,0.052149 C7.614,0.052149 0.32,7.345149 0.32,16.342149 C0.32,23.539149 4.987,29.644149 11.46,31.798149 C12.275,31.948149 12.572,31.445149 12.572,31.013149 C12.572,30.627149 12.558,29.602149 12.55,28.243149 C8.019,29.227149 7.063,26.059149 7.063,26.059149 C6.322,24.177149 5.254,23.676149 5.254,23.676149 C3.775,22.666149 5.366,22.686149 5.366,22.686149 C7.001,22.801149 7.861,24.365149 7.861,24.365149 C9.314,26.854149 11.674,26.135149 12.602,25.718149 C12.75,24.666149 13.171,23.948149 13.636,23.541149 C10.019,23.130149 6.216,21.732149 6.216,15.490149 C6.216,13.712149 6.851,12.257149 7.893,11.119149 C7.725,10.707149 7.166,9.050149 8.053,6.808149 C8.053,6.808149 9.42,6.370149 12.532,8.478149 C13.831,8.116149 15.225,7.936149 16.61,7.929149 C17.994,7.936149 19.387,8.116149 20.688,8.478149 C23.798,6.370149 25.163,6.808149 25.163,6.808149 C26.052,9.050149 25.493,10.707149 25.326,11.119149 C26.37,12.257149 27,13.712149 27,15.490149 C27,21.748149 23.191,23.125149 19.563,23.528149 C20.147,24.031149 20.668,25.025149 20.668,26.545149 C20.668,28.722149 20.648,30.479149 20.648,31.013149 C20.648,31.449149 20.942,31.956149 21.768,31.797149 C28.236,29.638149 32.899,23.537149 32.899,16.342149 C32.899,7.345149 25.605,0.052149 16.608,0.052149" id="Fill-4"></path>
        </g>
    </g>
</svg>