<?xml version="1.0" encoding="UTF-8"?>
<svg width="84px" height="84px" viewBox="0 0 84 84" version="1.1" xmlns="http://www.w3.org/2000/svg" xmlns:xlink="http://www.w3.org/1999/xlink">
    <!-- Generator: Sketch 51.3 (57544) - http://www.bohemiancoding.com/sketch -->
    <title>Globe</title>
    <desc>Created with Sketch.</desc>
    <defs></defs>
    <g id="Page-1" stroke="none" stroke-width="1" fill="none" fill-rule="evenodd">
        <g id="Globe" fill="#7D7D7D" fill-rule="nonzero">
            <path d="M42,0.5 C19.1,0.5 0.5,19.1 0.5,42 C0.5,64.9 19.1,83.5 42,83.5 C64.9,83.5 83.5,64.9 83.5,42 C83.5,19.1 64.9,0.5 42,0.5 Z M52.6,5 C51.8,5 51,5.1 50.1,5.2 C51.1,5.2 52.1,5.2 53.1,5.2 C68.9,9.9 80.5,24.6 80.5,42 C80.5,49 78.6,55.6 75.3,61.3 C75.1,61.2 75,61.1 74.8,61 C73.8,61.1 72.8,61.2 71.7,61.2 C71.7,59.9 71.7,58.5 71.6,57 C70,57.1 68.4,57.2 66.8,57.3 C66.8,56 66.7,54.7 66.6,53.4 C64.6,53.4 62.5,53.4 60.3,53.4 C59.2,53 58.1,52.6 56.9,52.2 C55.3,52.9 53.6,53.6 52,54.3 C50.3,54.3 48.6,54.3 47,54.3 C46.8,52.9 46.5,51.6 46.3,50.2 C45.4,50.1 44.4,50 43.5,49.9 C43.7,48.6 44,47.3 44.2,45.9 C43.6,45.6 42.9,45.2 42.3,44.9 C41.4,45.5 40.4,46 39.5,46.6 C39.1,46.6 38.6,46.6 38.2,46.6 C37.2,45.7 36.2,44.7 35.3,43.8 C36.3,42 37.3,40.2 38.3,38.5 C40.9,38.5 43.5,38.5 46.1,38.5 C46.8,39.6 47.5,40.6 48.2,41.7 C49,41.7 49.9,41.7 50.7,41.7 C50.2,40.1 49.7,38.6 49.2,37 C50.9,35.6 52.5,34.2 54.2,32.8 C54,31.9 53.9,31 53.7,30.1 C54.4,29.4 55,28.8 55.7,28.2 C56.4,28.3 57.1,28.4 57.8,28.5 C57.7,27.3 57.7,26.2 57.6,25.1 C61.3,23.1 64.8,21.4 67.9,19.9 C64.9,17.1 61.9,14.5 59.2,12.5 C56.2,12 53.2,11.6 50.3,11.2 C50.3,12.1 50.4,13.1 50.4,14.2 C50.7,14.4 51,14.7 51.3,14.9 C50.9,16 50.4,17.2 49.9,18.6 C48.5,17.3 47.2,16 45.9,14.9 C44.5,14.6 43.1,14.3 41.7,14 C41,13.6 40.4,13.2 39.7,12.8 C40.8,11.8 41.9,11 43,10.2 C44.8,10.3 46.6,10.4 48.5,10.5 C48.2,10 48,9.5 47.7,9 C48.1,8.5 48.4,8 48.7,7.6 C49.5,7.6 50.3,7.6 51,7.6 C50.8,8.2 50.6,8.9 50.3,9.8 C52.7,10.1 55.1,10.4 57.6,10.8 C58.7,10 59.7,9.3 60.6,8.8 C56.2,7 52.3,6 49,5.5 C49.4,5.4 49.8,5.4 50.1,5.3 C49.4,5.3 48.7,5.3 48,5.3 C42.9,5.1 36.7,5 29.6,5.7 C33.5,4.4 37.6,3.6 42,3.6 C45.7,3.5 49.2,4 52.6,5 Z M27.9,7.9 C26.5,7.9 25.1,8 23.8,8 C24.4,7.7 25,7.4 25.7,7.1 C26.4,7.4 27.1,7.6 27.9,7.9 Z M3.5,42 C3.5,32.1 7.2,23.1 13.3,16.3 C13.8,17.1 14.3,17.9 14.9,18.8 C14.4,18.8 14,18.8 13.6,18.8 C13.7,19.6 13.8,20.4 14,21.2 C14.6,21 15.2,20.7 15.8,20.5 C16.3,21.7 16.8,23 17.4,24.4 C16.9,26.3 16.4,28.4 16,30.5 C18.1,34.5 20.9,39.1 24,43.7 C25.2,43.7 26.3,43.7 27.6,43.7 C28.6,45 29.6,46.3 30.6,47.6 C33.8,49.5 37.1,51.4 40.4,53.2 C41.3,53.1 42.2,53 43.2,52.9 C43.9,54.3 44.7,55.6 45.4,56.9 C47,56.9 48.6,56.9 50.2,56.9 C50.2,58 50.2,59.1 50.2,60.1 C49.5,61 48.8,61.9 48.2,62.8 C49.8,66.1 51.2,69 52.5,71.4 C53.8,71.8 55.1,72.1 56.4,72.5 C54.9,76.2 53.5,78.3 52.3,79.1 C52.3,79.1 52.3,79.2 52.2,79.2 C49,80.1 45.5,80.6 42,80.6 C20.8,80.5 3.5,63.2 3.5,42 Z" id="Shape"></path>
            <path d="M47.3,45.9 C49.1,46.3 51,46.7 52.8,47.1 C53,46.4 53.3,45.6 53.5,44.9 C51.6,44.4 49.7,43.8 47.9,43.3 C47.7,44.1 47.5,45 47.3,45.9 Z" id="Shape"></path>
            <path d="M55.6,43.4 C54.7,42.1 53.7,40.8 52.8,39.5 C52.8,40.3 52.8,41.2 52.8,42 C53.7,42.4 54.7,42.9 55.6,43.4 Z" id="Shape"></path>
            <path d="M55.3,47.7 C58.2,48.7 61.1,49.7 63.9,50.7 C64.5,50.5 65,50.2 65.6,50 C62.5,48.7 59.2,47.3 55.9,45.9 C55.7,46.5 55.5,47.1 55.3,47.7 Z" id="Shape"></path>
        </g>
    </g>
</svg>