<?xml version="1.0" encoding="UTF-8"?>
<svg width="374px" height="362px" viewBox="0 0 374 362" version="1.1" xmlns="http://www.w3.org/2000/svg" xmlns:xlink="http://www.w3.org/1999/xlink">
    <!-- Generator: Sketch 51.2 (57519) - http://www.bohemiancoding.com/sketch -->
    <title>Group 20</title>
    <desc>Created with Sketch.</desc>
    <defs></defs>
    <g id="Page-1" stroke="none" stroke-width="1" fill="none" fill-rule="evenodd">
        <g id="Desktop-HD" transform="translate(-835.000000, -3069.000000)">
            <g id="Group-20" transform="translate(835.000000, 3069.000000)">
                <path d="M342.9894,63.1044826 C376.734904,102.637553 382.276445,167.3957 362.839697,215.860928 C343.402948,264.408862 298.905201,296.663878 248.369656,323.873878 C197.83411,351.083879 141.260766,373.166159 101.312045,355.880778 C61.2806145,338.512693 37.9565166,281.694242 26.2944676,224.131445 C14.6324186,166.568648 14.7151282,108.178799 43.2499289,69.8036013 C71.70202,31.5111083 128.606202,13.150561 187.991671,11.1656369 C247.377141,9.26341807 309.243897,23.5714122 342.9894,63.1044826 Z" id="Shape" fill="#F931FF" fill-rule="nonzero"></path>
                <g id="Group-46" fill="#FFBAFF" opacity="0.650167">
                    <g id="Blob-Dots">
                        <circle id="Oval-3-Copy-7" opacity="0.900502232" cx="277.955665" cy="77.4630542" r="4.55665025"></circle>
                        <circle id="Oval-3-Copy-8" opacity="0.900502232" cx="277.955665" cy="95.6896552" r="4.55665025"></circle>
                        <circle id="Oval-3-Copy" opacity="0.900502232" cx="277.955665" cy="113.916256" r="4.55665025"></circle>
                        <circle id="Oval-3-Copy-2" opacity="0.900502232" cx="277.955665" cy="132.142857" r="4.55665025"></circle>
                        <circle id="Oval-3-Copy-3" opacity="0.900502232" cx="277.955665" cy="150.369458" r="4.55665025"></circle>
                        <circle id="Oval-3-Copy-4" opacity="0.900502232" cx="277.955665" cy="168.596059" r="4.55665025"></circle>
                        <circle id="Oval-3-Copy-5" opacity="0.900502232" cx="277.955665" cy="186.82266" r="4.55665025"></circle>
                        <circle id="Oval-3-Copy-6" opacity="0.900502232" cx="277.955665" cy="205.049261" r="4.55665025"></circle>
                        <circle id="Oval-3-Copy-7" opacity="0.900502232" cx="277.955665" cy="223.275862" r="4.55665025"></circle>
                        <circle id="Oval-3-Copy-8" opacity="0.900502232" cx="277.955665" cy="241.502463" r="4.55665025"></circle>
                        <circle id="Oval-3-Copy-8" opacity="0.900502232" cx="296.182266" cy="95.6896552" r="4.55665025"></circle>
                        <circle id="Oval-3-Copy" opacity="0.900502232" cx="296.182266" cy="113.916256" r="4.55665025"></circle>
                        <circle id="Oval-3-Copy-2" opacity="0.900502232" cx="296.182266" cy="132.142857" r="4.55665025"></circle>
                        <circle id="Oval-3-Copy-3" opacity="0.900502232" cx="296.182266" cy="150.369458" r="4.55665025"></circle>
                        <circle id="Oval-3-Copy-4" opacity="0.900502232" cx="296.182266" cy="168.596059" r="4.55665025"></circle>
                        <circle id="Oval-3-Copy-5" opacity="0.900502232" cx="296.182266" cy="186.82266" r="4.55665025"></circle>
                        <circle id="Oval-3-Copy-6" opacity="0.900502232" cx="296.182266" cy="205.049261" r="4.55665025"></circle>
                        <circle id="Oval-3-Copy-7" opacity="0.900502232" cx="296.182266" cy="223.275862" r="4.55665025"></circle>
                        <circle id="Oval-3-Copy-8" opacity="0.900502232" cx="296.182266" cy="241.502463" r="4.55665025"></circle>
                        <circle id="Oval-3-Copy-2" opacity="0.900502232" cx="314.408867" cy="132.142857" r="4.55665025"></circle>
                        <circle id="Oval-3-Copy-3" opacity="0.900502232" cx="314.408867" cy="150.369458" r="4.55665025"></circle>
                        <circle id="Oval-3-Copy-4" opacity="0.900502232" cx="314.408867" cy="168.596059" r="4.55665025"></circle>
                        <circle id="Oval-3-Copy-5" opacity="0.900502232" cx="314.408867" cy="186.82266" r="4.55665025"></circle>
                        <circle id="Oval-3-Copy-6" opacity="0.900502232" cx="314.408867" cy="205.049261" r="4.55665025"></circle>
                        <circle id="Oval-3-Copy-7" opacity="0.900502232" cx="314.408867" cy="223.275862" r="4.55665025"></circle>
                        <circle id="Oval-3-Copy-8" opacity="0.900502232" cx="314.408867" cy="241.502463" r="4.55665025"></circle>
                        <circle id="Oval-3-Copy-4" opacity="0.900502232" cx="332.635468" cy="168.596059" r="4.55665025"></circle>
                        <circle id="Oval-3-Copy-5" opacity="0.900502232" cx="332.635468" cy="186.82266" r="4.55665025"></circle>
                        <circle id="Oval-3-Copy-6" opacity="0.900502232" cx="332.635468" cy="205.049261" r="4.55665025"></circle>
                        <circle id="Oval-3-Copy-7" opacity="0.900502232" cx="332.635468" cy="223.275862" r="4.55665025"></circle>
                        <circle id="Oval-3-Copy-4" opacity="0.900502232" cx="186.82266" cy="22.7832512" r="4.55665025"></circle>
                        <circle id="Oval-3-Copy-5" opacity="0.900502232" cx="186.82266" cy="41.0098522" r="4.55665025"></circle>
                        <circle id="Oval-3-Copy-6" opacity="0.900502232" cx="186.82266" cy="59.2364532" r="4.55665025"></circle>
                        <circle id="Oval-3-Copy-7" opacity="0.900502232" cx="186.82266" cy="77.4630542" r="4.55665025"></circle>
                        <circle id="Oval-3-Copy-8" opacity="0.900502232" cx="186.82266" cy="95.6896552" r="4.55665025"></circle>
                        <circle id="Oval-3-Copy" opacity="0.900502232" cx="186.82266" cy="113.916256" r="4.55665025"></circle>
                        <circle id="Oval-3-Copy-2" opacity="0.900502232" cx="186.82266" cy="132.142857" r="4.55665025"></circle>
                        <circle id="Oval-3-Copy-3" opacity="0.900502232" cx="186.82266" cy="150.369458" r="4.55665025"></circle>
                        <circle id="Oval-3-Copy-4" opacity="0.900502232" cx="186.82266" cy="168.596059" r="4.55665025"></circle>
                        <circle id="Oval-3-Copy-5" opacity="0.900502232" cx="186.82266" cy="186.82266" r="4.55665025"></circle>
                        <circle id="Oval-3-Copy-6" opacity="0.900502232" cx="186.82266" cy="205.049261" r="4.55665025"></circle>
                        <circle id="Oval-3-Copy-7" opacity="0.900502232" cx="186.82266" cy="223.275862" r="4.55665025"></circle>
                        <circle id="Oval-3-Copy-8" opacity="0.900502232" cx="186.82266" cy="241.502463" r="4.55665025"></circle>
                        <circle id="Oval-3-Copy-4" opacity="0.900502232" cx="205.049261" cy="22.7832512" r="4.55665025"></circle>
                        <circle id="Oval-3-Copy-5" opacity="0.900502232" cx="205.049261" cy="41.0098522" r="4.55665025"></circle>
                        <circle id="Oval-3-Copy-6" opacity="0.900502232" cx="205.049261" cy="59.2364532" r="4.55665025"></circle>
                        <circle id="Oval-3-Copy-7" opacity="0.900502232" cx="205.049261" cy="77.4630542" r="4.55665025"></circle>
                        <circle id="Oval-3-Copy-8" opacity="0.900502232" cx="205.049261" cy="95.6896552" r="4.55665025"></circle>
                        <circle id="Oval-3-Copy" opacity="0.900502232" cx="205.049261" cy="113.916256" r="4.55665025"></circle>
                        <circle id="Oval-3-Copy-2" opacity="0.900502232" cx="205.049261" cy="132.142857" r="4.55665025"></circle>
                        <circle id="Oval-3-Copy-3" opacity="0.900502232" cx="205.049261" cy="150.369458" r="4.55665025"></circle>
                        <circle id="Oval-3-Copy-4" opacity="0.900502232" cx="205.049261" cy="168.596059" r="4.55665025"></circle>
                        <circle id="Oval-3-Copy-5" opacity="0.900502232" cx="205.049261" cy="186.82266" r="4.55665025"></circle>
                        <circle id="Oval-3-Copy-6" opacity="0.900502232" cx="205.049261" cy="205.049261" r="4.55665025"></circle>
                        <circle id="Oval-3-Copy-7" opacity="0.900502232" cx="205.049261" cy="223.275862" r="4.55665025"></circle>
                        <circle id="Oval-3-Copy-8" opacity="0.900502232" cx="205.049261" cy="241.502463" r="4.55665025"></circle>
                        <circle id="Oval-3-Copy-5" opacity="0.900502232" cx="223.275862" cy="41.0098522" r="4.55665025"></circle>
                        <circle id="Oval-3-Copy-6" opacity="0.900502232" cx="223.275862" cy="59.2364532" r="4.55665025"></circle>
                        <circle id="Oval-3-Copy-7" opacity="0.900502232" cx="223.275862" cy="77.4630542" r="4.55665025"></circle>
                        <circle id="Oval-3-Copy-8" opacity="0.900502232" cx="223.275862" cy="95.6896552" r="4.55665025"></circle>
                        <circle id="Oval-3-Copy" opacity="0.900502232" cx="223.275862" cy="113.916256" r="4.55665025"></circle>
                        <circle id="Oval-3-Copy-2" opacity="0.900502232" cx="223.275862" cy="132.142857" r="4.55665025"></circle>
                        <circle id="Oval-3-Copy-3" opacity="0.900502232" cx="223.275862" cy="150.369458" r="4.55665025"></circle>
                        <circle id="Oval-3-Copy-4" opacity="0.900502232" cx="223.275862" cy="168.596059" r="4.55665025"></circle>
                        <circle id="Oval-3-Copy-5" opacity="0.900502232" cx="223.275862" cy="186.82266" r="4.55665025"></circle>
                        <circle id="Oval-3-Copy-6" opacity="0.900502232" cx="223.275862" cy="205.049261" r="4.55665025"></circle>
                        <circle id="Oval-3-Copy-7" opacity="0.900502232" cx="223.275862" cy="223.275862" r="4.55665025"></circle>
                        <circle id="Oval-3-Copy-8" opacity="0.900502232" cx="223.275862" cy="241.502463" r="4.55665025"></circle>
                        <circle id="Oval-3-Copy-5" opacity="0.900502232" cx="241.502463" cy="41.0098522" r="4.55665025"></circle>
                        <circle id="Oval-3-Copy-6" opacity="0.900502232" cx="241.502463" cy="59.2364532" r="4.55665025"></circle>
                        <circle id="Oval-3-Copy-7" opacity="0.900502232" cx="241.502463" cy="77.4630542" r="4.55665025"></circle>
                        <circle id="Oval-3-Copy-8" opacity="0.900502232" cx="241.502463" cy="95.6896552" r="4.55665025"></circle>
                        <circle id="Oval-3-Copy" opacity="0.900502232" cx="241.502463" cy="113.916256" r="4.55665025"></circle>
                        <circle id="Oval-3-Copy-2" opacity="0.900502232" cx="241.502463" cy="132.142857" r="4.55665025"></circle>
                        <circle id="Oval-3-Copy-3" opacity="0.900502232" cx="241.502463" cy="150.369458" r="4.55665025"></circle>
                        <circle id="Oval-3-Copy-4" opacity="0.900502232" cx="241.502463" cy="168.596059" r="4.55665025"></circle>
                        <circle id="Oval-3-Copy-5" opacity="0.900502232" cx="241.502463" cy="186.82266" r="4.55665025"></circle>
                        <circle id="Oval-3-Copy-6" opacity="0.900502232" cx="241.502463" cy="205.049261" r="4.55665025"></circle>
                        <circle id="Oval-3-Copy-7" opacity="0.900502232" cx="241.502463" cy="223.275862" r="4.55665025"></circle>
                        <circle id="Oval-3-Copy-8" opacity="0.900502232" cx="241.502463" cy="241.502463" r="4.55665025"></circle>
                        <circle id="Oval-3-Copy-6" opacity="0.900502232" cx="259.729064" cy="59.2364532" r="4.55665025"></circle>
                        <circle id="Oval-3-Copy-7" opacity="0.900502232" cx="259.729064" cy="77.4630542" r="4.55665025"></circle>
                        <circle id="Oval-3-Copy-8" opacity="0.900502232" cx="259.729064" cy="95.6896552" r="4.55665025"></circle>
                        <circle id="Oval-3-Copy" opacity="0.900502232" cx="259.729064" cy="113.916256" r="4.55665025"></circle>
                        <circle id="Oval-3-Copy-2" opacity="0.900502232" cx="259.729064" cy="132.142857" r="4.55665025"></circle>
                        <circle id="Oval-3-Copy-3" opacity="0.900502232" cx="259.729064" cy="150.369458" r="4.55665025"></circle>
                        <circle id="Oval-3-Copy-4" opacity="0.900502232" cx="259.729064" cy="168.596059" r="4.55665025"></circle>
                        <circle id="Oval-3-Copy-5" opacity="0.900502232" cx="259.729064" cy="186.82266" r="4.55665025"></circle>
                        <circle id="Oval-3-Copy-6" opacity="0.900502232" cx="259.729064" cy="205.049261" r="4.55665025"></circle>
                        <circle id="Oval-3-Copy-7" opacity="0.900502232" cx="259.729064" cy="223.275862" r="4.55665025"></circle>
                        <circle id="Oval-3-Copy-8" opacity="0.900502232" cx="259.729064" cy="241.502463" r="4.55665025"></circle>
                        <circle id="Oval-3-Copy-3" opacity="0.900502232" cx="95.6896552" cy="4.55665025" r="4.55665025"></circle>
                        <circle id="Oval-3-Copy-4" opacity="0.900502232" cx="95.6896552" cy="22.7832512" r="4.55665025"></circle>
                        <circle id="Oval-3-Copy-5" opacity="0.900502232" cx="95.6896552" cy="41.0098522" r="4.55665025"></circle>
                        <circle id="Oval-3-Copy-6" opacity="0.900502232" cx="95.6896552" cy="59.2364532" r="4.55665025"></circle>
                        <circle id="Oval-3-Copy-7" opacity="0.900502232" cx="95.6896552" cy="77.4630542" r="4.55665025"></circle>
                        <circle id="Oval-3-Copy-8" opacity="0.900502232" cx="95.6896552" cy="95.6896552" r="4.55665025"></circle>
                        <circle id="Oval-3-Copy" opacity="0.900502232" cx="95.6896552" cy="113.916256" r="4.55665025"></circle>
                        <circle id="Oval-3-Copy-2" opacity="0.900502232" cx="95.6896552" cy="132.142857" r="4.55665025"></circle>
                        <circle id="Oval-3-Copy-3" opacity="0.900502232" cx="95.6896552" cy="150.369458" r="4.55665025"></circle>
                        <circle id="Oval-3-Copy-4" opacity="0.900502232" cx="95.6896552" cy="168.596059" r="4.55665025"></circle>
                        <circle id="Oval-3-Copy-5" opacity="0.900502232" cx="95.6896552" cy="186.82266" r="4.55665025"></circle>
                        <circle id="Oval-3-Copy-6" opacity="0.900502232" cx="95.6896552" cy="205.049261" r="4.55665025"></circle>
                        <circle id="Oval-3-Copy-7" opacity="0.900502232" cx="95.6896552" cy="223.275862" r="4.55665025"></circle>
                        <circle id="Oval-3-Copy-8" opacity="0.900502232" cx="95.6896552" cy="241.502463" r="4.55665025"></circle>
                        <circle id="Oval-3-Copy-3" opacity="0.900502232" cx="113.916256" cy="4.55665025" r="4.55665025"></circle>
                        <circle id="Oval-3-Copy-4" opacity="0.900502232" cx="113.916256" cy="22.7832512" r="4.55665025"></circle>
                        <circle id="Oval-3-Copy-5" opacity="0.900502232" cx="113.916256" cy="41.0098522" r="4.55665025"></circle>
                        <circle id="Oval-3-Copy-6" opacity="0.900502232" cx="113.916256" cy="59.2364532" r="4.55665025"></circle>
                        <circle id="Oval-3-Copy-7" opacity="0.900502232" cx="113.916256" cy="77.4630542" r="4.55665025"></circle>
                        <circle id="Oval-3-Copy-8" opacity="0.900502232" cx="113.916256" cy="95.6896552" r="4.55665025"></circle>
                        <circle id="Oval-3-Copy" opacity="0.900502232" cx="113.916256" cy="113.916256" r="4.55665025"></circle>
                        <circle id="Oval-3-Copy-2" opacity="0.900502232" cx="113.916256" cy="132.142857" r="4.55665025"></circle>
                        <circle id="Oval-3-Copy-3" opacity="0.900502232" cx="113.916256" cy="150.369458" r="4.55665025"></circle>
                        <circle id="Oval-3-Copy-4" opacity="0.900502232" cx="113.916256" cy="168.596059" r="4.55665025"></circle>
                        <circle id="Oval-3-Copy-5" opacity="0.900502232" cx="113.916256" cy="186.82266" r="4.55665025"></circle>
                        <circle id="Oval-3-Copy-6" opacity="0.900502232" cx="113.916256" cy="205.049261" r="4.55665025"></circle>
                        <circle id="Oval-3-Copy-7" opacity="0.900502232" cx="113.916256" cy="223.275862" r="4.55665025"></circle>
                        <circle id="Oval-3-Copy-8" opacity="0.900502232" cx="113.916256" cy="241.502463" r="4.55665025"></circle>
                        <circle id="Oval-3-Copy-3" opacity="0.900502232" cx="132.142857" cy="4.55665025" r="4.55665025"></circle>
                        <circle id="Oval-3-Copy-4" opacity="0.900502232" cx="132.142857" cy="22.7832512" r="4.55665025"></circle>
                        <circle id="Oval-3-Copy-5" opacity="0.900502232" cx="132.142857" cy="41.0098522" r="4.55665025"></circle>
                        <circle id="Oval-3-Copy-6" opacity="0.900502232" cx="132.142857" cy="59.2364532" r="4.55665025"></circle>
                        <circle id="Oval-3-Copy-7" opacity="0.900502232" cx="132.142857" cy="77.4630542" r="4.55665025"></circle>
                        <circle id="Oval-3-Copy-8" opacity="0.900502232" cx="132.142857" cy="95.6896552" r="4.55665025"></circle>
                        <circle id="Oval-3-Copy" opacity="0.900502232" cx="132.142857" cy="113.916256" r="4.55665025"></circle>
                        <circle id="Oval-3-Copy-2" opacity="0.900502232" cx="132.142857" cy="132.142857" r="4.55665025"></circle>
                        <circle id="Oval-3-Copy-3" opacity="0.900502232" cx="132.142857" cy="150.369458" r="4.55665025"></circle>
                        <circle id="Oval-3-Copy-4" opacity="0.900502232" cx="132.142857" cy="168.596059" r="4.55665025"></circle>
                        <circle id="Oval-3-Copy-5" opacity="0.900502232" cx="132.142857" cy="186.82266" r="4.55665025"></circle>
                        <circle id="Oval-3-Copy-6" opacity="0.900502232" cx="132.142857" cy="205.049261" r="4.55665025"></circle>
                        <circle id="Oval-3-Copy-7" opacity="0.900502232" cx="132.142857" cy="223.275862" r="4.55665025"></circle>
                        <circle id="Oval-3-Copy-8" opacity="0.900502232" cx="132.142857" cy="241.502463" r="4.55665025"></circle>
                        <circle id="Oval-3-Copy-3" opacity="0.900502232" cx="150.369458" cy="4.55665025" r="4.55665025"></circle>
                        <circle id="Oval-3-Copy-4" opacity="0.900502232" cx="150.369458" cy="22.7832512" r="4.55665025"></circle>
                        <circle id="Oval-3-Copy-5" opacity="0.900502232" cx="150.369458" cy="41.0098522" r="4.55665025"></circle>
                        <circle id="Oval-3-Copy-6" opacity="0.900502232" cx="150.369458" cy="59.2364532" r="4.55665025"></circle>
                        <circle id="Oval-3-Copy-7" opacity="0.900502232" cx="150.369458" cy="77.4630542" r="4.55665025"></circle>
                        <circle id="Oval-3-Copy-8" opacity="0.900502232" cx="150.369458" cy="95.6896552" r="4.55665025"></circle>
                        <circle id="Oval-3-Copy" opacity="0.900502232" cx="150.369458" cy="113.916256" r="4.55665025"></circle>
                        <circle id="Oval-3-Copy-2" opacity="0.900502232" cx="150.369458" cy="132.142857" r="4.55665025"></circle>
                        <circle id="Oval-3-Copy-3" opacity="0.900502232" cx="150.369458" cy="150.369458" r="4.55665025"></circle>
                        <circle id="Oval-3-Copy-4" opacity="0.900502232" cx="150.369458" cy="168.596059" r="4.55665025"></circle>
                        <circle id="Oval-3-Copy-5" opacity="0.900502232" cx="150.369458" cy="186.82266" r="4.55665025"></circle>
                        <circle id="Oval-3-Copy-6" opacity="0.900502232" cx="150.369458" cy="205.049261" r="4.55665025"></circle>
                        <circle id="Oval-3-Copy-7" opacity="0.900502232" cx="150.369458" cy="223.275862" r="4.55665025"></circle>
                        <circle id="Oval-3-Copy-8" opacity="0.900502232" cx="150.369458" cy="241.502463" r="4.55665025"></circle>
                        <circle id="Oval-3-Copy-3" opacity="0.900502232" cx="168.596059" cy="4.55665025" r="4.55665025"></circle>
                        <circle id="Oval-3-Copy-4" opacity="0.900502232" cx="168.596059" cy="22.7832512" r="4.55665025"></circle>
                        <circle id="Oval-3-Copy-5" opacity="0.900502232" cx="168.596059" cy="41.0098522" r="4.55665025"></circle>
                        <circle id="Oval-3-Copy-6" opacity="0.900502232" cx="168.596059" cy="59.2364532" r="4.55665025"></circle>
                        <circle id="Oval-3-Copy-7" opacity="0.900502232" cx="168.596059" cy="77.4630542" r="4.55665025"></circle>
                        <circle id="Oval-3-Copy-8" opacity="0.900502232" cx="168.596059" cy="95.6896552" r="4.55665025"></circle>
                        <circle id="Oval-3-Copy" opacity="0.900502232" cx="168.596059" cy="113.916256" r="4.55665025"></circle>
                        <circle id="Oval-3-Copy-2" opacity="0.900502232" cx="168.596059" cy="132.142857" r="4.55665025"></circle>
                        <circle id="Oval-3-Copy-3" opacity="0.900502232" cx="168.596059" cy="150.369458" r="4.55665025"></circle>
                        <circle id="Oval-3-Copy-4" opacity="0.900502232" cx="168.596059" cy="168.596059" r="4.55665025"></circle>
                        <circle id="Oval-3-Copy-5" opacity="0.900502232" cx="168.596059" cy="186.82266" r="4.55665025"></circle>
                        <circle id="Oval-3-Copy-6" opacity="0.900502232" cx="168.596059" cy="205.049261" r="4.55665025"></circle>
                        <circle id="Oval-3-Copy-7" opacity="0.900502232" cx="168.596059" cy="223.275862" r="4.55665025"></circle>
                        <circle id="Oval-3-Copy-8" opacity="0.900502232" cx="168.596059" cy="241.502463" r="4.55665025"></circle>
                        <circle id="Oval-3-Copy-8" opacity="0.900502232" cx="4.55665025" cy="95.6896552" r="4.55665025"></circle>
                        <circle id="Oval-3-Copy" opacity="0.900502232" cx="4.55665025" cy="113.916256" r="4.55665025"></circle>
                        <circle id="Oval-3-Copy-2" opacity="0.900502232" cx="4.55665025" cy="132.142857" r="4.55665025"></circle>
                        <circle id="Oval-3-Copy-3" opacity="0.900502232" cx="4.55665025" cy="150.369458" r="4.55665025"></circle>
                        <circle id="Oval-3-Copy-4" opacity="0.900502232" cx="4.55665025" cy="168.596059" r="4.55665025"></circle>
                        <circle id="Oval-3-Copy-5" opacity="0.900502232" cx="4.55665025" cy="186.82266" r="4.55665025"></circle>
                        <circle id="Oval-3-Copy-6" opacity="0.900502232" cx="22.7832512" cy="59.2364532" r="4.55665025"></circle>
                        <circle id="Oval-3-Copy-7" opacity="0.900502232" cx="22.7832512" cy="77.4630542" r="4.55665025"></circle>
                        <circle id="Oval-3-Copy-8" opacity="0.900502232" cx="22.7832512" cy="95.6896552" r="4.55665025"></circle>
                        <circle id="Oval-3-Copy" opacity="0.900502232" cx="22.7832512" cy="113.916256" r="4.55665025"></circle>
                        <circle id="Oval-3-Copy-2" opacity="0.900502232" cx="22.7832512" cy="132.142857" r="4.55665025"></circle>
                        <circle id="Oval-3-Copy-3" opacity="0.900502232" cx="22.7832512" cy="150.369458" r="4.55665025"></circle>
                        <circle id="Oval-3-Copy-4" opacity="0.900502232" cx="22.7832512" cy="168.596059" r="4.55665025"></circle>
                        <circle id="Oval-3-Copy-5" opacity="0.900502232" cx="22.7832512" cy="186.82266" r="4.55665025"></circle>
                        <circle id="Oval-3-Copy-6" opacity="0.900502232" cx="22.7832512" cy="205.049261" r="4.55665025"></circle>
                        <circle id="Oval-3-Copy-7" opacity="0.900502232" cx="22.7832512" cy="223.275862" r="4.55665025"></circle>
                        <circle id="Oval-3-Copy-8" opacity="0.900502232" cx="22.7832512" cy="241.502463" r="4.55665025"></circle>
                        <circle id="Oval-3-Copy-5" opacity="0.900502232" cx="41.0098522" cy="41.0098522" r="4.55665025"></circle>
                        <circle id="Oval-3-Copy-6" opacity="0.900502232" cx="41.0098522" cy="59.2364532" r="4.55665025"></circle>
                        <circle id="Oval-3-Copy-7" opacity="0.900502232" cx="41.0098522" cy="77.4630542" r="4.55665025"></circle>
                        <circle id="Oval-3-Copy-8" opacity="0.900502232" cx="41.0098522" cy="95.6896552" r="4.55665025"></circle>
                        <circle id="Oval-3-Copy" opacity="0.900502232" cx="41.0098522" cy="113.916256" r="4.55665025"></circle>
                        <circle id="Oval-3-Copy-2" opacity="0.900502232" cx="41.0098522" cy="132.142857" r="4.55665025"></circle>
                        <circle id="Oval-3-Copy-3" opacity="0.900502232" cx="41.0098522" cy="150.369458" r="4.55665025"></circle>
                        <circle id="Oval-3-Copy-4" opacity="0.900502232" cx="41.0098522" cy="168.596059" r="4.55665025"></circle>
                        <circle id="Oval-3-Copy-5" opacity="0.900502232" cx="41.0098522" cy="186.82266" r="4.55665025"></circle>
                        <circle id="Oval-3-Copy-6" opacity="0.900502232" cx="41.0098522" cy="205.049261" r="4.55665025"></circle>
                        <circle id="Oval-3-Copy-7" opacity="0.900502232" cx="41.0098522" cy="223.275862" r="4.55665025"></circle>
                        <circle id="Oval-3-Copy-8" opacity="0.900502232" cx="41.0098522" cy="241.502463" r="4.55665025"></circle>
                        <circle id="Oval-3-Copy-4" opacity="0.900502232" cx="59.2364532" cy="22.7832512" r="4.55665025"></circle>
                        <circle id="Oval-3-Copy-5" opacity="0.900502232" cx="59.2364532" cy="41.0098522" r="4.55665025"></circle>
                        <circle id="Oval-3-Copy-6" opacity="0.900502232" cx="59.2364532" cy="59.2364532" r="4.55665025"></circle>
                        <circle id="Oval-3-Copy-7" opacity="0.900502232" cx="59.2364532" cy="77.4630542" r="4.55665025"></circle>
                        <circle id="Oval-3-Copy-8" opacity="0.900502232" cx="59.2364532" cy="95.6896552" r="4.55665025"></circle>
                        <circle id="Oval-3-Copy" opacity="0.900502232" cx="59.2364532" cy="113.916256" r="4.55665025"></circle>
                        <circle id="Oval-3-Copy-2" opacity="0.900502232" cx="59.2364532" cy="132.142857" r="4.55665025"></circle>
                        <circle id="Oval-3-Copy-3" opacity="0.900502232" cx="59.2364532" cy="150.369458" r="4.55665025"></circle>
                        <circle id="Oval-3-Copy-4" opacity="0.900502232" cx="59.2364532" cy="168.596059" r="4.55665025"></circle>
                        <circle id="Oval-3-Copy-5" opacity="0.900502232" cx="59.2364532" cy="186.82266" r="4.55665025"></circle>
                        <circle id="Oval-3-Copy-6" opacity="0.900502232" cx="59.2364532" cy="205.049261" r="4.55665025"></circle>
                        <circle id="Oval-3-Copy-7" opacity="0.900502232" cx="59.2364532" cy="223.275862" r="4.55665025"></circle>
                        <circle id="Oval-3-Copy-8" opacity="0.900502232" cx="59.2364532" cy="241.502463" r="4.55665025"></circle>
                        <circle id="Oval-3-Copy-4" opacity="0.900502232" cx="77.4630542" cy="22.7832512" r="4.55665025"></circle>
                        <circle id="Oval-3-Copy-5" opacity="0.900502232" cx="77.4630542" cy="41.0098522" r="4.55665025"></circle>
                        <circle id="Oval-3-Copy-6" opacity="0.900502232" cx="77.4630542" cy="59.2364532" r="4.55665025"></circle>
                        <circle id="Oval-3-Copy-7" opacity="0.900502232" cx="77.4630542" cy="77.4630542" r="4.55665025"></circle>
                        <circle id="Oval-3-Copy-8" opacity="0.900502232" cx="77.4630542" cy="95.6896552" r="4.55665025"></circle>
                        <circle id="Oval-3-Copy" opacity="0.900502232" cx="77.4630542" cy="113.916256" r="4.55665025"></circle>
                        <circle id="Oval-3-Copy-2" opacity="0.900502232" cx="77.4630542" cy="132.142857" r="4.55665025"></circle>
                        <circle id="Oval-3-Copy-3" opacity="0.900502232" cx="77.4630542" cy="150.369458" r="4.55665025"></circle>
                        <circle id="Oval-3-Copy-4" opacity="0.900502232" cx="77.4630542" cy="168.596059" r="4.55665025"></circle>
                        <circle id="Oval-3-Copy-5" opacity="0.900502232" cx="77.4630542" cy="186.82266" r="4.55665025"></circle>
                        <circle id="Oval-3-Copy-6" opacity="0.900502232" cx="77.4630542" cy="205.049261" r="4.55665025"></circle>
                        <circle id="Oval-3-Copy-7" opacity="0.900502232" cx="77.4630542" cy="223.275862" r="4.55665025"></circle>
                        <circle id="Oval-3-Copy-8" opacity="0.900502232" cx="77.4630542" cy="241.502463" r="4.55665025"></circle>
                        <circle id="Oval-3" opacity="0.900502232" cx="277.955665" cy="259.729064" r="4.55665025"></circle>
                        <circle id="Oval-3" opacity="0.900502232" cx="296.182266" cy="259.729064" r="4.55665025"></circle>
                        <circle id="Oval-3" opacity="0.900502232" cx="186.82266" cy="259.729064" r="4.55665025"></circle>
                        <circle id="Oval-3-Copy" opacity="0.900502232" cx="186.82266" cy="277.955665" r="4.55665025"></circle>
                        <circle id="Oval-3-Copy-2" opacity="0.900502232" cx="186.82266" cy="296.182266" r="4.55665025"></circle>
                        <circle id="Oval-3-Copy-3" opacity="0.900502232" cx="186.82266" cy="314.408867" r="4.55665025"></circle>
                        <circle id="Oval-3" opacity="0.900502232" cx="205.049261" cy="259.729064" r="4.55665025"></circle>
                        <circle id="Oval-3-Copy" opacity="0.900502232" cx="205.049261" cy="277.955665" r="4.55665025"></circle>
                        <circle id="Oval-3-Copy-2" opacity="0.900502232" cx="205.049261" cy="296.182266" r="4.55665025"></circle>
                        <circle id="Oval-3" opacity="0.900502232" cx="223.275862" cy="259.729064" r="4.55665025"></circle>
                        <circle id="Oval-3-Copy" opacity="0.900502232" cx="223.275862" cy="277.955665" r="4.55665025"></circle>
                        <circle id="Oval-3-Copy-2" opacity="0.900502232" cx="223.275862" cy="296.182266" r="4.55665025"></circle>
                        <circle id="Oval-3" opacity="0.900502232" cx="241.502463" cy="259.729064" r="4.55665025"></circle>
                        <circle id="Oval-3-Copy" opacity="0.900502232" cx="241.502463" cy="277.955665" r="4.55665025"></circle>
                        <circle id="Oval-3" opacity="0.900502232" cx="259.729064" cy="259.729064" r="4.55665025"></circle>
                        <circle id="Oval-3-Copy" opacity="0.900502232" cx="259.729064" cy="277.955665" r="4.55665025"></circle>
                        <circle id="Oval-3" opacity="0.900502232" cx="95.6896552" cy="259.729064" r="4.55665025"></circle>
                        <circle id="Oval-3-Copy" opacity="0.900502232" cx="95.6896552" cy="277.955665" r="4.55665025"></circle>
                        <circle id="Oval-3-Copy-2" opacity="0.900502232" cx="95.6896552" cy="296.182266" r="4.55665025"></circle>
                        <circle id="Oval-3-Copy-3" opacity="0.900502232" cx="95.6896552" cy="314.408867" r="4.55665025"></circle>
                        <circle id="Oval-3-Copy-4" opacity="0.900502232" cx="95.6896552" cy="332.635468" r="4.55665025"></circle>
                        <circle id="Oval-3" opacity="0.900502232" cx="113.916256" cy="259.729064" r="4.55665025"></circle>
                        <circle id="Oval-3-Copy" opacity="0.900502232" cx="113.916256" cy="277.955665" r="4.55665025"></circle>
                        <circle id="Oval-3-Copy-2" opacity="0.900502232" cx="113.916256" cy="296.182266" r="4.55665025"></circle>
                        <circle id="Oval-3-Copy-3" opacity="0.900502232" cx="113.916256" cy="314.408867" r="4.55665025"></circle>
                        <circle id="Oval-3-Copy-4" opacity="0.900502232" cx="113.916256" cy="332.635468" r="4.55665025"></circle>
                        <circle id="Oval-3" opacity="0.900502232" cx="132.142857" cy="259.729064" r="4.55665025"></circle>
                        <circle id="Oval-3-Copy" opacity="0.900502232" cx="132.142857" cy="277.955665" r="4.55665025"></circle>
                        <circle id="Oval-3-Copy-2" opacity="0.900502232" cx="132.142857" cy="296.182266" r="4.55665025"></circle>
                        <circle id="Oval-3-Copy-3" opacity="0.900502232" cx="132.142857" cy="314.408867" r="4.55665025"></circle>
                        <circle id="Oval-3-Copy-4" opacity="0.900502232" cx="132.142857" cy="332.635468" r="4.55665025"></circle>
                        <circle id="Oval-3" opacity="0.900502232" cx="150.369458" cy="259.729064" r="4.55665025"></circle>
                        <circle id="Oval-3-Copy" opacity="0.900502232" cx="150.369458" cy="277.955665" r="4.55665025"></circle>
                        <circle id="Oval-3-Copy-2" opacity="0.900502232" cx="150.369458" cy="296.182266" r="4.55665025"></circle>
                        <circle id="Oval-3-Copy-3" opacity="0.900502232" cx="150.369458" cy="314.408867" r="4.55665025"></circle>
                        <circle id="Oval-3" opacity="0.900502232" cx="168.596059" cy="259.729064" r="4.55665025"></circle>
                        <circle id="Oval-3-Copy" opacity="0.900502232" cx="168.596059" cy="277.955665" r="4.55665025"></circle>
                        <circle id="Oval-3-Copy-2" opacity="0.900502232" cx="168.596059" cy="296.182266" r="4.55665025"></circle>
                        <circle id="Oval-3-Copy-3" opacity="0.900502232" cx="168.596059" cy="314.408867" r="4.55665025"></circle>
                        <circle id="Oval-3" opacity="0.900502232" cx="22.7832512" cy="259.729064" r="4.55665025"></circle>
                        <circle id="Oval-3" opacity="0.900502232" cx="41.0098522" cy="259.729064" r="4.55665025"></circle>
                        <circle id="Oval-3-Copy" opacity="0.900502232" cx="41.0098522" cy="277.955665" r="4.55665025"></circle>
                        <circle id="Oval-3-Copy-2" opacity="0.900502232" cx="41.0098522" cy="296.182266" r="4.55665025"></circle>
                        <circle id="Oval-3" opacity="0.900502232" cx="59.2364532" cy="259.729064" r="4.55665025"></circle>
                        <circle id="Oval-3-Copy" opacity="0.900502232" cx="59.2364532" cy="277.955665" r="4.55665025"></circle>
                        <circle id="Oval-3-Copy-2" opacity="0.900502232" cx="59.2364532" cy="296.182266" r="4.55665025"></circle>
                        <circle id="Oval-3-Copy-3" opacity="0.900502232" cx="59.2364532" cy="314.408867" r="4.55665025"></circle>
                        <circle id="Oval-3" opacity="0.900502232" cx="77.4630542" cy="259.729064" r="4.55665025"></circle>
                        <circle id="Oval-3-Copy" opacity="0.900502232" cx="77.4630542" cy="277.955665" r="4.55665025"></circle>
                        <circle id="Oval-3-Copy-2" opacity="0.900502232" cx="77.4630542" cy="296.182266" r="4.55665025"></circle>
                        <circle id="Oval-3-Copy-3" opacity="0.900502232" cx="77.4630542" cy="314.408867" r="4.55665025"></circle>
                        <circle id="Oval-3-Copy-4" opacity="0.900502232" cx="77.4630542" cy="332.635468" r="4.55665025"></circle>
                    </g>
                </g>
                <g id="noun_high-five_1154833" transform="translate(59.000000, 45.000000)" fill="#181F21" fill-rule="nonzero">
                    <g id="Group">
                        <path d="M244.662921,133.146067 C239.88764,126.966292 231.460674,125.561798 222.47191,129.213483 C220.224719,130.05618 216.853933,131.460674 212.921348,133.146067 L229.213483,88.4831461 C230.617978,84.5505618 230.337079,80.3370787 228.651685,76.6853933 C226.966292,73.0337079 223.876404,70.2247191 219.94382,68.8202247 C217.134831,67.6966292 214.044944,67.6966292 211.235955,68.5393258 L213.202247,62.9213483 C214.606742,58.988764 214.325843,54.7752809 212.640449,51.1235955 C210.955056,47.4719101 207.865169,44.6629213 203.932584,43.258427 C196.067416,40.4494382 187.359551,44.6629213 184.550562,52.247191 C182.865169,50 180.337079,48.0337079 177.52809,46.9101124 C169.662921,44.1011236 160.955056,48.3146067 157.865169,56.1797753 L155.05618,64.0449438 C153.370787,61.7977528 150.842697,59.8314607 148.033708,58.988764 C140.168539,56.1797753 131.460674,60.3932584 128.370787,68.5393258 L119.382022,93.8202247 L115.168539,83.1460674 C113.764045,79.2134831 110.674157,76.1235955 107.022472,74.4382022 C103.370787,72.752809 99.4382022,72.752809 95.7865169,74.1573034 C92.9775281,75.2808989 90.7303371,77.247191 89.0449438,79.494382 L85.9550562,71.9101124 C84.5505618,67.9775281 81.4606742,64.8876404 77.8089888,63.2022472 C74.1573034,61.5168539 70.2247191,61.5168539 66.5730337,62.9213483 C63.7640449,64.0449438 61.5168539,66.011236 59.8314607,68.258427 C58.1460674,64.6067416 55.3370787,61.7977528 51.6853933,60.1123596 C48.0337079,58.4269663 44.1011236,58.4269663 40.4494382,59.8314607 C32.8651685,62.9213483 28.9325843,71.9101124 32.0224719,79.7752809 L34.2696629,85.3932584 C31.4606742,84.8314607 28.6516854,84.8314607 25.8426966,85.9550562 C18.258427,89.0449438 14.3258427,98.0337079 17.4157303,105.898876 L37.3595506,156.460674 L25.2808989,149.157303 C21.9101124,146.910112 17.9775281,145.786517 14.3258427,146.348315 C10.3932584,146.910112 6.74157303,149.157303 4.49438202,152.52809 C-0.280898876,159.269663 1.40449438,168.820225 7.86516854,173.876404 C10.3932584,176.404494 42.9775281,202.247191 54.7752809,210.674157 C63.4831461,216.853933 74.1573034,220.224719 84.8314607,220.224719 C91.8539326,220.224719 99.1573034,218.820225 106.179775,216.011236 C117.134831,211.516854 126.404494,203.932584 132.58427,193.820225 C135.955056,196.067416 139.606742,197.752809 143.539326,199.157303 C150,201.404494 156.741573,202.52809 163.483146,202.52809 C175.280899,202.52809 186.516854,198.876404 196.067416,191.853933 C207.865169,183.146067 240.168539,156.179775 242.134831,154.494382 C248.595506,149.438202 249.719101,139.606742 244.662921,133.146067 Z M103.370787,209.550562 C87.9213483,215.730337 71.3483146,214.044944 58.4269663,205.05618 C46.9101124,196.629213 13.2022472,169.662921 12.9213483,169.382022 C12.9213483,169.382022 12.9213483,169.382022 12.9213483,169.382022 C9.26966292,166.573034 8.42696629,161.235955 10.9550562,157.303371 C12.0786517,155.617978 14.0449438,154.213483 16.2921348,153.932584 C18.5393258,153.651685 20.505618,154.213483 22.1910112,155.337079 C22.1910112,155.337079 22.4719101,155.337079 22.4719101,155.617978 L43.5393258,168.258427 C44.6629213,169.101124 46.3483146,168.820225 47.4719101,167.977528 C48.5955056,167.134831 48.8764045,165.449438 48.3146067,164.044944 L24.4382022,103.932584 C22.752809,99.4382022 24.7191011,94.6629213 28.9325843,92.9775281 C30.6179775,92.4157303 32.5842697,92.4157303 34.5505618,93.258427 C36.5168539,94.1011236 38.2022472,95.7865169 39.3258427,97.752809 L51.9662921,130.337079 C52.5280899,131.741573 53.9325843,132.58427 55.0561798,132.58427 C55.3370787,132.58427 55.8988764,132.58427 56.1797753,132.303371 C57.8651685,131.741573 58.7078652,129.494382 58.1460674,127.808989 L45.7865169,96.3483146 C45.7865169,96.3483146 45.7865169,96.0674157 45.7865169,96.0674157 C45.7865169,95.7865169 45.505618,95.505618 45.505618,95.2247191 L38.7640449,77.8089888 C37.0786517,73.3146067 39.0449438,68.5393258 43.258427,66.8539326 C45.2247191,66.011236 47.4719101,66.011236 49.4382022,66.8539326 C51.4044944,67.6966292 53.0898876,69.3820225 53.9325843,71.6292135 L58.4269663,83.4269663 C58.4269663,83.4269663 58.4269663,83.4269663 58.4269663,83.4269663 L73.0337079,121.348315 C73.5955056,122.752809 75,123.595506 76.1235955,123.595506 C76.4044944,123.595506 76.9662921,123.595506 77.247191,123.314607 C78.9325843,122.752809 79.7752809,120.505618 79.2134831,118.820225 L65.1685393,82.0224719 C65.1685393,82.0224719 65.1685393,82.0224719 65.1685393,82.0224719 L64.8876404,81.1797753 C63.2022472,76.6853933 65.1685393,71.9101124 69.3820225,70.2247191 C71.3483146,69.3820225 73.5955056,69.3820225 75.5617978,70.2247191 C77.5280899,71.0674157 79.2134831,72.752809 80.0561798,75 L87.6404494,94.1011236 C87.6404494,94.1011236 87.6404494,94.1011236 87.6404494,94.1011236 C87.6404494,94.3820225 87.6404494,94.3820225 87.9213483,94.6629213 L98.0337079,121.348315 C98.5955056,123.033708 100.842697,123.876404 102.52809,123.314607 C104.213483,122.752809 105.05618,120.505618 104.494382,118.820225 L94.1011236,92.1348315 C92.4157303,87.6404494 94.3820225,82.8651685 98.5955056,81.1797753 C100.561798,80.3370787 102.808989,80.3370787 104.775281,81.1797753 C106.741573,82.0224719 108.426966,83.7078652 109.269663,85.9550562 L131.741573,144.382022 C141.011236,170.786517 128.651685,199.438202 103.370787,209.550562 Z M237.640449,149.157303 C237.640449,149.157303 237.640449,149.157303 237.640449,149.157303 C237.359551,149.438202 203.370787,177.52809 191.853933,186.235955 C179.213483,195.786517 161.797753,198.033708 146.067416,192.41573 C142.696629,191.292135 139.325843,189.606742 136.235955,187.640449 C136.516854,187.078652 136.797753,186.516854 137.078652,185.674157 C142.977528,171.910112 143.539326,156.460674 138.483146,142.134831 C138.483146,142.134831 138.483146,142.134831 138.483146,142.134831 L123.595506,103.932584 L135.11236,71.0674157 C136.797753,66.5730337 141.573034,64.3258427 145.786517,65.7303371 C147.752809,66.5730337 149.438202,67.9775281 150.561798,69.9438202 C151.404494,71.9101124 151.685393,74.4382022 150.842697,76.4044944 L140.730337,105.05618 C140.168539,106.741573 141.011236,108.707865 142.696629,109.550562 C142.977528,109.550562 143.539326,109.831461 143.820225,109.831461 C145.224719,109.831461 146.629213,108.988764 147.191011,107.58427 L157.303371,78.9325843 C157.303371,78.6516854 157.303371,78.6516854 157.58427,78.3707865 C157.58427,78.3707865 157.58427,78.3707865 157.58427,78.3707865 L164.606742,58.988764 C166.292135,54.494382 171.067416,52.247191 175.280899,53.6516854 C177.247191,54.494382 178.932584,55.8988764 180.05618,57.8651685 C180.898876,59.8314607 181.179775,62.3595506 180.337079,64.6067416 L180.05618,65.4494382 C180.05618,65.4494382 180.05618,65.4494382 180.05618,65.4494382 L166.011236,106.179775 C165.449438,107.865169 166.292135,109.831461 168.258427,110.674157 C168.539326,110.674157 169.101124,110.955056 169.382022,110.955056 C170.786517,110.955056 172.191011,110.11236 172.752809,108.707865 L187.359551,67.1348315 L191.573034,55.3370787 C193.258427,50.8426966 198.033708,48.5955056 202.247191,50 C204.213483,50.8426966 205.898876,52.247191 207.022472,54.2134831 C207.865169,56.1797753 208.146067,58.7078652 207.303371,60.6741573 L201.123596,77.5280899 C200.842697,78.0898876 200.842697,78.3707865 200.561798,78.9325843 C200.561798,79.2134831 200.561798,79.494382 200.280899,79.494382 L187.640449,114.325843 C187.078652,116.011236 187.921348,117.977528 189.606742,118.820225 C189.88764,118.820225 190.449438,119.101124 190.730337,119.101124 C192.134831,119.101124 193.539326,118.258427 194.101124,116.853933 L207.303371,80.3370787 C209.269663,76.4044944 214.044944,74.1573034 217.696629,75.5617978 C219.662921,76.4044944 221.348315,77.8089888 222.47191,79.7752809 C223.314607,81.741573 223.595506,84.2696629 222.752809,86.2359551 L204.213483,136.516854 C201.123596,137.640449 198.314607,138.764045 196.910112,139.325843 C179.213483,132.58427 169.662921,140.449438 161.797753,146.629213 C160.393258,147.752809 160.11236,150 161.235955,151.404494 C162.359551,152.808989 164.606742,153.089888 166.011236,151.966292 C173.595506,145.786517 180.617978,139.88764 195.505618,146.067416 C196.348315,146.348315 197.191011,146.348315 198.033708,146.067416 C198.876404,145.786517 218.258427,138.202247 225,135.393258 C228.651685,133.988764 235.393258,132.022472 239.044944,137.078652 C242.134831,141.011236 241.292135,146.348315 237.640449,149.157303 Z" id="Shape" stroke="#181F21" stroke-width="2"></path>
                        <path d="M46.0674157,36.2359551 L63.4831461,47.4719101 C64.0449438,47.752809 64.6067416,48.0337079 65.4494382,48.0337079 C66.5730337,48.0337079 67.6966292,47.4719101 68.258427,46.3483146 C69.3820225,44.6629213 68.8202247,42.6966292 67.1348315,41.5730337 L49.7191011,30.3370787 C48.0337079,29.2134831 46.0674157,29.7752809 44.9438202,31.4606742 C43.8202247,33.1460674 44.3820225,35.1123596 46.0674157,36.2359551 Z" id="Shape"></path>
                        <path d="M87.0786517,33.4269663 C87.6404494,34.8314607 88.7640449,35.6741573 90.4494382,35.6741573 C90.7303371,35.6741573 91.2921348,35.6741573 91.5730337,35.3932584 C93.258427,34.8314607 94.3820225,32.8651685 93.8202247,30.8988764 L84.2696629,3.08988764 C83.7078652,1.40449438 81.741573,0.280898876 79.7752809,0.842696629 C78.0898876,1.40449438 76.9662921,3.37078652 77.5280899,5.33707865 L87.0786517,33.4269663 Z" id="Shape"></path>
                        <path d="M117.41573,30.8988764 C117.696629,31.1797753 118.258427,31.1797753 118.539326,31.1797753 C119.94382,31.1797753 121.348315,30.3370787 121.629213,28.9325843 L128.651685,9.5505618 C129.213483,7.86516854 128.370787,5.8988764 126.685393,5.05617978 C125,4.49438202 123.033708,5.33707865 122.191011,7.02247191 L115.168539,26.4044944 C114.606742,28.3707865 115.730337,30.3370787 117.41573,30.8988764 Z" id="Shape"></path>
                        <path d="M142.134831,224.719101 C140.449438,224.157303 138.483146,225.280899 137.921348,226.966292 L132.022472,246.629213 C131.460674,248.314607 132.58427,250.280899 134.269663,250.842697 C134.550562,250.842697 134.831461,251.123596 135.393258,251.123596 C136.797753,251.123596 138.202247,250.280899 138.764045,248.595506 L144.662921,228.932584 C144.94382,227.247191 144.101124,225.280899 142.134831,224.719101 Z" id="Shape"></path>
                        <path d="M171.348315,219.662921 C170.505618,217.977528 168.539326,217.134831 166.853933,217.696629 C165.168539,218.539326 164.325843,220.505618 164.88764,222.191011 L176.123596,249.438202 C176.685393,250.842697 178.089888,251.685393 179.213483,251.685393 C179.775281,251.685393 180.05618,251.685393 180.617978,251.404494 C182.303371,250.561798 183.146067,248.595506 182.58427,246.910112 L171.348315,219.662921 Z" id="Shape"></path>
                        <path d="M212.359551,212.921348 L194.382022,202.808989 C192.696629,201.966292 190.730337,202.52809 189.606742,204.213483 C188.764045,205.898876 189.325843,207.865169 191.011236,208.988764 L208.988764,219.101124 C209.550562,219.382022 210.11236,219.662921 210.674157,219.662921 C211.797753,219.662921 212.921348,219.101124 213.764045,217.977528 C214.606742,216.011236 214.044944,214.044944 212.359551,212.921348 Z" id="Shape"></path>
                    </g>
                </g>
            </g>
        </g>
    </g>
</svg>