<?xml version="1.0" encoding="UTF-8"?>
<svg width="60px" height="49px" viewBox="0 0 60 49" version="1.1" xmlns="http://www.w3.org/2000/svg" xmlns:xlink="http://www.w3.org/1999/xlink">
    <!-- Generator: Sketch 51.3 (57544) - http://www.bohemiancoding.com/sketch -->
    <title>Image</title>
    <desc>Created with Sketch.</desc>
    <defs></defs>
    <g id="Page-1" stroke="none" stroke-width="1" fill="none" fill-rule="evenodd">
        <g id="Image" fill="#7D7D7D" fill-rule="nonzero">
            <g id="Page-1">
                <g id="AddImage">
                    <g id="noun_Add-Image_187803">
                        <g id="Group">
                            <polygon id="Shape" points="17.9452442 18.970679 29.8992288 27.9700617 35.8856041 24.9765432 47.8395887 32.1685185 47.8395887 36.9694444 11.9588689 36.9694444 11.9588689 24.9765432"></polygon>
                            <path d="M47.8583548,17.4645062 C47.8583548,19.9496914 45.8503856,21.9641975 43.3732648,21.9641975 C40.896144,21.9641975 38.8881748,19.9496914 38.8881748,17.4645062 C38.8881748,14.979321 40.896144,12.9648148 43.3732648,12.9648148 C45.8503856,12.9648148 47.8583548,14.979321 47.8583548,17.4645062 Z" id="Shape"></path>
                            <path d="M53.8447301,0.9719136 L25.9020566,0.9719136 L25.9020566,6.9777778 L53.8447301,6.9777778 L53.8447301,42.9753086 L5.9912596,42.9753086 L5.9912596,27.1416667 L0.0048843,27.1416667 L0.0048843,42.9753086 C0.0048843,46.2700617 2.6884319,48.9811728 5.9912596,48.9811728 L53.8447301,48.9811728 C57.1287918,48.9811728 59.8311054,46.2888889 59.8311054,42.9753086 L59.8311054,6.9589506 C59.8123393,3.6641975 57.1287918,0.9719136 53.8447301,0.9719136 Z" id="Shape"></path>
                            <path d="M53.8447304,0.9719132 L25.9020569,0.9719132 L25.9020569,6.9777774 L53.8447304,6.9777774 L53.8447304,42.9753082 L5.9912599,42.9753082 L5.9912599,27.1416663 L0.0048846,27.1416663 L0.0048846,42.9753082 C0.0048846,46.2700613 2.6884322,48.9811724 5.9912599,48.9811724 L53.8447304,48.9811724 C57.1287921,48.9811724 59.8311057,46.2888885 59.8311057,42.9753082 L59.8311057,6.9589502 C59.8123396,3.6641971 57.1287921,0.9719132 53.8447304,0.9719132 Z" id="Shape" transform="translate(29.917995, 24.976543) rotate(-180.000000) translate(-29.917995, -24.976543) "></path>
                        </g>
                    </g>
                </g>
            </g>
        </g>
    </g>
</svg>