<?xml version="1.0" encoding="UTF-8"?>
<svg width="33px" height="30px" viewBox="0 0 33 30" version="1.1" xmlns="http://www.w3.org/2000/svg" xmlns:xlink="http://www.w3.org/1999/xlink">
    <!-- Generator: Sketch 51.3 (57544) - http://www.bohemiancoding.com/sketch -->
    <title>noun_job_1441691</title>
    <desc>Created with Sketch.</desc>
    <defs></defs>
    <g id="Page-1" stroke="none" stroke-width="1" fill="none" fill-rule="evenodd">
        <g id="noun_job_1441691" transform="translate(2.000000, 2.000000)" stroke="#A0A0A0" stroke-width="3">
            <g id="Group">
                <path d="M29,23.9129321 C29,25.1011524 28.0345711,26.0665813 26.8463508,26.0665813 L2.15364917,26.0665813 C0.965428937,26.0665813 0,25.1011524 0,23.9129321 L0,7.5006402 C0,6.31241997 0.965428937,5.34699104 2.15364917,5.34699104 L26.8463508,5.34699104 C28.0345711,5.34699104 29,6.31241997 29,7.5006402 L29,23.9129321 Z" id="Shape"></path>
                <path d="M8.50320102,5.34699104 L8.50320102,1.64494238 C8.50320102,0.746350832 9.24583867,0 10.1444302,0 L18.8964149,0 C19.7950064,0 20.537644,0.746350832 20.537644,1.64494238 L20.537644,5.34699104" id="Shape"></path>
                <rect id="Rectangle-path" x="12.9033291" y="11.8450704" width="3.22676056" height="2.37644046"></rect>
                <path d="M8.31754161,13.0332907 L0,13.0332907" id="Shape"></path>
                <path d="M29,13.0332907 L20.6824584,13.0332907" id="Shape"></path>
            </g>
        </g>
    </g>
</svg>