<?xml version="1.0" encoding="UTF-8"?>
<svg width="864px" height="864px" viewBox="0 0 864 864" version="1.1" xmlns="http://www.w3.org/2000/svg" xmlns:xlink="http://www.w3.org/1999/xlink">
    <!-- Generator: Sketch 53.2 (72643) - https://sketchapp.com -->
    <title>noun_link_1721081</title>
    <desc>Created with Sketch.</desc>
    <g id="Page-1" stroke="none" stroke-width="1" fill="none" fill-rule="evenodd">
        <g id="noun_link_1721081" fill="#1168DF" fill-rule="nonzero">
            <g id="Group">
                <path d="M551.3,80.8 C581.9,80.8 612.5,80.8 643,80.8 C691.9,80.8 740.8,80.8 789.7,80.8 C800.9,80.8 812,80.8 823.2,80.8 C809.9,67.5 796.5,54.1 783.2,40.8 C783.2,71.4 783.2,102 783.2,132.5 C783.2,181.4 783.2,230.3 783.2,279.2 C783.2,290.4 783.2,301.5 783.2,312.7 C783.2,333.6 801.6,353.7 823.2,352.7 C844.9,351.7 863.2,335.1 863.2,312.7 C863.2,282.1 863.2,251.5 863.2,221 C863.2,172.1 863.2,123.2 863.2,74.3 C863.2,63.1 863.2,52 863.2,40.8 C863.2,19.2 844.9,0.8 823.2,0.8 C792.6,0.8 762,0.8 731.5,0.8 C682.6,0.8 633.7,0.8 584.8,0.8 C573.6,0.8 562.5,0.8 551.3,0.8 C530.4,0.8 510.3,19.2 511.3,40.8 C512.2,62.4 528.8,80.8 551.3,80.8 L551.3,80.8 Z" id="Path"></path>
                <path d="M400.3,520.3 C415.3,505.3 430.2,490.4 445.2,475.4 C481.1,439.5 517,403.6 553,367.6 C596.5,324.1 639.9,280.7 683.4,237.2 C721,199.6 758.5,162.1 796.1,124.5 C814.4,106.2 832.9,88.2 850.9,69.7 C851.2,69.4 851.4,69.2 851.7,68.9 C866.5,54.1 867.6,26.9 851.7,12.3 C835.7,-2.4 810.9,-3.5 795.1,12.3 C780.1,27.3 765.2,42.2 750.2,57.2 C714.3,93.1 678.4,129 642.4,165 C598.9,208.5 555.4,252 512,295.5 C474.4,333.1 436.9,370.6 399.3,408.2 C381,426.5 362.5,444.5 344.5,463 C344.2,463.3 344,463.5 343.7,463.8 C328.9,478.6 327.8,505.8 343.7,520.4 C359.7,534.9 384.5,536.1 400.3,520.3 L400.3,520.3 Z" id="Path"></path>
                <path d="M783.3,492.8 C783.3,523.2 783.3,553.5 783.3,583.9 C783.3,631 783.3,678.1 783.3,725.3 C783.3,737.8 784.3,750.9 782.6,763.4 C783.1,759.9 783.6,756.3 784,752.8 C783.1,758.6 781.6,764.1 779.4,769.6 C780.7,766.4 782.1,763.2 783.4,760 C781,765.7 777.9,770.9 774.2,775.9 C776.3,773.2 778.4,770.5 780.5,767.8 C776.7,772.6 772.4,776.9 767.6,780.7 C770.3,778.6 773,776.5 775.7,774.4 C770.8,778.1 765.5,781.2 759.8,783.6 C763,782.3 766.2,780.9 769.4,779.6 C764,781.8 758.4,783.3 752.6,784.2 C756.1,783.7 759.7,783.2 763.2,782.8 C755,783.9 746.5,783.5 738.2,783.5 C722.7,783.5 707.3,783.5 691.8,783.5 C640.2,783.5 588.6,783.5 537,783.5 C474.3,783.5 411.5,783.5 348.8,783.5 C294.8,783.5 240.8,783.5 186.8,783.5 C161.4,783.5 136,783.7 110.7,783.5 C107.3,783.5 103.9,783.3 100.5,782.8 C104,783.3 107.6,783.8 111.1,784.2 C105.3,783.3 99.8,781.8 94.3,779.6 C97.5,780.9 100.7,782.3 103.9,783.6 C98.2,781.2 93,778.1 88,774.4 C90.7,776.5 93.4,778.6 96.1,780.7 C91.3,776.9 87,772.6 83.2,767.8 C85.3,770.5 87.4,773.2 89.5,775.9 C85.8,771 82.7,765.7 80.3,760 C81.6,763.2 83,766.4 84.3,769.6 C82.1,764.2 80.6,758.6 79.7,752.8 C80.2,756.3 80.7,759.9 81.1,763.4 C80,755.2 80.4,746.7 80.4,738.4 C80.4,722.9 80.4,707.5 80.4,692 C80.4,640.4 80.4,588.8 80.4,537.2 C80.4,474.5 80.4,411.7 80.4,349 C80.4,295 80.4,241 80.4,187 C80.4,161.6 80.2,136.2 80.4,110.9 C80.4,107.5 80.6,104.1 81.1,100.7 C80.6,104.2 80.1,107.8 79.7,111.3 C80.6,105.5 82.1,100 84.3,94.5 C83,97.7 81.6,100.9 80.3,104.1 C82.7,98.4 85.8,93.2 89.5,88.2 C87.4,90.9 85.3,93.6 83.2,96.3 C87,91.5 91.3,87.2 96.1,83.4 C93.4,85.5 90.7,87.6 88,89.7 C92.9,86 98.2,82.9 103.9,80.5 C100.7,81.8 97.5,83.2 94.3,84.5 C99.7,82.3 105.3,80.8 111.1,79.9 C107.6,80.4 104,80.9 100.5,81.3 C111.1,79.9 122.1,80.6 132.7,80.6 C153.3,80.6 173.9,80.6 194.6,80.6 C242.4,80.6 290.1,80.6 337.9,80.6 C349,80.6 360,80.6 371.1,80.6 C392,80.6 412.1,62.2 411.1,40.6 C410.1,18.9 393.5,0.6 371.1,0.6 C343.9,0.6 316.7,0.6 289.5,0.6 C244.1,0.6 198.6,0.6 153.2,0.6 C140.1,0.6 127,0.6 114,0.6 C83.3,0.6 53.5,11.3 31.9,33.7 C11.6,54.8 0.7,82.7 0.7,111.9 C0.7,118 0.7,124.1 0.7,130.1 C0.7,158.5 0.7,186.8 0.7,215.2 C0.7,257.8 0.7,300.4 0.7,343 C0.7,391 0.7,439.1 0.7,487.1 C0.7,531.8 0.7,576.4 0.7,621.1 C0.7,653.6 0.7,686.1 0.7,718.7 C0.7,737.6 -0.1,756.5 3,775.2 C6.5,796.3 18.5,817.2 33.8,831.9 C41.6,839.4 50.8,846.4 60.7,851.1 C74.6,857.6 86.8,861 102,862.6 C107.7,863.2 113.3,863.1 119,863.1 C142.5,863.1 166.1,863.1 189.6,863.1 C229.5,863.1 269.5,863.1 309.4,863.1 C356.9,863.1 404.4,863.1 451.9,863.1 C498.1,863.1 544.2,863.1 590.4,863.1 C626.8,863.1 663.3,863.1 699.7,863.1 C717.2,863.1 734.7,863.1 752.2,863.1 C782.2,863 812.3,851.3 832.9,829.1 C840.1,821.3 847,812.3 851.5,802.6 C857.9,788.7 861.1,777 862.8,761.9 C863.3,757.6 863.3,753.3 863.3,749 C863.3,713.7 863.3,678.4 863.3,643.1 C863.3,600.3 863.3,557.5 863.3,514.7 C863.3,507.4 863.3,500 863.3,492.7 C863.3,471.8 844.9,451.7 823.3,452.7 C801.6,453.7 783.3,470.3 783.3,492.8 L783.3,492.8 Z" id="Path"></path>
            </g>
        </g>
    </g>
</svg>