<?xml version="1.0" encoding="UTF-8"?>
<svg width="84px" height="84px" viewBox="0 0 84 84" version="1.1" xmlns="http://www.w3.org/2000/svg" xmlns:xlink="http://www.w3.org/1999/xlink">
    <!-- Generator: Sketch 51.3 (57544) - http://www.bohemiancoding.com/sketch -->
    <title>Shape</title>
    <desc>Created with Sketch.</desc>
    <defs></defs>
    <g id="Page-1" stroke="none" stroke-width="1" fill="none" fill-rule="evenodd">
        <g id="noun_Log-Out_706555" fill="#006ECC" fill-rule="nonzero">
            <path d="M81.9,0.6 C80.6,-0.1 79,2.22044605e-16 77.8,0.9 L66.6,8.8 L29.6,8.8 C27.4,8.8 25.6,10.6 25.6,12.8 L25.6,38 L4,38 C1.8,38 0,39.8 0,42 C0,44.2 1.8,46 4,46 L25.6,46 L25.6,71.2 C25.6,73.4 27.4,75.2 29.6,75.2 L66.5,75.2 L77.7,83.1 C78.4,83.6 79.2,83.8 80,83.8 C80.6,83.8 81.3,83.7 81.8,83.4 C83.1,82.7 84,81.3 84,79.8 L84,4.2 C84,2.7 83.2,1.3 81.9,0.6 Z M33.6,46 L45.6,46 L37.2,54.4 C35.6,56 35.6,58.5 37.2,60.1 C38,60.9 39,61.3 40,61.3 C41,61.3 42,60.9 42.8,60.1 L58,44.9 C58.2,44.7 58.4,44.5 58.5,44.3 C58.5,44.2 58.6,44.2 58.6,44.1 C58.7,43.9 58.8,43.8 58.9,43.6 C58.9,43.5 59,43.4 59,43.3 C59.1,43.1 59.1,43 59.1,42.8 C59.2,42.5 59.2,42.3 59.2,42 C59.2,41.7 59.2,41.5 59.1,41.2 C59.1,41 59,40.9 59,40.7 C59,40.6 59,40.5 58.9,40.4 C58.8,40.2 58.7,40.1 58.6,39.9 C58.6,39.8 58.5,39.8 58.5,39.7 C58.4,39.5 58.2,39.3 58,39.1 C58,39.1 58,39.1 58,39.1 L42.9,24 C41.3,22.4 38.8,22.4 37.2,24 C35.6,25.6 35.6,28.1 37.2,29.7 L45.6,38.1 L33.6,38.1 L33.6,16.8 L63.8,16.8 L63.8,67.1 L33.6,67.1 L33.6,46 Z M76,72.1 L71.8,69.1 L71.8,14.9 L76,11.9 L76,72.1 Z" id="Shape"></path>
        </g>
    </g>
</svg>