<?xml version="1.0" encoding="UTF-8"?>
<svg width="33px" height="34px" viewBox="0 0 33 34" version="1.1" xmlns="http://www.w3.org/2000/svg" xmlns:xlink="http://www.w3.org/1999/xlink">
    <!-- Generator: Sketch 51.3 (57544) - http://www.bohemiancoding.com/sketch -->
    <title>noun_Search_1706879</title>
    <desc>Created with Sketch.</desc>
    <defs></defs>
    <g id="Page-1" stroke="none" stroke-width="1" fill="none" fill-rule="evenodd">
        <g id="noun_Search_1706879" transform="translate(0.000000, 0.204545)" fill="#A0A0A0" fill-rule="nonzero">
            <g id="Group" transform="translate(0.000000, 0.269847)">
                <path d="M13.9652717,0.15323 C6.26754362,0.15323 -2.53846154e-06,6.42071692 -2.53846154e-06,14.1185042 C-2.53846154e-06,21.8162577 6.26753515,28.0837615 13.9652717,28.0837615 C16.5903709,28.0837615 19.0456809,27.3528115 21.146279,26.0868385 L27.2296344,32.1701769 C28.5403394,33.4809115 30.7062648,33.4809538 32.016974,32.1701769 C33.327679,30.8594846 33.327679,28.6935423 32.016974,27.3828923 L25.9336186,21.2995538 C27.1993463,19.1990192 27.9305459,16.7433962 27.9305459,14.1185042 C27.9305459,6.42071692 21.6629955,0.15323 13.9652717,0.15323 Z M13.9652717,2.69236846 C20.2907328,2.69236846 25.3914032,7.79299654 25.3914032,14.1185042 C25.3914032,20.4439654 20.2907244,25.5446231 13.9652717,25.5446231 C7.63981477,25.5446231 2.53914015,20.4439654 2.53914015,14.1185042 C2.53914015,7.79299654 7.63980631,2.69236846 13.9652717,2.69236846 Z M24.4127755,23.3758038 L30.2184148,29.1814346 C30.5654986,29.5285269 30.5654986,30.0245846 30.2184148,30.3716346 C29.8713267,30.7187269 29.3752817,30.7187269 29.0281936,30.3716346 L23.2225544,24.5660038 C23.6436386,24.1922577 24.0393678,23.7971462 24.4127755,23.3758038 Z" id="Shape"></path>
            </g>
        </g>
    </g>
</svg>