<?xml version="1.0" encoding="UTF-8"?>
<svg width="131px" height="104px" viewBox="0 0 131 104" version="1.1" xmlns="http://www.w3.org/2000/svg" xmlns:xlink="http://www.w3.org/1999/xlink">
    <!-- Generator: Sketch 52.5 (67469) - http://www.bohemiancoding.com/sketch -->
    <title>Shape</title>
    <desc>Created with Sketch.</desc>
    <g id="Page-1" stroke="none" stroke-width="1" fill="none" fill-rule="evenodd">
        <g id="Monogram" transform="translate(0.000000, -69.000000)" fill="#FFFFFF">
            <path d="M15.5340803,90.2157554 C15.6968378,88.6076572 15.0836,87.018231 13.8828198,85.93592 L1.6512605,71.2010582 L1.6512605,69 L39.6302521,69 L68.9859944,133.380952 L94.794585,69 L131,69 L131,71.2010582 L120.542017,81.2281011 C119.640424,81.9153477 119.193188,83.0448862 119.380019,84.1628454 L119.380019,157.837155 C119.193188,158.955114 119.640424,160.084652 120.542017,160.771899 L130.755369,170.798942 L130.755369,173 L79.38282,173 L79.38282,170.798942 L89.963119,160.527337 C91.002801,159.487948 91.002801,159.182246 91.002801,157.592593 L91.002801,98.0417402 L61.585901,172.755438 L57.6106443,172.755438 L23.3622782,98.0417402 L23.3622782,148.115814 C23.0767278,150.221069 23.7759199,152.3406 25.2581699,153.863022 L39.0186741,170.55438 L39.0186741,172.755438 L0,172.755438 L0,170.55438 L13.7605042,153.863022 C15.2319621,152.338076 15.8903838,150.204485 15.5340803,148.115814 L15.5340803,90.2157554 Z" id="Shape"></path>
        </g>
    </g>
</svg>