<?xml version="1.0" encoding="UTF-8"?>
<svg width="164px" height="164px" viewBox="0 0 164 164" version="1.1" xmlns="http://www.w3.org/2000/svg" xmlns:xlink="http://www.w3.org/1999/xlink">
    <!-- Generator: Sketch 51.2 (57519) - http://www.bohemiancoding.com/sketch -->
    <title>Group 38</title>
    <desc>Created with Sketch.</desc>
    <defs></defs>
    <g id="Page-1" stroke="none" stroke-width="1" fill="none" fill-rule="evenodd">
        <g id="Desktop-HD" transform="translate(-780.000000, -1507.000000)" fill-rule="nonzero">
            <g id="Group-38" transform="translate(780.000000, 1507.000000)">
                <g id="Group-31">
                    <path d="M130.925427,45.9481434 C147.975938,62.8552939 160.205516,88.0745374 154.640172,107.98819 C149.110276,127.901842 125.820907,142.545273 101.999818,152.696638 C78.2141767,162.812632 53.8613666,168.436558 37.9097442,159.629277 C21.9581219,150.821996 14.4076873,127.583506 7.70800589,102.894822 C1.04377255,78.1707672 -4.73425954,51.9611467 5.79381121,36.5395617 C16.321882,21.1179767 43.2269517,16.4490564 67.6152098,18.4298105 C92.003468,20.4105645 113.874915,29.0409928 130.925427,45.9481434 Z" id="Shape" fill="#A26AFE"></path>
                    <path d="M150.460161,22.7122104 C165.194113,39.9445744 167.613659,68.1724846 159.127191,89.2983534 C150.640724,110.460273 131.21213,124.520152 109.147314,136.380921 C87.0824987,148.241691 62.3814612,157.8673 44.9390619,150.332647 C27.46055,142.761943 17.2767889,117.994926 12.1849084,92.9034505 C7.09302786,67.8119748 7.12914048,42.3599895 19.5879971,25.632339 C32.0107411,8.94073953 56.8562291,0.937424016 82.785096,0.0722007167 C108.713963,-0.756971612 135.726209,5.47984634 150.460161,22.7122104 Z" id="Shape" fill="#181F21"></path>
                </g>
                <g id="noun_chat_1231757" transform="translate(86.500000, 73.500000) scale(-1, 1) translate(-86.500000, -73.500000) translate(41.000000, 28.000000)" fill="#8F4AFE">
                    <path d="M45.5,0.738111111 C20.8187778,0.738111111 0.738111111,18.5336667 0.738111111,40.4444444 C0.738111111,62.3552222 20.8187778,80.0698889 45.5,80.0698889 C47.7626454,80.0663977 50.0225043,79.9110113 52.2643333,79.6047778 L68.8465556,89.7158889 C70.095651,90.4763149 71.6579481,90.5032374 72.9325024,89.7863006 C74.2070568,89.0693638 74.9953306,87.7202451 74.9941111,86.2578889 L74.9941111,70.2317778 C84.721,62.6888889 90.2618889,51.9306667 90.2618889,40.4444444 C90.2618889,18.5336667 70.1812222,0.738111111 45.5,0.738111111 Z M68.6241111,64.8728889 C67.5443809,65.6317223 66.9027868,66.8696214 66.9052222,68.1893333 L66.9052222,79.0284444 L55.2167778,71.9506667 C54.3959765,71.4524394 53.4246917,71.2624833 52.4766667,71.4147778 C50.170603,71.7970541 47.8375201,71.9931683 45.5,72.0012222 C25.2777778,72.0012222 8.827,57.8456667 8.827,40.4242222 C8.827,23.0027778 25.2777778,8.827 45.5,8.827 C65.7222222,8.827 82.173,22.9926667 82.173,40.4444444 C82.173,49.9185556 77.2387778,58.8466667 68.6241111,64.8728889 Z" id="Shape" stroke="#8F4AFE"></path>
                    <path d="M27.6741111,34.1957778 C23.7732345,34.2292151 20.6348711,37.4126972 20.6571151,41.3136536 C20.679359,45.2146101 23.8538227,48.3620953 27.7548269,48.3510449 C31.6558311,48.3399946 34.8124123,45.1745754 34.8125556,41.2735556 C34.8126249,39.3858536 34.0586106,37.5763379 32.7181197,36.2472393 C31.3776288,34.9181407 29.5617438,34.1795975 27.6741111,34.1957778 Z" id="Shape"></path>
                    <ellipse id="Oval" cx="45.5808889" cy="41.2836667" rx="7.12833333" ry="7.08788889"></ellipse>
                    <path d="M63.4977778,34.1957778 C59.588829,34.1957778 56.42,37.3646068 56.42,41.2735556 C56.42,45.1825043 59.588829,48.3513333 63.4977778,48.3513333 C67.4067265,48.3513333 70.5755556,45.1825043 70.5755556,41.2735556 C70.5755556,37.3646068 67.4067265,34.1957778 63.4977778,34.1957778 Z" id="Shape"></path>
                </g>
            </g>
        </g>
    </g>
</svg>