<?xml version="1.0" encoding="UTF-8"?>
<svg width="81px" height="86px" viewBox="0 0 81 86" version="1.1" xmlns="http://www.w3.org/2000/svg" xmlns:xlink="http://www.w3.org/1999/xlink">
    <!-- Generator: Sketch 59.1 (86144) - https://sketch.com -->
    <title>noun_News feed_1555597</title>
    <desc>Created with Sketch.</desc>
    <g id="Page-1" stroke="none" stroke-width="1" fill="none" fill-rule="evenodd">
        <g id="noun_News-feed_1555597" fill="#B1B1B1" fill-rule="nonzero">
            <path d="M77.1084137,0 L3.7815768,0 C1.69827176,0 0,1.69620374 0,3.7739161 L0,82.2260839 C0,84.3230089 1.69964688,86 3.7815768,86 L37.7057585,86 L56.3633709,86 L77.2184232,86 C79.3017282,86 81,84.3037963 81,82.2260839 L81,3.90154308 C81,1.74972474 79.2467235,0 77.1084137,0 Z M35.7764668,11.2819506 L51.5807076,11.2819506 C53.2886052,11.2819506 54.6733499,12.6638901 54.6733499,14.3683278 C54.6733499,16.0727656 53.2886052,17.454705 51.5807076,17.454705 L35.7764668,17.454705 C34.0685692,17.454705 32.6838245,16.0727656 32.6838245,14.3683278 C32.6838245,12.6638901 34.0685692,11.2819506 35.7764668,11.2819506 Z M11.3942347,14.3697002 C11.3942347,12.6652624 12.7789794,11.283323 14.486877,11.283323 L23.8156831,11.283323 C25.5235807,11.283323 26.9083254,12.6652624 26.9083254,14.3697002 L26.9083254,25.1548662 C26.9083254,26.8593039 25.5235807,28.2412434 23.8156831,28.2412434 L14.486877,28.2412434 C12.7789794,28.2412434 11.3942347,26.8593039 11.3942347,25.1548662 L11.3942347,14.3697002 Z M69.6057653,71.6289275 C69.6057653,73.3333652 68.2210206,74.7153047 66.513123,74.7153047 L14.486877,74.7153047 C12.7789794,74.7153047 11.3942347,73.3333652 11.3942347,71.6289275 L11.3942347,40.8323998 C11.3942347,39.1279621 12.7789794,37.7460226 14.486877,37.7460226 L66.513123,37.7460226 C68.2210206,37.7460226 69.6057653,39.1279621 69.6057653,40.8323998 L69.6057653,71.6289275 L69.6057653,71.6289275 Z M66.513123,28.2467327 L35.7764668,28.2467327 C34.0685692,28.2467327 32.6838245,26.8647933 32.6838245,25.1603555 C32.6838245,23.4559178 34.0685692,22.0739783 35.7764668,22.0739783 L66.513123,22.0739783 C68.2210206,22.0739783 69.6057653,23.4559178 69.6057653,25.1603555 C69.6057653,26.8647933 68.2210206,28.2467327 66.513123,28.2467327 Z" id="Shape"></path>
        </g>
    </g>
</svg>