<?xml version="1.0" encoding="UTF-8"?>
<svg width="32px" height="32px" viewBox="0 0 32 32" version="1.1" xmlns="http://www.w3.org/2000/svg" xmlns:xlink="http://www.w3.org/1999/xlink">
    <!-- Generator: Sketch 51.2 (57519) - http://www.bohemiancoding.com/sketch -->
    <title>Group 4 Copy</title>
    <desc>Created with Sketch.</desc>
    <defs></defs>
    <g id="Page-1" stroke="none" stroke-width="1" fill="none" fill-rule="evenodd">
        <g id="Group-4-Copy" transform="translate(1.000000, 1.000000)" fill-rule="nonzero">
            <circle id="Oval" stroke="#979797" cx="15" cy="15" r="15"></circle>
            <g id="noun_Lock_1910030" transform="translate(8.000000, 6.000000)" fill="#9B9B9B">
                <path d="M14,8.53333333 L14,5.86666667 C14,2.62659613 10.8659932,1.77635684e-16 7,0 C3.13400675,-1.77635684e-16 5.65204449e-16,2.62659613 0,5.86666667 L0,14.4 C0,15.2836556 0.854729114,16 1.90909091,16 L12.0909091,16 C13.1452709,16 14,15.2836556 14,14.4 L14,8.53333333 Z M7,1.06666667 C10.1630854,1.06666667 12.7272727,3.21569987 12.7272727,5.86666667 L12.7272727,7.46666667 L11.4545455,7.46666667 L11.4545455,5.86666667 C11.4545455,3.8048036 9.46017752,2.13333333 7,2.13333333 C4.53982248,2.13333333 2.54545455,3.8048036 2.54545455,5.86666667 L2.54545455,7.46666667 L1.27272727,7.46666667 L1.27272727,5.86666667 C1.27272727,3.21569987 3.83691461,1.06666667 7,1.06666667 Z M3.81818182,7.46666667 L3.81818182,5.86666667 C3.81818182,4.39390733 5.24273034,3.2 7,3.2 C8.75726966,3.2 10.1818182,4.39390733 10.1818182,5.86666667 L10.1818182,7.46666667 L3.81818182,7.46666667 Z M12.7272727,14.4 C12.7272727,14.6945519 12.442363,14.9333333 12.0909091,14.9333333 L1.90909091,14.9333333 C1.55763698,14.9333333 1.27272727,14.6945519 1.27272727,14.4 L1.27272727,8.53333333 L12.7272727,8.53333333 L12.7272727,14.4 Z" id="Shape"></path>
                <path d="M7,10 C6.54692385,10.0052316 6.15234675,10.3510965 6.03472158,10.8461107 C5.9170964,11.3411249 6.10519883,11.8641888 6.49488821,12.1257143 L6.49488821,13.4285714 C6.49488821,13.7441627 6.72103446,14 7,14 C7.27896554,14 7.50511179,13.7441627 7.50511179,13.4285714 L7.50511179,12.1257143 C7.89480117,11.8641888 8.0829036,11.3411249 7.96527842,10.8461107 C7.84765325,10.3510965 7.45307615,10.0052316 7,10 Z" id="Shape"></path>
            </g>
        </g>
    </g>
</svg>