<?xml version="1.0" encoding="UTF-8"?>
<svg width="164px" height="163px" viewBox="0 0 164 163" version="1.1" xmlns="http://www.w3.org/2000/svg" xmlns:xlink="http://www.w3.org/1999/xlink">
    <!-- Generator: Sketch 51.2 (57519) - http://www.bohemiancoding.com/sketch -->
    <title>Group 26</title>
    <desc>Created with Sketch.</desc>
    <defs></defs>
    <g id="Page-1" stroke="none" stroke-width="1" fill="none" fill-rule="evenodd">
        <g id="Desktop-HD" transform="translate(-498.000000, -1507.000000)">
            <g id="Group-26" transform="translate(498.000000, 1507.000000)">
                <path d="M130.925427,44.9481434 C147.975938,61.8552939 160.205516,87.0745374 154.640172,106.98819 C149.110276,126.901842 125.820907,141.545273 101.999818,151.696638 C78.2141767,161.812632 53.8613666,167.436558 37.9097442,158.629277 C21.9581219,149.821996 14.4076873,126.583506 7.70800589,101.894822 C1.04377255,77.1707672 -4.73425954,50.9611467 5.79381121,35.5395617 C16.321882,20.1179767 43.2269517,15.4490564 67.6152098,17.4298105 C92.003468,19.4105645 113.874915,28.0409928 130.925427,44.9481434 Z" id="Shape" fill="#F931FF" fill-rule="nonzero"></path>
                <path d="M150.460161,22.7122104 C165.194113,39.9445744 167.613659,68.1724846 159.127191,89.2983534 C150.640724,110.460273 131.21213,124.520152 109.147314,136.380921 C87.0824987,148.241691 62.3814612,157.8673 44.9390619,150.332647 C27.46055,142.761943 17.2767889,117.994926 12.1849084,92.9034505 C7.09302786,67.8119748 7.12914048,42.3599895 19.5879971,25.632339 C32.0107411,8.94073953 56.8562291,0.937424016 82.785096,0.0722007167 C108.713963,-0.756971612 135.726209,5.47984634 150.460161,22.7122104 Z" id="Shape" fill="#181F21" fill-rule="nonzero"></path>
                <g id="Group-36" transform="translate(47.000000, 34.000000)" stroke="#F931FF">
                    <rect id="Rectangle-10" stroke-width="8" x="0" y="0" width="71" height="77.2647059" rx="1"></rect>
                    <g id="noun_profile_2093505" transform="translate(2.000000, 8.220588)" fill="#F931FF" fill-rule="nonzero">
                        <g id="Group">
                            <path d="M33.5,43.15 C21.43,43.15 11.845,33.565 11.845,21.85 C11.845,10.135 21.43,0.195 33.5,0.195 C45.57,0.195 55.155,9.78 55.155,21.85 C55.155,33.92 45.57,43.15 33.5,43.15 Z M33.5,7.295 C25.335,7.295 18.945,13.685 18.945,21.85 C18.945,30.015 25.335,36.05 33.5,36.05 C41.665,36.05 48.055,29.66 48.055,21.495 C48.055,13.33 41.665,7.295 33.5,7.295 Z" id="Shape"></path>
                            <path d="M62.965,71.905 L4.035,71.905 C1.905,71.905 0.485,70.485 0.485,68.355 C0.485,50.605 15.04,36.05 32.79,36.05 L34.21,36.05 C51.96,36.05 66.515,50.605 66.515,68.355 C66.515,70.485 64.74,71.905 62.965,71.905 Z M7.94,64.805 L59.06,64.805 C57.285,52.735 46.99,43.15 34.21,43.15 L32.79,43.15 C20.01,43.15 9.715,52.735 7.94,64.805 Z" id="Shape"></path>
                        </g>
                    </g>
                </g>
            </g>
        </g>
    </g>
</svg>