<?xml version="1.0" encoding="UTF-8"?>
<svg width="34px" height="34px" viewBox="0 0 34 34" version="1.1" xmlns="http://www.w3.org/2000/svg" xmlns:xlink="http://www.w3.org/1999/xlink">
    <!-- Generator: Sketch 51.3 (57544) - http://www.bohemiancoding.com/sketch -->
    <title>noun_profile_1069814</title>
    <desc>Created with Sketch.</desc>
    <defs></defs>
    <g id="Page-1" stroke="none" stroke-width="1" fill="none" fill-rule="evenodd">
        <g id="noun_profile_1069814" transform="translate(0.000000, 0.003743)" fill="#A0A0A0" fill-rule="nonzero">
            <path d="M17,0 C7.61115925,3.3553407e-16 1.34213628e-15,7.61115925 0,17 C-1.00660221e-15,26.3888407 7.61115925,34 17,34 C26.3888407,34 34,26.3888407 34,17 C34,12.4913197 32.2089337,8.16730315 29.0208153,4.97918472 C25.8326968,1.79106629 21.5086803,1.00660221e-15 17,0 Z M7.63111111,28.5448889 C10.0429232,25.9280929 13.4393953,24.4394684 16.9981111,24.4394684 C20.5568269,24.4394684 23.9532991,25.9280929 26.3651111,28.5448889 C20.9102032,32.9864111 13.0860191,32.9864111 7.63111111,28.5448889 Z M27.9177778,27.0904444 C25.1045549,24.0455726 21.1474247,22.3140922 17.0018889,22.3140922 C12.8563531,22.3140922 8.89922286,24.0455726 6.086,27.0904444 C0.604530504,21.1706772 0.840506824,11.960643 6.61793367,6.3293474 C12.3953605,0.698051753 21.6084173,0.698051753 27.3858441,6.3293474 C33.163271,11.960643 33.3992473,21.1706772 27.9177778,27.0904444 Z" id="Shape"></path>
            <path d="M17,6.37688889 C13.9910864,6.37688928 11.2785209,8.18961711 10.1274127,10.9696371 C8.97630457,13.7496571 9.61339902,16.9493609 11.7415626,19.0764437 C13.8697262,21.2035264 17.0697532,21.8389953 19.8491881,20.686475 C22.628623,19.5339548 24.4399726,16.8204688 24.4384444,13.8115556 C24.4363588,9.70489152 21.1066646,6.37688836 17,6.37688889 Z M17,19.1268889 C14.0670008,19.1268881 11.6891408,16.7495908 11.6884459,13.8165917 C11.6877511,10.8835926 14.0644844,8.50516883 16.9974833,8.50377837 C19.9304821,8.50238792 22.3094695,10.8785571 22.3115556,13.8115556 C22.3094752,16.7447964 19.9332386,19.1227231 17,19.1268889 Z" id="Shape"></path>
        </g>
    </g>
</svg>