<?xml version="1.0" encoding="UTF-8"?>
<svg width="641px" height="460px" viewBox="0 0 641 460" version="1.1" xmlns="http://www.w3.org/2000/svg" xmlns:xlink="http://www.w3.org/1999/xlink">
    <!-- Generator: Sketch 51.3 (57544) - http://www.bohemiancoding.com/sketch -->
    <title>Shape-path</title>
    <desc>Created with Sketch.</desc>
    <defs></defs>
    <g id="Page-1" stroke="none" stroke-width="1" fill="none" fill-rule="evenodd">
        <path d="M256.7976,430.81766 C272.4437,415.18266 285.245,401.76986 285.245,401.01146 C285.245,400.25296 286.37,398.61436 287.745,397.36996 C289.12,396.12566 290.245,394.21256 290.245,393.11866 C290.245,392.02486 263.9504,364.83076 231.8125,332.68746 L173.38,274.24496 L406.81254,274.24496 L640.24505,274.24496 L640.24505,229.24496 L640.24505,184.24499 L406.81254,184.24499 L173.38,184.24499 L231.8125,125.80255 C266.5641,91.04506 290.245,66.42754 290.245,65.05899 C290.245,62.64109 229.5916,0.49499 227.2318,0.49499 C226.5007,0.49499 175.1296,51.25638 113.0738,113.29808 C23.5057,202.84578 0.245,226.74686 0.245,229.23306 C0.245,231.71906 23.6344,255.75536 113.68,345.80496 C176.0692,408.19696 227.3928,459.24496 227.7325,459.24496 C228.0722,459.24496 241.1515,446.45266 256.7976,430.81766 Z" id="Shape-path" fill="#000000" fill-rule="nonzero"></path>
    </g>
</svg>