<?xml version="1.0" encoding="UTF-8"?>
<svg width="34px" height="35px" viewBox="0 0 34 35" version="1.1" xmlns="http://www.w3.org/2000/svg" xmlns:xlink="http://www.w3.org/1999/xlink">
    <!-- Generator: Sketch 51.3 (57544) - http://www.bohemiancoding.com/sketch -->
    <title>noun_Flag_1069792</title>
    <desc>Created with Sketch.</desc>
    <defs></defs>
    <g id="Page-1" stroke="none" stroke-width="1" fill="none" fill-rule="evenodd">
        <g id="noun_Flag_1069792" transform="translate(0.000000, 0.626374)" fill="#A0A0A0" fill-rule="nonzero">
            <path d="M32.9687912,4.10989011 C32.3305062,3.7303022 31.5391913,3.71609547 30.8876923,4.07252747 C30.2147651,4.44347522 29.494549,4.7212549 28.7468132,4.89824176 C28.0315275,5.06448068 27.2991682,5.14599327 26.5648352,5.1410989 C24.4202198,5.1410989 22.1934066,4.53208791 19.8395604,3.88945055 C17.3213187,3.20197802 14.7134066,2.48835165 11.9934066,2.48835165 C10.1605898,2.47052095 8.3447779,2.84106883 6.66549451,3.5756044 L6.66549451,3.53824176 C6.74864248,2.3627147 6.1693861,1.23891947 5.16368612,0.624635343 C4.15798614,0.0103512131 2.89368847,0.0080989013 1.88580621,0.618795889 C0.877923961,1.22949288 0.294667252,2.35121712 0.373626374,3.52703297 L0.373626374,31.9002198 C0.373625491,32.4577641 0.595364508,32.9924184 0.989958142,33.3863111 C1.38455177,33.7802039 1.91959945,34.0009921 2.47714286,34 L4.58065934,34 C5.13820275,34.0009921 5.67325042,33.7802039 6.06784406,33.3863111 C6.46243769,32.9924184 6.68417671,32.4577641 6.68417582,31.9002198 L6.68417582,25.3430769 C7.03675056,25.3431989 7.38367995,25.2545392 7.69296703,25.0852747 C8.36589422,24.714327 9.08611032,24.4365473 9.83384615,24.2595604 C10.5490966,24.0931161 11.2814803,24.0116008 12.0158242,24.0167033 C14.1604396,24.0167033 16.3872527,24.6257143 18.7410989,25.2683516 C21.2593407,25.9558242 23.8672527,26.6694505 26.5872527,26.6694505 C28.8055543,26.697098 30.9934049,26.1514224 32.9389011,25.0852747 C33.6002246,24.708899 34.0061787,24.004197 34,23.2432967 L34,5.9032967 C33.9950235,5.16589238 33.6035935,4.48514456 32.9687912,4.10989011 Z M4.57318681,31.9114286 L2.47714286,31.9114286 L2.47714286,3.52703297 C2.47714286,2.94616293 2.94803106,2.47527473 3.5289011,2.47527473 C4.10977114,2.47527473 4.58065934,2.94616293 4.58065934,3.52703297 L4.57318681,31.9114286 Z M31.9002198,23.2432967 C30.2675815,24.1355224 28.4327006,24.5923125 26.5723077,24.5696703 C21.7151648,24.5696703 16.858022,21.9169231 12.0008791,21.9169231 C10.1404862,21.8942809 8.30560529,22.351071 6.67296703,23.2432967 L6.67296703,5.9032967 C8.30560529,5.01107104 10.1404862,4.5542809 12.0008791,4.57692308 C16.858022,4.57692308 21.7151648,7.22967033 26.5723077,7.22967033 C28.4327006,7.2523125 30.2675815,6.79552236 31.9002198,5.9032967 L31.9002198,23.2432967 Z" id="Shape"></path>
        </g>
    </g>
</svg>