<?xml version="1.0" encoding="UTF-8"?>
<svg width="48px" height="69px" viewBox="0 0 48 69" version="1.1" xmlns="http://www.w3.org/2000/svg" xmlns:xlink="http://www.w3.org/1999/xlink">
    <!-- Generator: Sketch 51.3 (57544) - http://www.bohemiancoding.com/sketch -->
    <title>Save</title>
    <desc>Created with Sketch.</desc>
    <defs></defs>
    <g id="Page-1" stroke="none" stroke-width="1" fill="none" fill-rule="evenodd">
        <g id="Save" fill="#7D7D7D" fill-rule="nonzero">
            <path d="M26.4193357,19.2693719 L42.7609222,35.4246428 C46.5183877,39.1953393 40.8816913,44.8518838 37.1242259,41.0811874 L30.1055704,34.0370495 C28.929659,32.8568687 27.9861417,33.2526181 27.9861417,34.9089129 L27.9861417,64.250322 C27.9861417,66.4601441 26.2015698,68.25 24.0004982,68.25 C21.7984302,68.25 20.0148547,66.4601441 20.0148547,64.250322 L20.0148547,34.9089129 C20.0148547,33.2583784 19.0658507,32.8622715 17.8951949,34.0370495 L10.8757741,41.0811874 C7.1183087,44.8518838 1.4816123,39.1953393 5.2390778,35.4246428 L21.4464441,19.2789807 C22.8150957,17.9155397 25.0435292,17.9092513 26.4193357,19.2693719 Z M4,8 C1.790861,8 3.55271368e-15,6.209139 3.55271368e-15,4 C3.55271368e-15,1.790861 1.790861,-7.10542736e-15 4,-7.10542736e-15 L44,-7.10542736e-15 C46.209139,-7.10542736e-15 48,1.790861 48,4 C48,6.209139 46.209139,8 44,8 L4,8 Z" id="Shape" transform="translate(24.000000, 34.125000) rotate(-180.000000) translate(-24.000000, -34.125000) "></path>
        </g>
    </g>
</svg>