<?xml version="1.0" encoding="UTF-8"?>
<svg width="59px" height="59px" viewBox="0 0 59 59" version="1.1" xmlns="http://www.w3.org/2000/svg" xmlns:xlink="http://www.w3.org/1999/xlink">
    <!-- Generator: Sketch 52.5 (67469) - http://www.bohemiancoding.com/sketch -->
    <title>Group</title>
    <desc>Created with Sketch.</desc>
    <g id="Page-1" stroke="none" stroke-width="1" fill="none" fill-rule="evenodd">
        <g id="Group" fill-rule="nonzero">
            <circle id="Oval" fill="#1168DF" cx="29.5" cy="29.5" r="29.5"></circle>
            <path d="M27.744928,45.6534931 L16.8277776,34.5535681 C14.3175674,31.9628069 18.0832154,28.0763218 20.5934255,30.6670829 L25.2823043,35.5069524 C26.0678829,36.3178282 26.6982085,36.0459176 26.6982085,34.9079146 L26.6982085,14.7480892 C26.6982085,13.2297699 27.8904086,12 29.3608551,12 C30.8319673,12 32.0235017,13.2297699 32.0235017,14.7480892 L32.0235017,34.9079146 C32.0235017,36.0419599 32.6574928,36.314116 33.4395604,35.5069524 L38.1289504,30.6670829 C40.6391605,28.0763218 44.4048085,31.9628069 41.8945983,34.5535681 L31.067115,45.6468911 C30.1527744,46.5836809 28.6640485,46.5880015 27.744928,45.6534931 Z" id="Shape-path-Copy" fill="#FFFFFF"></path>
        </g>
    </g>
</svg>