<?xml version="1.0" encoding="UTF-8"?>
<svg width="35px" height="35px" viewBox="0 0 35 35" version="1.1" xmlns="http://www.w3.org/2000/svg" xmlns:xlink="http://www.w3.org/1999/xlink">
    <!-- Generator: Sketch 51.3 (57544) - http://www.bohemiancoding.com/sketch -->
    <title>noun_building_1192322</title>
    <desc>Created with Sketch.</desc>
    <defs></defs>
    <g id="Page-1" stroke="none" stroke-width="1" fill="none" fill-rule="evenodd">
        <g id="noun_building_1192322" fill="#A0A0A0" fill-rule="nonzero">
            <g id="Group">
                <path d="M31.0625,13.5625 L3.9375,13.5625 L17.5,0 L31.0625,13.5625 Z M10.7916667,10.6458333 L24.0625,10.6458333 L17.5,4.08333333 L10.7916667,10.6458333 Z" id="Shape"></path>
                <polygon id="Shape" points="27.5625 33.5416667 24.6458333 33.5416667 24.6458333 13.5625 10.3541667 13.5625 10.3541667 33.5416667 7.4375 33.5416667 7.4375 10.6458333 27.5625 10.6458333"></polygon>
                <rect id="Rectangle-path" x="0.291666667" y="32.0833333" width="34.2708333" height="2.91666667"></rect>
                <rect id="Rectangle-path" x="26.1041667" y="23.625" width="8.60416667" height="2.91666667"></rect>
                <rect id="Rectangle-path" x="0.291666667" y="23.625" width="8.60416667" height="2.91666667"></rect>
                <rect id="Rectangle-path" x="30.3333333" y="24.9375" width="2.91666667" height="8.60416667"></rect>
                <rect id="Rectangle-path" x="1.75" y="24.9375" width="2.91666667" height="8.60416667"></rect>
                <rect id="Rectangle-path" x="13.2708333" y="12.1041667" width="2.91666667" height="21.4375"></rect>
                <rect id="Rectangle-path" x="18.9583333" y="12.1041667" width="2.91666667" height="21.4375"></rect>
            </g>
        </g>
    </g>
</svg>