<?xml version="1.0" encoding="UTF-8"?>
<svg width="69px" height="69px" viewBox="0 0 69 69" version="1.1" xmlns="http://www.w3.org/2000/svg" xmlns:xlink="http://www.w3.org/1999/xlink">
    <!-- Generator: Sketch 58 (84663) - https://sketch.com -->
    <title>Group</title>
    <desc>Created with Sketch.</desc>
    <g id="Page-1" stroke="none" stroke-width="1" fill="none" fill-rule="evenodd">
        <g id="Group" transform="translate(0.000000, 0.000000)" fill="#3F3F3F">
            <path d="M28.5,0 C44.2401154,0 57,12.7598846 57,28.5 C57,44.2401154 44.2401154,57 28.5,57 C12.7598846,57 0,44.2401154 0,28.5 C0,12.7598846 12.7598846,0 28.5,0 Z M28.5,6.5 C16.0735931,6.5 6,16.3497355 6,28.5 C6,40.6502645 16.0735931,50.5 28.5,50.5 C40.9264069,50.5 51,40.6502645 51,28.5 C51,16.3497355 40.9264069,6.5 28.5,6.5 Z" id="Combined-Shape"></path>
            <path d="M47.5,47.5 L66.5,66.5" id="Line" stroke="#3F3F3F" stroke-width="6"></path>
        </g>
    </g>
</svg>