<?xml version="1.0" encoding="UTF-8"?>
<svg width="67px" height="67px" viewBox="0 0 67 67" version="1.1" xmlns="http://www.w3.org/2000/svg" xmlns:xlink="http://www.w3.org/1999/xlink">
    <!-- Generator: Sketch 51.1 (57501) - http://www.bohemiancoding.com/sketch -->
    <title>noun_Search_1318794</title>
    <desc>Created with Sketch.</desc>
    <defs></defs>
    <g id="Page-1" stroke="none" stroke-width="1" fill="none" fill-rule="evenodd">
        <g id="noun_Search_1318794" fill="#3F3F3F" fill-rule="nonzero">
            <path d="M49.9,47.1 C54.2,42.2 56.8,35.7 56.8,28.7 C56.8,13.2 44.2,0.6 28.7,0.6 C13.2,0.6 0.5,13.1 0.5,28.6 C0.5,44.1 13.1,56.7 28.6,56.7 C35.6,56.7 42.1,54.1 47,49.8 L64,66.8 L66.8,64 L49.9,47.1 Z M28.6,52.8 C15.3,52.8 4.5,42 4.5,28.7 C4.5,15.4 15.3,4.6 28.6,4.6 C41.9,4.6 52.7,15.4 52.7,28.7 C52.7,42 41.9,52.8 28.6,52.8 Z" id="Shape"></path>
        </g>
    </g>
</svg>