<?xml version="1.0" encoding="UTF-8"?>
<svg width="641px" height="459px" viewBox="0 0 641 459" version="1.1" xmlns="http://www.w3.org/2000/svg" xmlns:xlink="http://www.w3.org/1999/xlink">
    <!-- Generator: Sketch 51.3 (57544) - http://www.bohemiancoding.com/sketch -->
    <title>Shape</title>
    <desc>Created with Sketch.</desc>
    <defs></defs>
    <g id="Page-1" stroke="none" stroke-width="1" fill="none" fill-rule="evenodd">
        <g id="Send" transform="translate(0.000000, -1.000000)" fill="#7D7D7D" fill-rule="nonzero">
            <path d="M526.80499,346.31006 C616.95621,256.16296 640.24505,232.23116 640.24505,229.73816 C640.24505,227.24516 617.08269,203.44406 527.4163,113.79806 C465.36049,51.75636 413.98939,0.99496 413.2583,0.99496 C410.89849,0.99496 350.24505,63.14106 350.24505,65.55896 C350.24505,66.92756 373.92597,91.54506 408.67756,126.30256 L467.11008,184.74496 L233.6776,184.74496 L0.245,184.74496 L0.245,229.74496 L0.245,274.74496 L233.6776,274.74496 L467.11008,274.74496 L408.67756,333.18746 C376.53967,365.33076 350.24505,392.52486 350.24505,393.61866 C350.24505,394.71256 351.37005,396.62566 352.74505,397.86996 C354.12005,399.11436 355.24505,400.74396 355.24505,401.49126 C355.24505,402.79906 411.44165,459.74496 412.7323,459.74496 C413.08024,459.74496 464.41295,408.69926 526.80499,346.31006 Z" id="Shape"></path>
        </g>
    </g>
</svg>