<?xml version="1.0" encoding="UTF-8"?>
<svg width="1493px" height="1493px" viewBox="0 0 1493 1493" version="1.1" xmlns="http://www.w3.org/2000/svg" xmlns:xlink="http://www.w3.org/1999/xlink">
    <!-- Generator: Sketch 57.1 (83088) - https://sketch.com -->
    <title>Combined Shape</title>
    <desc>Created with Sketch.</desc>
    <g id="Page-1" stroke="none" stroke-width="1" fill="none" fill-rule="evenodd">
        <path d="M746.5,0 C1158.78057,0 1493,334.219434 1493,746.5 C1493,1158.78057 1158.78057,1493 746.5,1493 C334.219434,1493 0,1158.78057 0,746.5 C0,334.219434 334.219434,0 746.5,0 Z M594,415.271223 C544.294373,415.271223 504,455.565595 504,505.271223 L504,505.271223 L504,988.728777 C504,1004.07855 507.925908,1019.17325 515.404517,1032.57795 C539.621748,1075.98504 594.442088,1091.54149 637.849175,1067.32426 L637.849175,1067.32426 L1071.12506,825.595483 C1085.70598,817.460647 1097.73653,805.430094 1105.87137,790.849175 C1130.0886,747.442088 1114.53215,692.621748 1071.12506,668.404517 L1071.12506,668.404517 L637.849175,426.67574 C624.444477,419.19713 609.349773,415.271223 594,415.271223 Z" id="Combined-Shape" fill="#000000"></path>
    </g>
</svg>