<?xml version="1.0" encoding="UTF-8"?>
<svg width="52px" height="52px" viewBox="0 0 52 52" version="1.1" xmlns="http://www.w3.org/2000/svg" xmlns:xlink="http://www.w3.org/1999/xlink">
    <!-- Generator: Sketch 62 (91390) - https://sketch.com -->
    <title>Settings</title>
    <desc>Created with Sketch.</desc>
    <g id="Page-1" stroke="none" stroke-width="1" fill="none" fill-rule="evenodd">
        <g id="Settings" fill="#A0A0A0" fill-rule="nonzero">
            <path d="M49.64,5.376 L45.627,5.376 L45.627,1.5 C45.627,0.671 44.955,0 44.127,0 C43.299,0 42.627,0.671 42.627,1.5 L42.627,5.376 L38.626,5.376 C37.799,5.376 37.128,6.046 37.126,6.873 L37.1129906,13.061 C37.112,13.459 37.27,13.842 37.551,14.124 C37.832,14.406 38.214,14.564 38.6129906,14.564 L38.614,14.564 L42.627,14.561 L42.627,50.5 C42.627,51.329 43.299,52 44.127,52 C44.955,52 45.627,51.329 45.627,50.5 L45.627,14.559 L49.641,14.556 C50.469,14.556 51.14,13.884 51.14,13.056 L51.14,6.876 C51.14,6.048 50.468,5.376 49.64,5.376 Z M48.14,11.557 L40.117,11.562 L40.124,8.375 L48.141,8.375 L48.141,11.557 L48.14,11.557 Z" id="Shape"></path>
            <path d="M14.873,31.65 C14.873,30.821 14.201,30.15 13.373,30.15 L9.367,30.15 L9.367,1.5 C9.367,0.671 8.695,0 7.867,0 C7.039,0 6.367,0.671 6.367,1.5 L6.367,30.15 L2.36,30.15 C1.532,30.15 0.86,30.821 0.86,31.65 L0.86,37.83 C0.86,38.659 1.532,39.33 2.36,39.33 L6.367,39.33 L6.367,50.5 C6.367,51.329 7.039,52 7.867,52 C8.695,52 9.367,51.329 9.367,50.5 L9.367,39.33 L13.374,39.33 C13.381,39.33 13.389,39.33 13.394,39.33 C14.223,39.33 14.894,38.659 14.894,37.83 C14.894,37.747 14.887,37.664 14.874,37.584 L14.873,31.65 Z M3.86,36.33 L3.86,33.15 L11.873,33.15 L11.874,36.33 L3.86,36.33 Z" id="Shape"></path>
            <path d="M31.51,17.031 L31.51,17.031 L27.497,17.034 L27.497,1.5 C27.497,0.671 26.825,0 25.997,0 C25.169,0 24.497,0.671 24.497,1.5 L24.497,17.036 L20.482,17.039 C19.654,17.039 18.983,17.711 18.983,18.539 L18.983,24.719 C18.983,25.548 19.655,26.219 20.483,26.219 L24.497,26.219 L24.497,50.5 C24.497,51.329 25.169,52 25.997,52 C26.825,52 27.497,51.329 27.497,50.5 L27.497,26.218 L31.497,26.218 C32.324,26.218 32.995,25.548 32.997,24.721 L33.0100094,18.534 C33.011,18.136 32.853,17.753 32.572,17.471 C32.29,17.19 31.908,17.031 31.51,17.031 Z M30,23.218 L21.983,23.218 L21.983,20.037 L30.006,20.032 L30,23.218 Z" id="Shape"></path>
        </g>
    </g>
</svg>