<?xml version="1.0" encoding="UTF-8"?>
<svg width="34px" height="26px" viewBox="0 0 34 26" version="1.1" xmlns="http://www.w3.org/2000/svg" xmlns:xlink="http://www.w3.org/1999/xlink">
    <!-- Generator: Sketch 51.3 (57544) - http://www.bohemiancoding.com/sketch -->
    <title>noun_export_1069797</title>
    <desc>Created with Sketch.</desc>
    <defs></defs>
    <g id="Page-1" stroke="none" stroke-width="1" fill="none" fill-rule="evenodd">
        <g id="noun_export_1069797" transform="translate(17.000000, 13.300446) rotate(-90.000000) translate(-17.000000, -13.300446) translate(4.296703, -3.699554)" fill="#A0A0A0" fill-rule="nonzero">
            <path d="M23.2134066,12.6098901 L17.9340659,12.6098901 L17.9340659,14.7134066 L23.2134066,14.7134066 L23.2134066,31.5265934 L2.19692308,31.5265934 L2.19692308,14.7134066 L7.42769231,14.7134066 L7.42769231,12.6098901 L2.19692308,12.6098901 C1.03664237,12.611951 0.0971410269,13.5531241 0.0971428571,14.7134066 L0.0971428571,31.5265934 C0.0991993371,32.6854171 1.03809937,33.6243171 2.19692308,33.6263736 L23.2134066,33.6263736 C24.3736891,33.6263755 25.3148622,32.6868741 25.3169231,31.5265934 L25.3169231,14.7134066 C25.3169231,13.5516665 24.3751467,12.6098901 23.2134066,12.6098901 Z" id="Shape"></path>
            <path d="M7.12879121,7.58461538 C7.22767695,7.6840948 7.36215161,7.74003193 7.50241758,7.74003193 C7.64268356,7.74003193 7.77715822,7.6840948 7.87604396,7.58461538 L11.6534066,3.80351648 L11.6534066,22.5931868 C11.6534066,22.8841377 11.8892689,23.12 12.1802198,23.12 L13.2301099,23.12 C13.5210608,23.12 13.7569231,22.8841377 13.7569231,22.5931868 L13.7569231,3.80351648 L17.5342857,7.58461538 C17.6331715,7.6840948 17.7676461,7.74003193 17.9079121,7.74003193 C18.0481781,7.74003193 18.1826527,7.6840948 18.2815385,7.58461538 L19.0287912,6.83736264 C19.1282706,6.7384769 19.1842078,6.60400224 19.1842078,6.46373626 C19.1842078,6.32347029 19.1282706,6.18899563 19.0287912,6.09010989 L13.0769231,0.153186813 L13.0395604,0.11956044 L13.0096703,0.0971428571 L12.9685714,0.0747252747 L12.9274725,0.056043956 L12.8863736,0.056043956 L12.849011,0.056043956 L12.8116484,0.056043956 L12.6846154,0.056043956 L12.6472527,0.056043956 L12.6098901,0.056043956 L12.5687912,0.056043956 L12.5276923,0.0747252747 L12.4865934,0.0971428571 L12.4567033,0.11956044 L12.4193407,0.153186813 L6.38901099,6.09758242 C6.28953158,6.19646816 6.23359445,6.33094282 6.23359445,6.47120879 C6.23359445,6.61147476 6.28953158,6.74594943 6.38901099,6.84483516 L7.12879121,7.58461538 Z" id="Shape"></path>
        </g>
    </g>
</svg>