<?xml version="1.0" encoding="UTF-8"?>
<svg width="164px" height="163px" viewBox="0 0 164 163" version="1.1" xmlns="http://www.w3.org/2000/svg" xmlns:xlink="http://www.w3.org/1999/xlink">
    <!-- Generator: Sketch 51.2 (57519) - http://www.bohemiancoding.com/sketch -->
    <title>Group 39</title>
    <desc>Created with Sketch.</desc>
    <defs></defs>
    <g id="Page-1" stroke="none" stroke-width="1" fill="none" fill-rule="evenodd">
        <g id="Desktop-HD" transform="translate(-1062.000000, -1507.000000)" fill-rule="nonzero">
            <g id="Group-39" transform="translate(1062.000000, 1507.000000)">
                <g id="Group-32">
                    <path d="M130.925427,44.9481434 C147.975938,61.8552939 160.205516,87.0745374 154.640172,106.98819 C149.110276,126.901842 125.820907,141.545273 101.999818,151.696638 C78.2141767,161.812632 53.8613666,167.436558 37.9097442,158.629277 C21.9581219,149.821996 14.4076873,126.583506 7.70800589,101.894822 C1.04377255,77.1707672 -4.73425954,50.9611467 5.79381121,35.5395617 C16.321882,20.1179767 43.2269517,15.4490564 67.6152098,17.4298105 C92.003468,19.4105645 113.874915,28.0409928 130.925427,44.9481434 Z" id="Shape" fill="#FEFE2F"></path>
                    <path d="M150.460161,22.7122104 C165.194113,39.9445744 167.613659,68.1724846 159.127191,89.2983534 C150.640724,110.460273 131.21213,124.520152 109.147314,136.380921 C87.0824987,148.241691 62.3814612,157.8673 44.9390619,150.332647 C27.46055,142.761943 17.2767889,117.994926 12.1849084,92.9034505 C7.09302786,67.8119748 7.12914048,42.3599895 19.5879971,25.632339 C32.0107411,8.94073953 56.8562291,0.937424016 82.785096,0.0722007167 C108.713963,-0.756971612 135.726209,5.47984634 150.460161,22.7122104 Z" id="Shape" fill="#181F21"></path>
                </g>
                <g id="noun_safe_1636718" transform="translate(43.000000, 31.000000)" fill="#FEFE2F">
                    <g id="Group">
                        <path d="M41,52.9583333 C49.4733709,52.9583333 56.375,46.0565999 56.375,37.5833333 C56.375,29.1100668 49.4733709,22.2083333 41,22.2083333 C32.5266291,22.2083333 25.625,29.1100668 25.625,37.5833333 C25.625,46.0565999 32.5266291,52.9583333 41,52.9583333 Z M41,30.75 C44.7754543,30.75 47.8333333,33.8079835 47.8333333,37.5833333 C47.8333333,41.3420003 44.7754543,44.4166667 41,44.4166667 C37.2245458,44.4166667 34.1666667,41.3420003 34.1666667,37.5833333 C34.1666667,33.8079835 37.2245458,30.75 41,30.75 Z" id="Shape" stroke="#FEFE2F"></path>
                        <path d="M73.4241334,0 L8.57586665,0 C3.84375,0 0,3.84375 0,8.57586665 L0,66.5907999 C0,71.3058166 3.82664993,75.1495666 8.54166667,75.1666667 L8.54166667,82 L22.2083333,82 L22.2083333,75.1666667 L61.5,75.1666667 L61.5,82 L75.1666667,82 L75.1666667,74.9789835 C79.0617167,74.1756999 82,70.7081502 82,66.5907999 L82,8.57586665 C82,3.84375 78.15625,0 73.4241334,0 Z M73.4583333,66.625 L13.6666667,66.625 L13.6666667,59.7916667 L8.54166667,59.7916667 L8.54166667,46.125 L13.6666667,46.125 L13.6666667,32.4583333 L8.54166667,32.4583333 L8.54166667,18.7916667 L13.6666667,18.7916667 L13.6666667,8.54166667 L73.4583333,8.54166667 L73.4583333,66.625 Z" id="Shape"></path>
                    </g>
                </g>
            </g>
        </g>
    </g>
</svg>