<?xml version="1.0" encoding="UTF-8"?>
<svg width="128px" height="102px" viewBox="0 0 128 102" version="1.1" xmlns="http://www.w3.org/2000/svg" xmlns:xlink="http://www.w3.org/1999/xlink">
    <!-- Generator: Sketch 51.3 (57544) - http://www.bohemiancoding.com/sketch -->
    <title>noun_switch_1892499</title>
    <desc>Created with Sketch.</desc>
    <defs></defs>
    <g id="Page-1" stroke="none" stroke-width="1" fill="none" fill-rule="evenodd">
        <g id="noun_switch_1892499" fill="#006ECC" fill-rule="nonzero">
            <path d="M111.33,65.48 C109.767034,63.9170342 107.232966,63.9170342 105.67,65.48 C104.107034,67.0429658 104.107034,69.5770342 105.67,71.14 L113.54,79 L101.54,79 C96.9857641,79.0177972 92.6125778,77.218132 89.39,74 L72.12,56.66 L66.46,62.31 L83.78,79.63 C88.490486,84.3659846 94.900342,87.0199531 101.58,87 L113.58,87 L105.71,94.86 C104.698938,95.8710616 104.304074,97.344716 104.674148,98.7258519 C105.044222,100.106988 106.123012,101.185778 107.504148,101.555852 C108.885284,101.925926 110.358938,101.531062 111.37,100.52 L126,85.83 C126.751108,85.079727 127.173147,84.061637 127.173147,83 C127.173147,81.938363 126.751108,80.920273 126,80.17 L111.33,65.48 Z" id="Shape"></path>
            <path d="M101.58,23 L113.58,23 L105.71,30.86 C104.147034,32.4229658 104.147034,34.9570342 105.71,36.52 C107.272966,38.0829658 109.807034,38.0829658 111.37,36.52 L126,21.83 C126.751108,21.079727 127.173147,20.061637 127.173147,19 C127.173147,17.938363 126.751108,16.920273 126,16.17 L111.33,1.48 C109.767034,-0.0829657368 107.232966,-0.0829656869 105.67,1.48000011 C104.107034,3.04296591 104.107034,5.57703414 105.67,7.14 L113.54,15 L101.54,15 C94.860342,14.9800469 88.450486,17.6340154 83.74,22.37 L60.74,45.37 L55.15,51 L32.15,74 C28.9293059,77.2209591 24.5548877,79.0211312 20,79 L4.81,79 C2.600861,79 0.81,80.790861 0.81,83 C0.81,85.209139 2.600861,87 4.81,87 L20,87 C26.679658,87.0199531 33.089514,84.3659846 37.8,79.63 L60.8,56.63 L66.46,51 L89.46,28 C92.675235,24.7892489 97.0361511,22.9901911 101.58,23 Z" id="Shape"></path>
            <path d="M4.81,23 L20,23 C24.5514263,22.9815397 28.92175,24.7815083 32.14,28 L49.49,45.34 L55.15,39.69 L37.84,22.37 C33.119758,17.6241258 26.6935092,14.9693359 20,15 L4.81,15 C2.600861,15 0.81,16.790861 0.81,19 C0.81,21.209139 2.600861,23 4.81,23 Z" id="Shape"></path>
        </g>
    </g>
</svg>