<?xml version="1.0" encoding="UTF-8"?>
<svg width="930px" height="289px" viewBox="0 0 930 289" version="1.1" xmlns="http://www.w3.org/2000/svg" xmlns:xlink="http://www.w3.org/1999/xlink">
    <!-- Generator: Sketch 52.5 (67469) - http://www.bohemiancoding.com/sketch -->
    <title>ThreeBoxLogoBlue</title>
    <desc>Created with Sketch.</desc>
    <defs>
        <path d="M19.491,264 L19.491,70.959 L86.1075,70.959 C98.7455632,70.959 109.536705,72.160488 118.48125,74.5635 C127.425795,76.966512 134.768221,80.3929777 140.50875,84.843 C146.249279,89.2930222 150.454487,94.6774684 153.1245,100.9965 C155.794513,107.315532 157.1295,114.43546 157.1295,122.3565 C157.1295,126.895523 156.462007,131.234229 155.127,135.37275 C153.791993,139.511271 151.722764,143.382732 148.91925,146.98725 C146.115736,150.591768 142.555772,153.862485 138.23925,156.7995 C133.922728,159.736515 128.78303,162.22849 122.82,164.2755 C149.342133,170.23853 162.603,184.567387 162.603,207.2625 C162.603,215.450541 161.045516,223.015465 157.9305,229.9575 C154.815484,236.899535 150.27653,242.884725 144.3135,247.91325 C138.35047,252.941775 131.008044,256.879986 122.286,259.728 C113.563956,262.576014 103.596056,264 92.382,264 L19.491,264 Z M55.4025,179.361 L55.4025,235.965 L91.848,235.965 C98.5230334,235.965 104.107728,235.164008 108.60225,233.562 C113.096772,231.959992 116.701236,229.824013 119.41575,227.154 C122.130264,224.483987 124.088244,221.369018 125.28975,217.809 C126.491256,214.248982 127.092,210.46652 127.092,206.4615 C127.092,202.278479 126.424507,198.518267 125.0895,195.18075 C123.754493,191.843233 121.663014,188.995262 118.815,186.63675 C115.966986,184.278238 112.318022,182.476006 107.868,181.23 C103.417978,179.983994 98.0335316,179.361 91.7145,179.361 L55.4025,179.361 Z M55.4025,154.53 L84.105,154.53 C96.298061,154.53 105.553968,152.305022 111.873,147.855 C118.192032,143.404978 121.3515,136.329549 121.3515,126.6285 C121.3515,116.57145 118.503528,109.407021 112.8075,105.135 C107.111472,100.862979 98.2115605,98.727 86.1075,98.727 L55.4025,98.727 L55.4025,154.53 Z M378.606,167.4795 C378.606,181.630571 376.247524,194.73569 371.5305,206.79525 C366.813476,218.85481 360.183043,229.289956 351.639,238.101 C343.094957,246.912044 332.81556,253.787225 320.8005,258.72675 C308.78544,263.666275 295.480073,266.136 280.884,266.136 C266.287927,266.136 252.96031,263.666275 240.90075,258.72675 C228.84119,253.787225 218.517293,246.912044 209.92875,238.101 C201.340207,229.289956 194.687524,218.85481 189.9705,206.79525 C185.253476,194.73569 182.895,181.630571 182.895,167.4795 C182.895,153.328429 185.253476,140.22331 189.9705,128.16375 C194.687524,116.10419 201.340207,105.669044 209.92875,96.858 C218.517293,88.0469559 228.84119,81.1717747 240.90075,76.23225 C252.96031,71.2927253 266.287927,68.823 280.884,68.823 C295.480073,68.823 308.78544,71.3149751 320.8005,76.299 C332.81556,81.2830249 343.094957,88.1582062 351.639,96.92475 C360.183043,105.691294 366.813476,116.10419 371.5305,128.16375 C376.247524,140.22331 378.606,153.328429 378.606,167.4795 Z M341.76,167.4795 C341.76,156.888447 340.358264,147.387792 337.55475,138.97725 C334.751236,130.566708 330.724026,123.424529 325.473,117.5505 C320.221974,111.676471 313.836288,107.182016 306.31575,104.067 C298.795212,100.951984 290.318047,99.3945 280.884,99.3945 C271.449953,99.3945 262.950538,100.951984 255.3855,104.067 C247.820462,107.182016 241.390276,111.676471 236.09475,117.5505 C230.799224,123.424529 226.727514,130.566708 223.8795,138.97725 C221.031486,147.387792 219.6075,156.888447 219.6075,167.4795 C219.6075,178.070553 221.031486,187.571208 223.8795,195.98175 C226.727514,204.392292 230.799224,211.512221 236.09475,217.34175 C241.390276,223.171279 247.820462,227.643484 255.3855,230.7585 C262.950538,233.873516 271.449953,235.431 280.884,235.431 C290.318047,235.431 298.795212,233.873516 306.31575,230.7585 C313.836288,227.643484 320.221974,223.171279 325.473,217.34175 C330.724026,211.512221 334.751236,204.392292 337.55475,195.98175 C340.358264,187.571208 341.76,178.070553 341.76,167.4795 Z M449.2275,164.676 L387.684,70.959 L423.462,70.959 C425.954012,70.959 427.756244,71.2927467 428.86875,71.96025 C429.981256,72.6277533 430.982496,73.7179924 431.8725,75.231 L475.794,146.1195 C476.239002,144.962494 476.728497,143.827756 477.2625,142.71525 C477.796503,141.602744 478.419496,140.468006 479.1315,139.311 L519.315,75.8985 C521.27301,72.6054835 523.809484,70.959 526.9245,70.959 L561.3675,70.959 L499.1565,163.2075 L563.103,264 L527.1915,264 C524.788488,264 522.852757,263.377006 521.38425,262.131 C519.915743,260.884994 518.692005,259.461008 517.713,257.859 L472.9905,183.9 C472.634498,184.968005 472.234002,185.969245 471.789,186.90375 C471.343998,187.838255 470.899002,188.705996 470.454,189.507 L427.6005,257.859 C426.621495,259.372008 425.420007,260.773744 423.996,262.06425 C422.571993,263.354756 420.792011,264 418.656,264 L385.014,264 L449.2275,164.676 Z" id="path-1"></path>
    </defs>
    <g id="Page-1" stroke="none" stroke-width="1" fill="none" fill-rule="evenodd">
        <g id="ThreeBoxLogoBlue" transform="translate(0.000000, -19.000000)">
            <path d="M42,19 L248,19 C271.195959,19 290,37.8040405 290,61 L290,266 C290,289.195959 271.195959,308 248,308 L42,308 C18.8040405,308 2.84068575e-15,289.195959 0,266 L0,61 C-2.84068575e-15,37.8040405 18.8040405,19 42,19 Z M146.4375,66.823 C137.893457,66.823 129.905787,68.0022382 122.47425,70.36075 C115.042713,72.7192618 108.456779,76.2347266 102.71625,80.90725 C96.9757213,85.5797734 92.1920191,91.4092151 88.365,98.39575 C84.5379809,105.382285 81.9570067,113.503454 80.622,122.7595 L97.977,125.83 C99.579008,126.097001 101.091993,126.2305 102.516,126.2305 C105.542015,126.2305 107.989491,125.496257 109.8585,124.02775 C111.727509,122.559243 113.195995,120.134017 114.264,116.752 C116.31101,110.254968 119.915474,104.937271 125.0775,100.79875 C130.239526,96.6602293 136.736461,94.591 144.5685,94.591 C153.201543,94.591 160.009975,96.9272266 164.994,101.59975 C169.978025,106.272273 172.47,113.191954 172.47,122.359 C172.47,126.631021 171.847006,130.546982 170.601,134.107 C169.354994,137.667018 167.152266,140.715237 163.99275,143.25175 C160.833234,145.788263 156.583527,147.768493 151.2435,149.1925 C145.903473,150.616507 139.18404,151.373 131.085,151.462 L131.085,174.958 C140.875049,174.958 148.684721,175.714492 154.51425,177.2275 C160.343779,178.740508 164.815984,180.831987 167.931,183.502 C171.046016,186.172013 173.092995,189.398231 174.072,193.18075 C175.051005,196.963269 175.5405,201.168477 175.5405,205.7965 C175.5405,209.445518 174.850757,213.072232 173.47125,216.67675 C172.091743,220.281268 170.000264,223.551985 167.19675,226.489 C164.393236,229.426015 160.900021,231.806741 156.717,233.63125 C152.533979,235.455759 147.639028,236.368 142.032,236.368 C137.047975,236.368 132.753768,235.633757 129.14925,234.16525 C125.544732,232.696743 122.407513,230.783262 119.7375,228.42475 C117.067487,226.066238 114.77576,223.374015 112.86225,220.348 C110.94874,217.321985 109.191008,214.251516 107.589,211.1365 C106.609995,209.267491 105.208259,207.843505 103.38375,206.8645 C101.559241,205.885495 99.4900116,205.396 97.176,205.396 C94.5949871,205.396 92.0585125,205.929995 89.5665,206.998 L75.015,213.0055 C77.6850133,221.282541 80.8889813,228.580468 84.627,234.8995 C88.3650187,241.218532 92.9039733,246.558478 98.244,250.9195 C103.584027,255.280522 109.858464,258.573489 117.0675,260.7985 C124.276536,263.023511 132.731451,264.136 142.4325,264.136 C151.332544,264.136 159.76521,262.845513 167.73075,260.2645 C175.69629,257.683487 182.70497,253.878775 188.757,248.85025 C194.80903,243.821725 199.614982,237.614037 203.175,230.227 C206.735018,222.839963 208.515,214.340548 208.515,204.7285 C208.515,193.425443 205.667028,184.036037 199.971,176.56 C194.274972,169.083963 185.642058,163.521518 174.072,159.8725 C178.878024,158.270492 183.172231,156.268012 186.95475,153.865 C190.737269,151.461988 193.941237,148.525017 196.56675,145.054 C199.192263,141.582983 201.194743,137.511273 202.57425,132.83875 C203.953757,128.166227 204.6435,122.759531 204.6435,116.6185 C204.6435,109.587465 203.286264,103.04603 200.57175,96.994 C197.857236,90.9419697 193.963525,85.6687725 188.8905,81.17425 C183.817475,76.6797275 177.698786,73.1642627 170.53425,70.62775 C163.369714,68.0912373 155.337544,66.823 146.4375,66.823 Z" id="Combined-Shape" fill="#1168DF" fill-rule="nonzero"></path>
            <g id="BOX" transform="translate(366.000000, 0.000000)">
                <g>
                    <use fill="#000000" xlink:href="#path-1"></use>
                    <use fill="#1168DF" xlink:href="#path-1"></use>
                </g>
            </g>
        </g>
    </g>
</svg>