<?xml version="1.0" encoding="UTF-8"?>
<svg width="90px" height="82px" viewBox="0 0 90 82" version="1.1" xmlns="http://www.w3.org/2000/svg" xmlns:xlink="http://www.w3.org/1999/xlink">
    <!-- Generator: Sketch 51.3 (57544) - http://www.bohemiancoding.com/sketch -->
    <title>Tokens</title>
    <desc>Created with Sketch.</desc>
    <defs></defs>
    <g id="Page-1" stroke="none" stroke-width="1" fill="none" fill-rule="evenodd">
        <g id="Tokens" fill="#7D7D7D" fill-rule="nonzero">
            <path d="M31,0 C22.862683,0 15.456693,1.59978 9.84375,4.40625 C4.5816151,7.037316 0.5478655,10.995909 0.0625,16 L0,53.125 L0,65 C0,70.4868 4.2322432,74.7559 9.84375,77.5625 C15.455256,80.3691 22.864857,82 31,82 C38.526106,82 45.379104,80.58725 50.8125,78.15625 C53.981968,79.349726 57.420294,80 61,80 C76.980724,80 90,66.9808 90,51 C90,35.352313 77.522596,22.558255 62,22.03125 L62,19 L62,17 L62,16 L61.9375,16 C61.452134,10.995909 57.418384,7.037316 52.15625,4.40625 C46.543307,1.59978 39.137317,0 31,0 Z M31,6 C38.326656,6 44.947687,7.52072 49.46875,9.78125 C53.989813,12.04178 56,14.75533 56,17 C56,19.24467 53.989813,21.95822 49.46875,24.21875 C44.947687,26.47928 38.326656,28 31,28 C23.673344,28 17.052313,26.47928 12.53125,24.21875 C9.487305,22.358747 6.289517,20.038457 6.03125,16.71875 C6.187132,14.529557 8.191913,11.950917 12.53125,9.78125 C17.052313,7.52072 23.673344,6 31,6 Z M6.03125,27.28125 C7.193767,28.138199 8.475814,28.909782 9.84375,29.59375 C15.456693,32.40022 22.862683,34 31,34 C33.35051,34 35.640001,33.852997 37.84375,33.59375 C36.393737,35.518753 35.158506,37.622006 34.21875,39.875 C33.167454,39.94197 32.089277,40 31,40 C23.673343,40 17.052312,38.47929 12.53125,36.21875 C8.152006,34.029119 6.153883,31.420665 6.03125,29.21875 L6.03125,27.28125 Z M61,28 C73.738084,28 84,38.26195 84,51 C84,63.7381 73.738084,74 61,74 C48.261916,74 38,63.7381 38,51 C38,38.26195 48.261916,28 61,28 Z M6.03125,39.25 C7.193767,40.104141 8.475813,40.878525 9.84375,41.5625 C15.456696,44.369 22.862684,46 31,46 C31.497998,46 31.979821,45.982793 32.46875,45.96875 C32.180878,47.604252 32,49.283725 32,51 C32,51.322606 32.020722,51.648641 32.03125,51.96875 C31.6864,51.975661 31.348686,52 31,52 C23.673336,52 17.052313,50.47925 12.53125,48.21875 C8.112096,46.009106 6.120079,43.370553 6.03125,41.15625 L6.03125,39.25 Z M5.99986044,51.21875 C7.1798,52.089061 8.485446,52.867741 9.875,53.5625 C15.487945,56.3689 22.862691,58 31,58 C31.622102,58 32.234406,57.990665 32.84375,57.96875 C33.353128,60.026765 34.107357,61.983763 35.03125,63.84375 C33.721608,63.945082 32.36975,64 31,64 C23.673343,64 17.052313,62.47925 12.53125,60.21875 C8.050095,57.978105 6.035214,55.295518 6,53.0625 C5.999686,53.042613 6,53.019815 6,53 L5.99986044,51.21875 Z M6,63.21875 C7.171648,64.08312 8.462132,64.871684 9.84375,65.5625 C15.456694,68.369 22.862684,70 31,70 C33.643294,70 36.204168,69.796605 38.65625,69.46875 C40.166846,71.292508 41.905707,72.903444 43.8125,74.3125 C40.077135,75.361331 35.685016,76 31,76 C23.675756,76 17.050746,74.47915 12.53125,72.21875 C8.011754,69.95825 6,67.2452 6,65 L6,63.21875 Z" id="Shape"></path>
        </g>
    </g>
</svg>