<?xml version="1.0" encoding="UTF-8"?>
<svg width="90px" height="82px" viewBox="0 0 90 82" version="1.1" xmlns="http://www.w3.org/2000/svg" xmlns:xlink="http://www.w3.org/1999/xlink">
    <!-- Generator: Sketch 51.3 (57544) - http://www.bohemiancoding.com/sketch -->
    <title>Tokens</title>
    <desc>Created with Sketch.</desc>
    <defs></defs>
    <g id="Page-1" stroke="none" stroke-width="1" fill="none" fill-rule="evenodd">
        <g id="Tokens" transform="translate(0.000000, -1.000000)" fill="#000000" fill-rule="nonzero">
            <g id="Group" transform="translate(0.000000, 0.637770)">
                <path d="M31,0.36223 C22.862683,0.36223 15.456693,1.96201 9.84375,4.76848 C4.5816151,7.399546 0.5478655,11.358139 0.0625,16.36223 L0,53.48723 L0,65.36223 C0,70.84903 4.2322432,75.11813 9.84375,77.92473 C15.455256,80.73133 22.864857,82.36223 31,82.36223 C38.526106,82.36223 45.379104,80.94948 50.8125,78.51848 C53.981968,79.711956 57.420294,80.36223 61,80.36223 C76.980724,80.36223 90,67.34303 90,51.36223 C90,35.714543 77.522596,22.920485 62,22.39348 L62,19.36223 L62,17.36223 L62,16.36223 L61.9375,16.36223 C61.452134,11.358139 57.418384,7.399546 52.15625,4.76848 C46.543307,1.96201 39.137317,0.36223 31,0.36223 Z M31,6.36223 C38.326656,6.36223 44.947687,7.88295 49.46875,10.14348 C53.989813,12.40401 56,15.11756 56,17.36223 C56,19.6069 53.989813,22.32045 49.46875,24.58098 C44.947687,26.84151 38.326656,28.36223 31,28.36223 C23.673344,28.36223 17.052313,26.84151 12.53125,24.58098 C9.487305,22.720977 6.289517,20.400687 6.03125,17.08098 C6.187132,14.891787 8.191913,12.313147 12.53125,10.14348 C17.052313,7.88295 23.673344,6.36223 31,6.36223 Z M6.03125,27.64348 C7.193767,28.500429 8.475814,29.272012 9.84375,29.95598 C15.456693,32.76245 22.862683,34.36223 31,34.36223 C33.35051,34.36223 35.640001,34.215227 37.84375,33.95598 C36.393737,35.880983 35.158506,37.984236 34.21875,40.23723 C33.167454,40.3042 32.089277,40.36223 31,40.36223 C23.673343,40.36223 17.052312,38.84152 12.53125,36.58098 C8.152006,34.391349 6.153883,31.782895 6.03125,29.58098 L6.03125,27.64348 Z M61,28.36223 C73.738084,28.36223 84,38.62418 84,51.36223 C84,64.10033 73.738084,74.36223 61,74.36223 C48.261916,74.36223 38,64.10033 38,51.36223 C38,38.62418 48.261916,28.36223 61,28.36223 Z M6.03125,39.61223 C7.193767,40.466371 8.475813,41.240755 9.84375,41.92473 C15.456696,44.73123 22.862684,46.36223 31,46.36223 C31.497998,46.36223 31.979821,46.345023 32.46875,46.33098 C32.180878,47.966482 32,49.645955 32,51.36223 C32,51.684836 32.020722,52.010871 32.03125,52.33098 C31.6864,52.337891 31.348686,52.36223 31,52.36223 C23.673336,52.36223 17.052313,50.84148 12.53125,48.58098 C8.112096,46.371336 6.120079,43.732783 6.03125,41.51848 L6.03125,39.61223 Z M5.99986044,51.58098 C7.1798,52.451291 8.485446,53.229971 9.875,53.92473 C15.487945,56.73113 22.862691,58.36223 31,58.36223 C31.622102,58.36223 32.234406,58.352895 32.84375,58.33098 C33.353128,60.388995 34.107357,62.345993 35.03125,64.20598 C33.721608,64.307312 32.36975,64.36223 31,64.36223 C23.673343,64.36223 17.052313,62.84148 12.53125,60.58098 C8.050095,58.340335 6.035214,55.657748 6,53.42473 C5.999686,53.404843 6,53.382045 6,53.36223 L5.99986044,51.58098 Z M6,63.58098 C7.171648,64.44535 8.462132,65.233914 9.84375,65.92473 C15.456694,68.73123 22.862684,70.36223 31,70.36223 C33.643294,70.36223 36.204168,70.158835 38.65625,69.83098 C40.166846,71.654738 41.905707,73.265674 43.8125,74.67473 C40.077135,75.723561 35.685016,76.36223 31,76.36223 C23.675756,76.36223 17.050746,74.84138 12.53125,72.58098 C8.011754,70.32048 6,67.60743 6,65.36223 L6,63.58098 Z" id="Shape"></path>
            </g>
        </g>
    </g>
</svg>