<?xml version="1.0" encoding="UTF-8"?>
<svg width="641px" height="917px" viewBox="0 0 641 917" version="1.1" xmlns="http://www.w3.org/2000/svg" xmlns:xlink="http://www.w3.org/1999/xlink">
    <!-- Generator: Sketch 51.3 (57544) - http://www.bohemiancoding.com/sketch -->
    <title>Transaction</title>
    <desc>Created with Sketch.</desc>
    <defs></defs>
    <g id="Page-1" stroke="none" stroke-width="1" fill="none" fill-rule="evenodd">
        <g id="Transaction" fill="#000000" fill-rule="nonzero">
            <path d="M526.80499,803.31006 C616.95621,713.16296 640.24505,689.23116 640.24505,686.73816 C640.24505,684.24516 617.08269,660.44406 527.4163,570.79806 C465.36049,508.75636 413.98939,457.99496 413.2583,457.99496 C410.89849,457.99496 350.24505,520.14106 350.24505,522.55896 C350.24505,523.92756 373.92597,548.54506 408.67756,583.30256 L467.11008,641.74496 L233.6776,641.74496 L0.245,641.74496 L0.245,686.74496 L0.245,731.74496 L233.6776,731.74496 L467.11008,731.74496 L408.67756,790.18746 C376.53967,822.33076 350.24505,849.52486 350.24505,850.61866 C350.24505,851.71256 351.37005,853.62566 352.74505,854.86996 C354.12005,856.11436 355.24505,857.74396 355.24505,858.49126 C355.24505,859.79906 411.44165,916.74496 412.7323,916.74496 C413.08024,916.74496 464.41295,865.69926 526.80499,803.31006 Z M256.7976,430.81766 C272.4437,415.18266 285.245,401.76986 285.245,401.01146 C285.245,400.25296 286.37,398.61436 287.745,397.36996 C289.12,396.12566 290.245,394.21256 290.245,393.11866 C290.245,392.02486 263.9504,364.83076 231.8125,332.68746 L173.38,274.24496 L406.81254,274.24496 L640.24505,274.24496 L640.24505,229.24496 L640.24505,184.24499 L406.81254,184.24499 L173.38,184.24499 L231.8125,125.80255 C266.5641,91.04506 290.245,66.42754 290.245,65.05899 C290.245,62.64109 229.5916,0.49499 227.2318,0.49499 C226.5007,0.49499 175.1296,51.25638 113.0738,113.29808 C23.5057,202.84578 0.245,226.74686 0.245,229.23306 C0.245,231.71906 23.6344,255.75536 113.68,345.80496 C176.0692,408.19696 227.3928,459.24496 227.7325,459.24496 C228.0722,459.24496 241.1515,446.45266 256.7976,430.81766 Z" id="Shape"></path>
        </g>
    </g>
</svg>