<?xml version="1.0" encoding="UTF-8"?>
<svg width="18px" height="20px" viewBox="0 0 18 20" version="1.1" xmlns="http://www.w3.org/2000/svg" xmlns:xlink="http://www.w3.org/1999/xlink">
    <!-- Generator: Sketch 53.2 (72643) - https://sketchapp.com -->
    <title>noun_Trash_1392339</title>
    <desc>Created with Sketch.</desc>
    <g id="Page-1" stroke="none" stroke-width="1" fill="none" fill-rule="evenodd">
        <g id="noun_Trash_1392339" transform="translate(-3.000000, -2.000000)">
            <g id="Group">
                <g>
                    <polygon id="Path" transform="translate(12.000000, 12.000000) scale(-1, 1) rotate(-180.000000) translate(-12.000000, -12.000000) " points="24 0 0 0 0 24 24 24"></polygon>
                    <path d="M18.96875,6.5 L18.1172027,20.1247566 C18.0513233,21.1788264 17.1772241,22 16.1210976,22 L7.87890244,22 C6.82277588,22 5.94867665,21.1788264 5.88279729,20.1247566 L5.03125,6.5 L3.75,6.5 C3.33578644,6.5 3,6.16421356 3,5.75 L3,5.75 L3,5.75 C3,5.33578644 3.33578644,5 3.75,5 L3.75,5 L20.25,5 C20.6642136,5 21,5.33578644 21,5.75 C21,6.16421356 20.6642136,6.5 20.25,6.5 L18.96875,6.5 Z M17.3724134,6.5 L6.62758612,6.5 L7.34786704,19.5550886 C7.37711257,20.0851637 7.8154673,20.5 8.34634851,20.5 L8.34634851,20.5 L15.6536519,20.5 C16.1845331,20.5 16.6228879,20.0851637 16.6521334,19.5550886 L17.3724134,6.5 Z M12.0000002,8 L12.0000002,8 L12.0000002,8 C12.3865995,8 12.7000002,8.31340067 12.7000002,8.69999999 L12.7000002,18.3 L12.7000002,18.3 C12.7000002,18.6865993 12.3865995,19 12.0000002,19 L12.0000002,19 L12.0000002,19 C11.6134009,19 11.3000002,18.6865993 11.3000002,18.3 L11.3000002,8.69999999 L11.3000002,8.69999999 C11.3000002,8.31340067 11.6134009,8 12.0000002,8 Z M9.00000018,8 L9.00000018,8 L9.00000018,8 C9.39163718,8 9.7140022,8.30804492 9.73178551,8.69927797 L10.1704848,18.3506704 L10.1704848,18.3506704 C10.1860614,18.6933548 9.92088804,18.9837828 9.57820356,18.9993593 C9.56880834,18.9997864 9.55940464,19 9.54999971,19 L9.54999971,19 L9.54999971,19 C9.18542607,19 8.88445403,18.7149972 8.86459773,18.3509647 L8.3381253,8.69896099 L8.3381253,8.69896099 C8.31818659,8.33341758 8.59835454,8.02092259 8.96389795,8.00098387 C8.97592085,8.00032808 8.9879594,8 9.00000018,8 Z M15.0000002,8 C15.3660869,8 15.6628589,8.29677196 15.6628589,8.66285873 C15.6628589,8.67489952 15.6625308,8.68693807 15.661875,8.69896098 L15.1381255,18.3010387 L15.1381255,18.3010387 C15.1167418,18.6930738 14.792618,19 14.4000001,19 C14.0339132,19 13.7371411,18.7032279 13.7371411,18.337141 C13.7371411,18.3251002 13.7374692,18.3130617 13.738125,18.3010387 L14.261875,8.69896098 C14.2832588,8.30692603 14.6073825,8 15.0000002,8 Z M10,2 L14,2 L14,2 C15.1045695,2 16,2.8954305 16,4 L16,5 L8,5 L8,4 C8,2.8954305 8.8954305,2 10,2 L10,2 Z M10.1,3.5 C9.76862913,3.5 9.5,3.76862913 9.5,4.09999996 L9.5,5 L14.5,5 L14.5,4.09999996 C14.5,3.76862913 14.2313709,3.5 13.9,3.5 L10.1,3.5 Z" id="Shape" fill="#CA3232" fill-rule="nonzero"></path>
                </g>
            </g>
        </g>
    </g>
</svg>