<?xml version="1.0" encoding="UTF-8"?>
<svg width="370px" height="358px" viewBox="0 0 370 358" version="1.1" xmlns="http://www.w3.org/2000/svg" xmlns:xlink="http://www.w3.org/1999/xlink">
    <!-- Generator: Sketch 51.2 (57519) - http://www.bohemiancoding.com/sketch -->
    <title>Group 48</title>
    <desc>Created with Sketch.</desc>
    <defs></defs>
    <g id="Page-1" stroke="none" stroke-width="1" fill="none" fill-rule="evenodd">
        <g id="Desktop-HD" transform="translate(-210.000000, -2495.000000)">
            <g id="Group-48" transform="translate(210.000000, 2495.000000)">
                <g id="Group-15">
                    <g id="blob-shape-(1)" transform="translate(24.605911, 16.403941)" fill="#31F8C0" fill-rule="nonzero">
                        <path d="M280.23399,72.8152709 C318.965517,113.004926 352.866995,165.497537 342.933498,207.600985 C332.908867,249.6133 279.049261,281.14532 223.640394,306.844828 C168.231527,332.453202 111.273399,352.137931 73.726601,333.364532 C36.08867,314.682266 17.770936,257.450739 7.3817734,201.495074 C-3.00738916,145.448276 -5.37684729,90.7684729 20.4137931,53.5862069 C46.2044335,16.4039409 100.064039,-3.18965517 148.91133,0.911330049 C197.758621,4.92118227 241.41133,32.7167488 280.23399,72.8152709 Z" id="Shape"></path>
                    </g>
                    <g id="Blob-Dots" opacity="0.700279018" fill="#C9FFEF">
                        <circle id="Oval-3-Copy-7" opacity="0.9" cx="277.955665" cy="77.4630542" r="4.55665025"></circle>
                        <circle id="Oval-3-Copy-8" opacity="0.9" cx="277.955665" cy="95.6896552" r="4.55665025"></circle>
                        <circle id="Oval-3-Copy" opacity="0.9" cx="277.955665" cy="113.916256" r="4.55665025"></circle>
                        <circle id="Oval-3-Copy-2" opacity="0.9" cx="277.955665" cy="132.142857" r="4.55665025"></circle>
                        <circle id="Oval-3-Copy-3" opacity="0.9" cx="277.955665" cy="150.369458" r="4.55665025"></circle>
                        <circle id="Oval-3-Copy-4" opacity="0.9" cx="277.955665" cy="168.596059" r="4.55665025"></circle>
                        <circle id="Oval-3-Copy-5" opacity="0.9" cx="277.955665" cy="186.82266" r="4.55665025"></circle>
                        <circle id="Oval-3-Copy-6" opacity="0.9" cx="277.955665" cy="205.049261" r="4.55665025"></circle>
                        <circle id="Oval-3-Copy-7" opacity="0.9" cx="277.955665" cy="223.275862" r="4.55665025"></circle>
                        <circle id="Oval-3-Copy-8" opacity="0.9" cx="277.955665" cy="241.502463" r="4.55665025"></circle>
                        <circle id="Oval-3-Copy-8" opacity="0.9" cx="296.182266" cy="95.6896552" r="4.55665025"></circle>
                        <circle id="Oval-3-Copy" opacity="0.9" cx="296.182266" cy="113.916256" r="4.55665025"></circle>
                        <circle id="Oval-3-Copy-2" opacity="0.9" cx="296.182266" cy="132.142857" r="4.55665025"></circle>
                        <circle id="Oval-3-Copy-3" opacity="0.9" cx="296.182266" cy="150.369458" r="4.55665025"></circle>
                        <circle id="Oval-3-Copy-4" opacity="0.9" cx="296.182266" cy="168.596059" r="4.55665025"></circle>
                        <circle id="Oval-3-Copy-5" opacity="0.9" cx="296.182266" cy="186.82266" r="4.55665025"></circle>
                        <circle id="Oval-3-Copy-6" opacity="0.9" cx="296.182266" cy="205.049261" r="4.55665025"></circle>
                        <circle id="Oval-3-Copy-7" opacity="0.9" cx="296.182266" cy="223.275862" r="4.55665025"></circle>
                        <circle id="Oval-3-Copy-8" opacity="0.9" cx="296.182266" cy="241.502463" r="4.55665025"></circle>
                        <circle id="Oval-3-Copy-2" opacity="0.9" cx="314.408867" cy="132.142857" r="4.55665025"></circle>
                        <circle id="Oval-3-Copy-3" opacity="0.9" cx="314.408867" cy="150.369458" r="4.55665025"></circle>
                        <circle id="Oval-3-Copy-4" opacity="0.9" cx="314.408867" cy="168.596059" r="4.55665025"></circle>
                        <circle id="Oval-3-Copy-5" opacity="0.9" cx="314.408867" cy="186.82266" r="4.55665025"></circle>
                        <circle id="Oval-3-Copy-6" opacity="0.9" cx="314.408867" cy="205.049261" r="4.55665025"></circle>
                        <circle id="Oval-3-Copy-7" opacity="0.9" cx="314.408867" cy="223.275862" r="4.55665025"></circle>
                        <circle id="Oval-3-Copy-8" opacity="0.9" cx="314.408867" cy="241.502463" r="4.55665025"></circle>
                        <circle id="Oval-3-Copy-4" opacity="0.9" cx="332.635468" cy="168.596059" r="4.55665025"></circle>
                        <circle id="Oval-3-Copy-5" opacity="0.9" cx="332.635468" cy="186.82266" r="4.55665025"></circle>
                        <circle id="Oval-3-Copy-6" opacity="0.9" cx="332.635468" cy="205.049261" r="4.55665025"></circle>
                        <circle id="Oval-3-Copy-7" opacity="0.9" cx="332.635468" cy="223.275862" r="4.55665025"></circle>
                        <circle id="Oval-3-Copy-4" opacity="0.9" cx="186.82266" cy="22.7832512" r="4.55665025"></circle>
                        <circle id="Oval-3-Copy-5" opacity="0.9" cx="186.82266" cy="41.0098522" r="4.55665025"></circle>
                        <circle id="Oval-3-Copy-6" opacity="0.9" cx="186.82266" cy="59.2364532" r="4.55665025"></circle>
                        <circle id="Oval-3-Copy-7" opacity="0.9" cx="186.82266" cy="77.4630542" r="4.55665025"></circle>
                        <circle id="Oval-3-Copy-8" opacity="0.9" cx="186.82266" cy="95.6896552" r="4.55665025"></circle>
                        <circle id="Oval-3-Copy" opacity="0.9" cx="186.82266" cy="113.916256" r="4.55665025"></circle>
                        <circle id="Oval-3-Copy-2" opacity="0.9" cx="186.82266" cy="132.142857" r="4.55665025"></circle>
                        <circle id="Oval-3-Copy-3" opacity="0.9" cx="186.82266" cy="150.369458" r="4.55665025"></circle>
                        <circle id="Oval-3-Copy-4" opacity="0.9" cx="186.82266" cy="168.596059" r="4.55665025"></circle>
                        <circle id="Oval-3-Copy-5" opacity="0.9" cx="186.82266" cy="186.82266" r="4.55665025"></circle>
                        <circle id="Oval-3-Copy-6" opacity="0.9" cx="186.82266" cy="205.049261" r="4.55665025"></circle>
                        <circle id="Oval-3-Copy-7" opacity="0.9" cx="186.82266" cy="223.275862" r="4.55665025"></circle>
                        <circle id="Oval-3-Copy-8" opacity="0.9" cx="186.82266" cy="241.502463" r="4.55665025"></circle>
                        <circle id="Oval-3-Copy-4" opacity="0.9" cx="205.049261" cy="22.7832512" r="4.55665025"></circle>
                        <circle id="Oval-3-Copy-5" opacity="0.9" cx="205.049261" cy="41.0098522" r="4.55665025"></circle>
                        <circle id="Oval-3-Copy-6" opacity="0.9" cx="205.049261" cy="59.2364532" r="4.55665025"></circle>
                        <circle id="Oval-3-Copy-7" opacity="0.9" cx="205.049261" cy="77.4630542" r="4.55665025"></circle>
                        <circle id="Oval-3-Copy-8" opacity="0.9" cx="205.049261" cy="95.6896552" r="4.55665025"></circle>
                        <circle id="Oval-3-Copy" opacity="0.9" cx="205.049261" cy="113.916256" r="4.55665025"></circle>
                        <circle id="Oval-3-Copy-2" opacity="0.9" cx="205.049261" cy="132.142857" r="4.55665025"></circle>
                        <circle id="Oval-3-Copy-3" opacity="0.9" cx="205.049261" cy="150.369458" r="4.55665025"></circle>
                        <circle id="Oval-3-Copy-4" opacity="0.9" cx="205.049261" cy="168.596059" r="4.55665025"></circle>
                        <circle id="Oval-3-Copy-5" opacity="0.9" cx="205.049261" cy="186.82266" r="4.55665025"></circle>
                        <circle id="Oval-3-Copy-6" opacity="0.9" cx="205.049261" cy="205.049261" r="4.55665025"></circle>
                        <circle id="Oval-3-Copy-7" opacity="0.9" cx="205.049261" cy="223.275862" r="4.55665025"></circle>
                        <circle id="Oval-3-Copy-8" opacity="0.9" cx="205.049261" cy="241.502463" r="4.55665025"></circle>
                        <circle id="Oval-3-Copy-5" opacity="0.9" cx="223.275862" cy="41.0098522" r="4.55665025"></circle>
                        <circle id="Oval-3-Copy-6" opacity="0.9" cx="223.275862" cy="59.2364532" r="4.55665025"></circle>
                        <circle id="Oval-3-Copy-7" opacity="0.9" cx="223.275862" cy="77.4630542" r="4.55665025"></circle>
                        <circle id="Oval-3-Copy-8" opacity="0.9" cx="223.275862" cy="95.6896552" r="4.55665025"></circle>
                        <circle id="Oval-3-Copy" opacity="0.9" cx="223.275862" cy="113.916256" r="4.55665025"></circle>
                        <circle id="Oval-3-Copy-2" opacity="0.9" cx="223.275862" cy="132.142857" r="4.55665025"></circle>
                        <circle id="Oval-3-Copy-3" opacity="0.9" cx="223.275862" cy="150.369458" r="4.55665025"></circle>
                        <circle id="Oval-3-Copy-4" opacity="0.9" cx="223.275862" cy="168.596059" r="4.55665025"></circle>
                        <circle id="Oval-3-Copy-5" opacity="0.9" cx="223.275862" cy="186.82266" r="4.55665025"></circle>
                        <circle id="Oval-3-Copy-6" opacity="0.9" cx="223.275862" cy="205.049261" r="4.55665025"></circle>
                        <circle id="Oval-3-Copy-7" opacity="0.9" cx="223.275862" cy="223.275862" r="4.55665025"></circle>
                        <circle id="Oval-3-Copy-8" opacity="0.9" cx="223.275862" cy="241.502463" r="4.55665025"></circle>
                        <circle id="Oval-3-Copy-5" opacity="0.9" cx="241.502463" cy="41.0098522" r="4.55665025"></circle>
                        <circle id="Oval-3-Copy-6" opacity="0.9" cx="241.502463" cy="59.2364532" r="4.55665025"></circle>
                        <circle id="Oval-3-Copy-7" opacity="0.9" cx="241.502463" cy="77.4630542" r="4.55665025"></circle>
                        <circle id="Oval-3-Copy-8" opacity="0.9" cx="241.502463" cy="95.6896552" r="4.55665025"></circle>
                        <circle id="Oval-3-Copy" opacity="0.9" cx="241.502463" cy="113.916256" r="4.55665025"></circle>
                        <circle id="Oval-3-Copy-2" opacity="0.9" cx="241.502463" cy="132.142857" r="4.55665025"></circle>
                        <circle id="Oval-3-Copy-3" opacity="0.9" cx="241.502463" cy="150.369458" r="4.55665025"></circle>
                        <circle id="Oval-3-Copy-4" opacity="0.9" cx="241.502463" cy="168.596059" r="4.55665025"></circle>
                        <circle id="Oval-3-Copy-5" opacity="0.9" cx="241.502463" cy="186.82266" r="4.55665025"></circle>
                        <circle id="Oval-3-Copy-6" opacity="0.9" cx="241.502463" cy="205.049261" r="4.55665025"></circle>
                        <circle id="Oval-3-Copy-7" opacity="0.9" cx="241.502463" cy="223.275862" r="4.55665025"></circle>
                        <circle id="Oval-3-Copy-8" opacity="0.9" cx="241.502463" cy="241.502463" r="4.55665025"></circle>
                        <circle id="Oval-3-Copy-6" opacity="0.9" cx="259.729064" cy="59.2364532" r="4.55665025"></circle>
                        <circle id="Oval-3-Copy-7" opacity="0.9" cx="259.729064" cy="77.4630542" r="4.55665025"></circle>
                        <circle id="Oval-3-Copy-8" opacity="0.9" cx="259.729064" cy="95.6896552" r="4.55665025"></circle>
                        <circle id="Oval-3-Copy" opacity="0.9" cx="259.729064" cy="113.916256" r="4.55665025"></circle>
                        <circle id="Oval-3-Copy-2" opacity="0.9" cx="259.729064" cy="132.142857" r="4.55665025"></circle>
                        <circle id="Oval-3-Copy-3" opacity="0.9" cx="259.729064" cy="150.369458" r="4.55665025"></circle>
                        <circle id="Oval-3-Copy-4" opacity="0.9" cx="259.729064" cy="168.596059" r="4.55665025"></circle>
                        <circle id="Oval-3-Copy-5" opacity="0.9" cx="259.729064" cy="186.82266" r="4.55665025"></circle>
                        <circle id="Oval-3-Copy-6" opacity="0.9" cx="259.729064" cy="205.049261" r="4.55665025"></circle>
                        <circle id="Oval-3-Copy-7" opacity="0.9" cx="259.729064" cy="223.275862" r="4.55665025"></circle>
                        <circle id="Oval-3-Copy-8" opacity="0.9" cx="259.729064" cy="241.502463" r="4.55665025"></circle>
                        <circle id="Oval-3-Copy-3" opacity="0.9" cx="95.6896552" cy="4.55665025" r="4.55665025"></circle>
                        <circle id="Oval-3-Copy-4" opacity="0.9" cx="95.6896552" cy="22.7832512" r="4.55665025"></circle>
                        <circle id="Oval-3-Copy-5" opacity="0.9" cx="95.6896552" cy="41.0098522" r="4.55665025"></circle>
                        <circle id="Oval-3-Copy-6" opacity="0.9" cx="95.6896552" cy="59.2364532" r="4.55665025"></circle>
                        <circle id="Oval-3-Copy-7" opacity="0.9" cx="95.6896552" cy="77.4630542" r="4.55665025"></circle>
                        <circle id="Oval-3-Copy-8" opacity="0.9" cx="95.6896552" cy="95.6896552" r="4.55665025"></circle>
                        <circle id="Oval-3-Copy" opacity="0.9" cx="95.6896552" cy="113.916256" r="4.55665025"></circle>
                        <circle id="Oval-3-Copy-2" opacity="0.9" cx="95.6896552" cy="132.142857" r="4.55665025"></circle>
                        <circle id="Oval-3-Copy-3" opacity="0.9" cx="95.6896552" cy="150.369458" r="4.55665025"></circle>
                        <circle id="Oval-3-Copy-4" opacity="0.9" cx="95.6896552" cy="168.596059" r="4.55665025"></circle>
                        <circle id="Oval-3-Copy-5" opacity="0.9" cx="95.6896552" cy="186.82266" r="4.55665025"></circle>
                        <circle id="Oval-3-Copy-6" opacity="0.9" cx="95.6896552" cy="205.049261" r="4.55665025"></circle>
                        <circle id="Oval-3-Copy-7" opacity="0.9" cx="95.6896552" cy="223.275862" r="4.55665025"></circle>
                        <circle id="Oval-3-Copy-8" opacity="0.9" cx="95.6896552" cy="241.502463" r="4.55665025"></circle>
                        <circle id="Oval-3-Copy-3" opacity="0.9" cx="113.916256" cy="4.55665025" r="4.55665025"></circle>
                        <circle id="Oval-3-Copy-4" opacity="0.9" cx="113.916256" cy="22.7832512" r="4.55665025"></circle>
                        <circle id="Oval-3-Copy-5" opacity="0.9" cx="113.916256" cy="41.0098522" r="4.55665025"></circle>
                        <circle id="Oval-3-Copy-6" opacity="0.9" cx="113.916256" cy="59.2364532" r="4.55665025"></circle>
                        <circle id="Oval-3-Copy-7" opacity="0.9" cx="113.916256" cy="77.4630542" r="4.55665025"></circle>
                        <circle id="Oval-3-Copy-8" opacity="0.9" cx="113.916256" cy="95.6896552" r="4.55665025"></circle>
                        <circle id="Oval-3-Copy" opacity="0.9" cx="113.916256" cy="113.916256" r="4.55665025"></circle>
                        <circle id="Oval-3-Copy-2" opacity="0.9" cx="113.916256" cy="132.142857" r="4.55665025"></circle>
                        <circle id="Oval-3-Copy-3" opacity="0.9" cx="113.916256" cy="150.369458" r="4.55665025"></circle>
                        <circle id="Oval-3-Copy-4" opacity="0.9" cx="113.916256" cy="168.596059" r="4.55665025"></circle>
                        <circle id="Oval-3-Copy-5" opacity="0.9" cx="113.916256" cy="186.82266" r="4.55665025"></circle>
                        <circle id="Oval-3-Copy-6" opacity="0.9" cx="113.916256" cy="205.049261" r="4.55665025"></circle>
                        <circle id="Oval-3-Copy-7" opacity="0.9" cx="113.916256" cy="223.275862" r="4.55665025"></circle>
                        <circle id="Oval-3-Copy-8" opacity="0.9" cx="113.916256" cy="241.502463" r="4.55665025"></circle>
                        <circle id="Oval-3-Copy-3" opacity="0.9" cx="132.142857" cy="4.55665025" r="4.55665025"></circle>
                        <circle id="Oval-3-Copy-4" opacity="0.9" cx="132.142857" cy="22.7832512" r="4.55665025"></circle>
                        <circle id="Oval-3-Copy-5" opacity="0.9" cx="132.142857" cy="41.0098522" r="4.55665025"></circle>
                        <circle id="Oval-3-Copy-6" opacity="0.9" cx="132.142857" cy="59.2364532" r="4.55665025"></circle>
                        <circle id="Oval-3-Copy-7" opacity="0.9" cx="132.142857" cy="77.4630542" r="4.55665025"></circle>
                        <circle id="Oval-3-Copy-8" opacity="0.9" cx="132.142857" cy="95.6896552" r="4.55665025"></circle>
                        <circle id="Oval-3-Copy" opacity="0.9" cx="132.142857" cy="113.916256" r="4.55665025"></circle>
                        <circle id="Oval-3-Copy-2" opacity="0.9" cx="132.142857" cy="132.142857" r="4.55665025"></circle>
                        <circle id="Oval-3-Copy-3" opacity="0.9" cx="132.142857" cy="150.369458" r="4.55665025"></circle>
                        <circle id="Oval-3-Copy-4" opacity="0.9" cx="132.142857" cy="168.596059" r="4.55665025"></circle>
                        <circle id="Oval-3-Copy-5" opacity="0.9" cx="132.142857" cy="186.82266" r="4.55665025"></circle>
                        <circle id="Oval-3-Copy-6" opacity="0.9" cx="132.142857" cy="205.049261" r="4.55665025"></circle>
                        <circle id="Oval-3-Copy-7" opacity="0.9" cx="132.142857" cy="223.275862" r="4.55665025"></circle>
                        <circle id="Oval-3-Copy-8" opacity="0.9" cx="132.142857" cy="241.502463" r="4.55665025"></circle>
                        <circle id="Oval-3-Copy-3" opacity="0.9" cx="150.369458" cy="4.55665025" r="4.55665025"></circle>
                        <circle id="Oval-3-Copy-4" opacity="0.9" cx="150.369458" cy="22.7832512" r="4.55665025"></circle>
                        <circle id="Oval-3-Copy-5" opacity="0.9" cx="150.369458" cy="41.0098522" r="4.55665025"></circle>
                        <circle id="Oval-3-Copy-6" opacity="0.9" cx="150.369458" cy="59.2364532" r="4.55665025"></circle>
                        <circle id="Oval-3-Copy-7" opacity="0.9" cx="150.369458" cy="77.4630542" r="4.55665025"></circle>
                        <circle id="Oval-3-Copy-8" opacity="0.9" cx="150.369458" cy="95.6896552" r="4.55665025"></circle>
                        <circle id="Oval-3-Copy" opacity="0.9" cx="150.369458" cy="113.916256" r="4.55665025"></circle>
                        <circle id="Oval-3-Copy-2" opacity="0.9" cx="150.369458" cy="132.142857" r="4.55665025"></circle>
                        <circle id="Oval-3-Copy-3" opacity="0.9" cx="150.369458" cy="150.369458" r="4.55665025"></circle>
                        <circle id="Oval-3-Copy-4" opacity="0.9" cx="150.369458" cy="168.596059" r="4.55665025"></circle>
                        <circle id="Oval-3-Copy-5" opacity="0.9" cx="150.369458" cy="186.82266" r="4.55665025"></circle>
                        <circle id="Oval-3-Copy-6" opacity="0.9" cx="150.369458" cy="205.049261" r="4.55665025"></circle>
                        <circle id="Oval-3-Copy-7" opacity="0.9" cx="150.369458" cy="223.275862" r="4.55665025"></circle>
                        <circle id="Oval-3-Copy-8" opacity="0.9" cx="150.369458" cy="241.502463" r="4.55665025"></circle>
                        <circle id="Oval-3-Copy-3" opacity="0.9" cx="168.596059" cy="4.55665025" r="4.55665025"></circle>
                        <circle id="Oval-3-Copy-4" opacity="0.9" cx="168.596059" cy="22.7832512" r="4.55665025"></circle>
                        <circle id="Oval-3-Copy-5" opacity="0.9" cx="168.596059" cy="41.0098522" r="4.55665025"></circle>
                        <circle id="Oval-3-Copy-6" opacity="0.9" cx="168.596059" cy="59.2364532" r="4.55665025"></circle>
                        <circle id="Oval-3-Copy-7" opacity="0.9" cx="168.596059" cy="77.4630542" r="4.55665025"></circle>
                        <circle id="Oval-3-Copy-8" opacity="0.9" cx="168.596059" cy="95.6896552" r="4.55665025"></circle>
                        <circle id="Oval-3-Copy" opacity="0.9" cx="168.596059" cy="113.916256" r="4.55665025"></circle>
                        <circle id="Oval-3-Copy-2" opacity="0.9" cx="168.596059" cy="132.142857" r="4.55665025"></circle>
                        <circle id="Oval-3-Copy-3" opacity="0.9" cx="168.596059" cy="150.369458" r="4.55665025"></circle>
                        <circle id="Oval-3-Copy-4" opacity="0.9" cx="168.596059" cy="168.596059" r="4.55665025"></circle>
                        <circle id="Oval-3-Copy-5" opacity="0.9" cx="168.596059" cy="186.82266" r="4.55665025"></circle>
                        <circle id="Oval-3-Copy-6" opacity="0.9" cx="168.596059" cy="205.049261" r="4.55665025"></circle>
                        <circle id="Oval-3-Copy-7" opacity="0.9" cx="168.596059" cy="223.275862" r="4.55665025"></circle>
                        <circle id="Oval-3-Copy-8" opacity="0.9" cx="168.596059" cy="241.502463" r="4.55665025"></circle>
                        <circle id="Oval-3-Copy-8" opacity="0.9" cx="4.55665025" cy="95.6896552" r="4.55665025"></circle>
                        <circle id="Oval-3-Copy" opacity="0.9" cx="4.55665025" cy="113.916256" r="4.55665025"></circle>
                        <circle id="Oval-3-Copy-2" opacity="0.9" cx="4.55665025" cy="132.142857" r="4.55665025"></circle>
                        <circle id="Oval-3-Copy-3" opacity="0.9" cx="4.55665025" cy="150.369458" r="4.55665025"></circle>
                        <circle id="Oval-3-Copy-4" opacity="0.9" cx="4.55665025" cy="168.596059" r="4.55665025"></circle>
                        <circle id="Oval-3-Copy-5" opacity="0.9" cx="4.55665025" cy="186.82266" r="4.55665025"></circle>
                        <circle id="Oval-3-Copy-6" opacity="0.9" cx="22.7832512" cy="59.2364532" r="4.55665025"></circle>
                        <circle id="Oval-3-Copy-7" opacity="0.9" cx="22.7832512" cy="77.4630542" r="4.55665025"></circle>
                        <circle id="Oval-3-Copy-8" opacity="0.9" cx="22.7832512" cy="95.6896552" r="4.55665025"></circle>
                        <circle id="Oval-3-Copy" opacity="0.9" cx="22.7832512" cy="113.916256" r="4.55665025"></circle>
                        <circle id="Oval-3-Copy-2" opacity="0.9" cx="22.7832512" cy="132.142857" r="4.55665025"></circle>
                        <circle id="Oval-3-Copy-3" opacity="0.9" cx="22.7832512" cy="150.369458" r="4.55665025"></circle>
                        <circle id="Oval-3-Copy-4" opacity="0.9" cx="22.7832512" cy="168.596059" r="4.55665025"></circle>
                        <circle id="Oval-3-Copy-5" opacity="0.9" cx="22.7832512" cy="186.82266" r="4.55665025"></circle>
                        <circle id="Oval-3-Copy-6" opacity="0.9" cx="22.7832512" cy="205.049261" r="4.55665025"></circle>
                        <circle id="Oval-3-Copy-7" opacity="0.9" cx="22.7832512" cy="223.275862" r="4.55665025"></circle>
                        <circle id="Oval-3-Copy-8" opacity="0.9" cx="22.7832512" cy="241.502463" r="4.55665025"></circle>
                        <circle id="Oval-3-Copy-5" opacity="0.9" cx="41.0098522" cy="41.0098522" r="4.55665025"></circle>
                        <circle id="Oval-3-Copy-6" opacity="0.9" cx="41.0098522" cy="59.2364532" r="4.55665025"></circle>
                        <circle id="Oval-3-Copy-7" opacity="0.9" cx="41.0098522" cy="77.4630542" r="4.55665025"></circle>
                        <circle id="Oval-3-Copy-8" opacity="0.9" cx="41.0098522" cy="95.6896552" r="4.55665025"></circle>
                        <circle id="Oval-3-Copy" opacity="0.9" cx="41.0098522" cy="113.916256" r="4.55665025"></circle>
                        <circle id="Oval-3-Copy-2" opacity="0.9" cx="41.0098522" cy="132.142857" r="4.55665025"></circle>
                        <circle id="Oval-3-Copy-3" opacity="0.9" cx="41.0098522" cy="150.369458" r="4.55665025"></circle>
                        <circle id="Oval-3-Copy-4" opacity="0.9" cx="41.0098522" cy="168.596059" r="4.55665025"></circle>
                        <circle id="Oval-3-Copy-5" opacity="0.9" cx="41.0098522" cy="186.82266" r="4.55665025"></circle>
                        <circle id="Oval-3-Copy-6" opacity="0.9" cx="41.0098522" cy="205.049261" r="4.55665025"></circle>
                        <circle id="Oval-3-Copy-7" opacity="0.9" cx="41.0098522" cy="223.275862" r="4.55665025"></circle>
                        <circle id="Oval-3-Copy-8" opacity="0.9" cx="41.0098522" cy="241.502463" r="4.55665025"></circle>
                        <circle id="Oval-3-Copy-4" opacity="0.9" cx="59.2364532" cy="22.7832512" r="4.55665025"></circle>
                        <circle id="Oval-3-Copy-5" opacity="0.9" cx="59.2364532" cy="41.0098522" r="4.55665025"></circle>
                        <circle id="Oval-3-Copy-6" opacity="0.9" cx="59.2364532" cy="59.2364532" r="4.55665025"></circle>
                        <circle id="Oval-3-Copy-7" opacity="0.9" cx="59.2364532" cy="77.4630542" r="4.55665025"></circle>
                        <circle id="Oval-3-Copy-8" opacity="0.9" cx="59.2364532" cy="95.6896552" r="4.55665025"></circle>
                        <circle id="Oval-3-Copy" opacity="0.9" cx="59.2364532" cy="113.916256" r="4.55665025"></circle>
                        <circle id="Oval-3-Copy-2" opacity="0.9" cx="59.2364532" cy="132.142857" r="4.55665025"></circle>
                        <circle id="Oval-3-Copy-3" opacity="0.9" cx="59.2364532" cy="150.369458" r="4.55665025"></circle>
                        <circle id="Oval-3-Copy-4" opacity="0.9" cx="59.2364532" cy="168.596059" r="4.55665025"></circle>
                        <circle id="Oval-3-Copy-5" opacity="0.9" cx="59.2364532" cy="186.82266" r="4.55665025"></circle>
                        <circle id="Oval-3-Copy-6" opacity="0.9" cx="59.2364532" cy="205.049261" r="4.55665025"></circle>
                        <circle id="Oval-3-Copy-7" opacity="0.9" cx="59.2364532" cy="223.275862" r="4.55665025"></circle>
                        <circle id="Oval-3-Copy-8" opacity="0.9" cx="59.2364532" cy="241.502463" r="4.55665025"></circle>
                        <circle id="Oval-3-Copy-4" opacity="0.9" cx="77.4630542" cy="22.7832512" r="4.55665025"></circle>
                        <circle id="Oval-3-Copy-5" opacity="0.9" cx="77.4630542" cy="41.0098522" r="4.55665025"></circle>
                        <circle id="Oval-3-Copy-6" opacity="0.9" cx="77.4630542" cy="59.2364532" r="4.55665025"></circle>
                        <circle id="Oval-3-Copy-7" opacity="0.9" cx="77.4630542" cy="77.4630542" r="4.55665025"></circle>
                        <circle id="Oval-3-Copy-8" opacity="0.9" cx="77.4630542" cy="95.6896552" r="4.55665025"></circle>
                        <circle id="Oval-3-Copy" opacity="0.9" cx="77.4630542" cy="113.916256" r="4.55665025"></circle>
                        <circle id="Oval-3-Copy-2" opacity="0.9" cx="77.4630542" cy="132.142857" r="4.55665025"></circle>
                        <circle id="Oval-3-Copy-3" opacity="0.9" cx="77.4630542" cy="150.369458" r="4.55665025"></circle>
                        <circle id="Oval-3-Copy-4" opacity="0.9" cx="77.4630542" cy="168.596059" r="4.55665025"></circle>
                        <circle id="Oval-3-Copy-5" opacity="0.9" cx="77.4630542" cy="186.82266" r="4.55665025"></circle>
                        <circle id="Oval-3-Copy-6" opacity="0.9" cx="77.4630542" cy="205.049261" r="4.55665025"></circle>
                        <circle id="Oval-3-Copy-7" opacity="0.9" cx="77.4630542" cy="223.275862" r="4.55665025"></circle>
                        <circle id="Oval-3-Copy-8" opacity="0.9" cx="77.4630542" cy="241.502463" r="4.55665025"></circle>
                        <circle id="Oval-3" opacity="0.9" cx="277.955665" cy="259.729064" r="4.55665025"></circle>
                        <circle id="Oval-3" opacity="0.9" cx="296.182266" cy="259.729064" r="4.55665025"></circle>
                        <circle id="Oval-3" opacity="0.9" cx="186.82266" cy="259.729064" r="4.55665025"></circle>
                        <circle id="Oval-3-Copy" opacity="0.9" cx="186.82266" cy="277.955665" r="4.55665025"></circle>
                        <circle id="Oval-3-Copy-2" opacity="0.9" cx="186.82266" cy="296.182266" r="4.55665025"></circle>
                        <circle id="Oval-3-Copy-3" opacity="0.9" cx="186.82266" cy="314.408867" r="4.55665025"></circle>
                        <circle id="Oval-3" opacity="0.9" cx="205.049261" cy="259.729064" r="4.55665025"></circle>
                        <circle id="Oval-3-Copy" opacity="0.9" cx="205.049261" cy="277.955665" r="4.55665025"></circle>
                        <circle id="Oval-3-Copy-2" opacity="0.9" cx="205.049261" cy="296.182266" r="4.55665025"></circle>
                        <circle id="Oval-3" opacity="0.9" cx="223.275862" cy="259.729064" r="4.55665025"></circle>
                        <circle id="Oval-3-Copy" opacity="0.9" cx="223.275862" cy="277.955665" r="4.55665025"></circle>
                        <circle id="Oval-3-Copy-2" opacity="0.9" cx="223.275862" cy="296.182266" r="4.55665025"></circle>
                        <circle id="Oval-3" opacity="0.9" cx="241.502463" cy="259.729064" r="4.55665025"></circle>
                        <circle id="Oval-3-Copy" opacity="0.9" cx="241.502463" cy="277.955665" r="4.55665025"></circle>
                        <circle id="Oval-3" opacity="0.9" cx="259.729064" cy="259.729064" r="4.55665025"></circle>
                        <circle id="Oval-3-Copy" opacity="0.9" cx="259.729064" cy="277.955665" r="4.55665025"></circle>
                        <circle id="Oval-3" opacity="0.9" cx="95.6896552" cy="259.729064" r="4.55665025"></circle>
                        <circle id="Oval-3-Copy" opacity="0.9" cx="95.6896552" cy="277.955665" r="4.55665025"></circle>
                        <circle id="Oval-3-Copy-2" opacity="0.9" cx="95.6896552" cy="296.182266" r="4.55665025"></circle>
                        <circle id="Oval-3-Copy-3" opacity="0.9" cx="95.6896552" cy="314.408867" r="4.55665025"></circle>
                        <circle id="Oval-3-Copy-4" opacity="0.9" cx="95.6896552" cy="332.635468" r="4.55665025"></circle>
                        <circle id="Oval-3" opacity="0.9" cx="113.916256" cy="259.729064" r="4.55665025"></circle>
                        <circle id="Oval-3-Copy" opacity="0.9" cx="113.916256" cy="277.955665" r="4.55665025"></circle>
                        <circle id="Oval-3-Copy-2" opacity="0.9" cx="113.916256" cy="296.182266" r="4.55665025"></circle>
                        <circle id="Oval-3-Copy-3" opacity="0.9" cx="113.916256" cy="314.408867" r="4.55665025"></circle>
                        <circle id="Oval-3-Copy-4" opacity="0.9" cx="113.916256" cy="332.635468" r="4.55665025"></circle>
                        <circle id="Oval-3" opacity="0.9" cx="132.142857" cy="259.729064" r="4.55665025"></circle>
                        <circle id="Oval-3-Copy" opacity="0.9" cx="132.142857" cy="277.955665" r="4.55665025"></circle>
                        <circle id="Oval-3-Copy-2" opacity="0.9" cx="132.142857" cy="296.182266" r="4.55665025"></circle>
                        <circle id="Oval-3-Copy-3" opacity="0.9" cx="132.142857" cy="314.408867" r="4.55665025"></circle>
                        <circle id="Oval-3-Copy-4" opacity="0.9" cx="132.142857" cy="332.635468" r="4.55665025"></circle>
                        <circle id="Oval-3" opacity="0.9" cx="150.369458" cy="259.729064" r="4.55665025"></circle>
                        <circle id="Oval-3-Copy" opacity="0.9" cx="150.369458" cy="277.955665" r="4.55665025"></circle>
                        <circle id="Oval-3-Copy-2" opacity="0.9" cx="150.369458" cy="296.182266" r="4.55665025"></circle>
                        <circle id="Oval-3-Copy-3" opacity="0.9" cx="150.369458" cy="314.408867" r="4.55665025"></circle>
                        <circle id="Oval-3" opacity="0.9" cx="168.596059" cy="259.729064" r="4.55665025"></circle>
                        <circle id="Oval-3-Copy" opacity="0.9" cx="168.596059" cy="277.955665" r="4.55665025"></circle>
                        <circle id="Oval-3-Copy-2" opacity="0.9" cx="168.596059" cy="296.182266" r="4.55665025"></circle>
                        <circle id="Oval-3-Copy-3" opacity="0.9" cx="168.596059" cy="314.408867" r="4.55665025"></circle>
                        <circle id="Oval-3" opacity="0.9" cx="22.7832512" cy="259.729064" r="4.55665025"></circle>
                        <circle id="Oval-3" opacity="0.9" cx="41.0098522" cy="259.729064" r="4.55665025"></circle>
                        <circle id="Oval-3-Copy" opacity="0.9" cx="41.0098522" cy="277.955665" r="4.55665025"></circle>
                        <circle id="Oval-3-Copy-2" opacity="0.9" cx="41.0098522" cy="296.182266" r="4.55665025"></circle>
                        <circle id="Oval-3" opacity="0.9" cx="59.2364532" cy="259.729064" r="4.55665025"></circle>
                        <circle id="Oval-3-Copy" opacity="0.9" cx="59.2364532" cy="277.955665" r="4.55665025"></circle>
                        <circle id="Oval-3-Copy-2" opacity="0.9" cx="59.2364532" cy="296.182266" r="4.55665025"></circle>
                        <circle id="Oval-3-Copy-3" opacity="0.9" cx="59.2364532" cy="314.408867" r="4.55665025"></circle>
                        <circle id="Oval-3" opacity="0.9" cx="77.4630542" cy="259.729064" r="4.55665025"></circle>
                        <circle id="Oval-3-Copy" opacity="0.9" cx="77.4630542" cy="277.955665" r="4.55665025"></circle>
                        <circle id="Oval-3-Copy-2" opacity="0.9" cx="77.4630542" cy="296.182266" r="4.55665025"></circle>
                        <circle id="Oval-3-Copy-3" opacity="0.9" cx="77.4630542" cy="314.408867" r="4.55665025"></circle>
                        <circle id="Oval-3-Copy-4" opacity="0.9" cx="77.4630542" cy="332.635468" r="4.55665025"></circle>
                    </g>
                    <g id="noun_Handshake_285024" transform="translate(65.000000, 124.000000)" fill="#181F21" fill-rule="nonzero">
                        <g id="Group" transform="translate(0.000000, 0.779509)">
                            <path d="M5.45454545,0.987381818 C2.48512636,0.987381818 0,3.98410909 0,6.44192727 L0,93.7145455 C0.000286363636,96.5705455 2.59863,99.1688182 5.45454545,99.1690909 L43.6363636,99.1690909 C46.4922791,99.1688182 49.0906227,96.5705455 49.0909091,93.7145455 L49.0909091,88.26 L54.2897727,88.26 L79.7157273,129.026455 C83.2561745,134.703 90.2119882,137.307545 95.4545455,137.351182 C101.549217,137.400273 106.502975,133.827 109.346591,128.913545 C112.569281,131.028273 116.405525,131.896636 120,131.896636 C123.960003,131.896636 128.148355,130.847455 131.846591,128.316818 C133.954582,126.874364 135.877527,124.852364 137.215909,122.350909 C139.586809,123.269455 142.087336,123.714545 144.545455,123.714545 C148.4541,123.714545 152.611255,122.652273 156.306818,120.135 C158.475655,118.657636 160.485109,116.579455 161.846591,113.998636 C165.154173,115.213909 168.710618,115.532727 171.818182,115.532727 C178.841427,115.532727 184.263518,110.916273 187.073864,105.646364 C189.868009,100.407 190.806464,93.8631818 187.5,88.26 L190.909091,88.26 L190.909091,93.7145455 C190.909391,96.5705455 193.507718,99.1688182 196.363636,99.1690909 L234.545455,99.1690909 C237.401373,99.1688182 239.999727,96.5705455 240,93.7145455 L240,6.44192727 C239.999727,3.5862 237.401373,0.987654545 234.545455,0.987381818 L196.363636,0.987381818 C193.394209,0.987381818 190.909091,3.98410909 190.909091,6.44192727 L190.909091,11.8964727 L170.028409,11.8964727 L124.005682,1.07274545 C123.591728,0.974563636 123.152515,0.9882 122.727273,0.9882 C121.379599,0.9882 120.051854,1.49983636 119.232955,2.18138182 L107.556818,11.8972909 L49.0909091,11.8972909 L49.0909091,6.44274545 C49.0906227,3.58674545 46.4922791,0.988472727 43.6363636,0.9882 L5.45454545,0.987381818 Z M10.9090909,11.8964727 L38.1818182,11.8964727 L38.1818182,88.26 L10.9090909,88.26 L10.9090909,11.8964727 Z M201.818182,11.8964727 L229.090909,11.8964727 L229.090909,88.26 L201.818182,88.26 L201.818182,18.3737455 C201.898636,17.8381091 201.898636,17.2902 201.818182,16.7545636 L201.818182,11.8964727 Z M124.176136,12.3227455 L167.8125,22.6351091 C168.229909,22.7414727 168.660027,22.7987455 169.090909,22.8042 L190.909091,22.8042 L190.909091,77.3495455 L180.9375,77.3495455 L154.6875,33.6282 C153.248509,31.2301091 149.801891,30.3082909 147.357955,31.6678364 L99.8863636,58.0882909 C94.5570955,57.7217455 91.4564236,56.2591091 89.8295455,54.5941091 C88.0590082,52.7821091 87.2726973,50.3957455 87.2727273,47.3496545 C87.27264,44.6049273 89.0748327,41.7347455 93.4943182,37.8895636 C93.5320364,37.8568364 93.5414182,37.8377455 93.5795455,37.8050182 L124.176136,12.3227455 Z M49.0909091,22.8055636 L94.5170455,22.8055636 L86.5056818,29.4532909 C86.4769636,29.4805636 86.4485455,29.5105636 86.4204545,29.5378364 C80.9761909,34.2478364 76.3633991,39.9792 76.3636364,47.3504727 C76.3635845,52.4379273 77.8447827,57.9393818 81.9886364,62.1800182 C86.13249,66.4205455 92.5100918,68.9517273 100.738636,69.1685455 C101.71452,69.1985455 102.697285,68.9612727 103.551136,68.4867273 L148.039773,43.7709273 C148.039773,43.7709273 176.632745,88.9900909 177.489164,90.5571818 C178.220973,91.8962727 178.636364,93.4328182 178.636364,95.0776364 C178.636364,100.349455 174.362727,104.623091 169.090909,104.623091 C165.781636,104.623091 162.865691,102.939 161.153264,100.381091 C160.137709,98.8641818 138.238636,63.4581818 138.238636,63.4581818 C136.693855,61.0599273 133.142782,60.3031091 130.738636,61.8391091 C128.334491,63.375 127.506922,66.9291818 129.034091,69.339 C129.034091,69.339 149.030318,100.009636 150,101.895818 C152.716418,107.179091 148.908055,112.751455 144.545455,112.804909 C141.7608,112.840364 139.300691,111.413455 137.822973,109.288091 C136.902955,107.964818 119.147727,79.8218182 119.147727,79.8218182 C118.089739,78.1175455 116.032257,77.0888182 114.034091,77.265 C110.286513,77.5849091 107.873245,82.5621818 109.943182,85.7026364 C109.943182,85.7026364 124.507208,108.452727 125.454545,110.077636 C128.409993,115.146545 124.295572,120.908455 120,120.986727 C116.957926,121.041273 114.302741,119.325818 112.893016,116.861455 C112.209085,115.665818 100.227273,93.7990909 100.227273,93.7990909 C99.2153427,91.8586364 96.9472091,90.6537273 94.7727273,90.9013636 C91.1792591,91.3082727 88.8511936,95.9642727 90.6818182,99.0831818 C90.6818182,99.0831818 99.8375809,113.521909 100.909091,115.532182 C103.611944,120.603 99.6203182,126.361636 95.4545455,126.441273 C92.8411145,126.490364 90.5074745,125.204727 89.0058982,123.289636 C88.25238,122.328545 61.875,79.9071818 61.875,79.9071818 C60.9020127,78.3556364 59.10408,77.3566364 57.2727273,77.3503636 L49.0909091,77.3503636 L49.0909091,22.8055636 Z M24.5454545,71.8963636 C21.5329364,71.8963636 19.0909364,74.3380909 19.0909091,77.3509091 C19.0908,80.3634545 21.5329364,82.8054545 24.5454545,82.8054545 C27.5576727,82.8054545 30.0001636,80.3634545 30,77.3509091 C30.0001364,74.3383636 27.5577273,71.8963636 24.5454545,71.8963636 Z M215.454545,71.8963636 C212.442109,71.8963636 210.000027,74.3383636 210,77.3509091 C210.000055,80.3631818 212.442055,82.8054545 215.454545,82.8054545 C218.4669,82.8057273 220.909145,80.3631818 220.909091,77.3509091 C220.909145,74.3380909 218.467009,71.8963636 215.454545,71.8963636 Z" id="Shape"></path>
                        </g>
                    </g>
                </g>
            </g>
        </g>
    </g>
</svg>