<?xml version="1.0" encoding="UTF-8"?>
<svg width="33px" height="27px" viewBox="0 0 33 27" version="1.1" xmlns="http://www.w3.org/2000/svg" xmlns:xlink="http://www.w3.org/1999/xlink">
    <!-- Generator: Sketch 52.5 (67469) - http://www.bohemiancoding.com/sketch -->
    <title>twitterWhite</title>
    <desc>Created with Sketch.</desc>
    <g id="Page-1" stroke="none" stroke-width="1" fill="none" fill-rule="evenodd">
        <g id="twitterWhite" fill="#A0A0A0">
            <path d="M32.431296,3.11902541 C31.2357539,3.64981618 29.9542739,4.00620388 28.6070774,4.16796859 C29.9820774,3.34397929 31.0386028,2.03975135 31.5340072,0.487821529 C30.2499999,1.248621 28.821921,1.80215976 27.3079043,2.10041312 C26.094669,0.806295471 24.3658087,0 22.4524357,0 C18.7773441,0 15.7973348,2.97748129 15.7973348,6.65257353 C15.7973348,7.17325335 15.8579965,7.68129547 15.9717372,8.16911765 C10.4414063,7.89108424 5.54044105,5.24218718 2.25712352,1.21576271 C1.68336416,2.20151606 1.35730734,3.34397929 1.35730734,4.56227006 C1.35730734,6.86994453 2.53010146,8.90716912 4.31709546,10.1027112 C3.22518369,10.0673249 2.19898916,9.76654412 1.3017004,9.26861165 C1.3017004,9.29641512 1.3017004,9.32421859 1.3017004,9.35202206 C1.3017004,12.5772059 3.59673716,15.2640161 6.63740828,15.8782166 C6.08134211,16.029871 5.49241764,16.1107534 4.88579999,16.1107534 C4.45611216,16.1107534 4.03906269,16.0703122 3.63212352,15.9894298 C4.48138822,18.630744 6.93818969,20.5592828 9.84742634,20.6123616 C7.57261016,22.3968289 4.70381469,23.4584098 1.58478864,23.4584098 C1.04641564,23.4584098 0.518152929,23.4280789 0,23.3648897 C2.94209546,25.2555147 6.44025722,26.3550087 10.1987592,26.3550087 C22.4372706,26.3550087 29.1302853,16.2169118 29.1302853,7.42601071 C29.1302853,7.13786765 29.1227024,6.84719653 29.1125921,6.56410829 C30.4117646,5.62637835 31.5390627,4.45358424 32.431296,3.11902541 Z" id="Shape"></path>
        </g>
    </g>
</svg>